<svg xmlns="http://www.w3.org/2000/svg" width="194.639" height="59.699" viewBox="0 0 194.639 59.699">
  <defs>
    <style>
      .cls-1 {
        fill: #fff;
      }

      .cls-2, .cls-5, .cls-6 {
        fill: #0a0909;
      }

      .cls-3 {
        fill: rgba(0,0,0,0);
      }

      .cls-4 {
        fill: #72242b;
      }

      .cls-5 {
        font-size: 5px;
        letter-spacing: 0.2em;
      }

      .cls-5, .cls-6 {
        font-family: ShipporiMincho-Regular, しっぽり明朝;
      }

      .cls-6 {
        font-size: 7px;
        letter-spacing: 0.1em;
      }
    </style>
  </defs>
  <g id="グループ_884" data-name="グループ 884" transform="translate(-14.9)">
    <g id="グループ_15" data-name="グループ 15" transform="translate(14.901 0)">
      <path id="パス_14" data-name="パス 14" class="cls-1" d="M0,224.082H.75l.02.188L0,224.347v-.265" transform="translate(0 -164.649)"/>
      <path id="前面オブジェクトで型抜き_1" data-name="前面オブジェクトで型抜き 1" class="cls-2" d="M15.234,27.437h0a1.578,1.578,0,0,1,.291-1.145c.538-.9,1.171-1.761,1.784-2.589.558-.754,1.135-1.535,1.639-2.35a6.08,6.08,0,0,0,.741-1.814,13.03,13.03,0,0,0,.273-2.141,17.166,17.166,0,0,0,0-2.12,5.525,5.525,0,0,0-.125-.783,6.2,6.2,0,0,1-.119-.7,8.227,8.227,0,0,1-.015-.981c0-.1.005-.184.005-.255l-.339-.821-.144-.349-.437-1.059-.589.22-.242.09-.618.231-.179.067a2.128,2.128,0,0,0-.55.988c-.193.562-.375,1.094-1.2,1.094a4.781,4.781,0,0,1-1.378-1.529A9.04,9.04,0,0,1,13.233,9.6L13,10.06l-.113.219-.289.562a2.024,2.024,0,0,1-1.462-1.252,4.653,4.653,0,0,0-.5-.752l.079-.58.027-.194.025-.185.125-.916h-.013L9.8,6.892l-.53.611L9.1,7.71l-.238.274V9.861l.59-.377.093-.059.414-.264.749.721.251.241c-.045.067-.09.139-.138.214l0,0a3.832,3.832,0,0,1-.4.558,1.9,1.9,0,0,1-.741.585c-.593.18-.825.657-1.093,1.209l-.012.024v.994c.141.119.286.235.426.348a8.015,8.015,0,0,1,1.444,1.386c.078.57-.346.761-.8.964h0a1.639,1.639,0,0,0-.9.692,1.4,1.4,0,0,0,.649.154,3.207,3.207,0,0,0,.816-.143l.013,0A3.059,3.059,0,0,1,11,16.971a1.237,1.237,0,0,1,.386.058,1.813,1.813,0,0,0,.23.235.861.861,0,0,1,.382.9,4.88,4.88,0,0,1-1.389,1.244,8.467,8.467,0,0,1-1.762.79,11.523,11.523,0,0,0-1.7.783l-.021.011c-.2.1-.4.211-.6.312-.1.051-.257.166-.273.277-.073.51-.441.664-.8.812a2.845,2.845,0,0,0-.37.176A3.584,3.584,0,0,1,3.653,20.89a5.958,5.958,0,0,1-.406-2.156l.383-.206.133-.072.346-.186.558.516.426-.142L7.032,18l.166-.055v-1.2l-.734-.376-.96-.492-.212-.108-.983-.976a.678.678,0,0,1,.119-.46.746.746,0,0,1,.565-.256,1.788,1.788,0,0,0,.5-.138h0a1.629,1.629,0,0,1,.587-.145.873.873,0,0,1,.132.01,3.073,3.073,0,0,0,.456.029c.114,0,.228,0,.349-.007h.029c.13,0,.265-.009.4-.009v-1.2c-.081-.033-.165-.076-.255-.123l-.01,0a1.907,1.907,0,0,0-.685-.248A3.612,3.612,0,0,1,4.464,11.4,9.765,9.765,0,0,1,2.978,9.777,9.058,9.058,0,0,1,1.719,7.509a3.026,3.026,0,0,0-.391-.646v0a2.159,2.159,0,0,1-.481-.988A3.038,3.038,0,0,0,.534,5a3.786,3.786,0,0,1-.287-.727A9.279,9.279,0,0,1,.064,2.929C.046,2.713.026,2.491,0,2.259l.225-.172L.65,1.764l.92-.7A4.454,4.454,0,0,1,4.376,2.543a6.816,6.816,0,0,1,1.309,2.75H7.4l.143-.143L7.6,5.09l.13-.129V2.481l.537-.091.345-.058c-.075-.078-.154-.158-.218-.222A2.16,2.16,0,0,1,7.511.341,3.8,3.8,0,0,1,8.3.274c.136,0,.272,0,.4.007H8.72c.157,0,.288.008.423.008l.159,0h0L9.553.28c.235-.006.527-.014.8-.014.3,0,.564.009.8.028a11.664,11.664,0,0,1,1.224.187l.041.008c.179.033.365.068.557.1A1.232,1.232,0,0,1,13.306.9a.973.973,0,0,0,.719.462A2.223,2.223,0,0,1,14.4,2.978c-.067.1-.139.193-.208.281a1.392,1.392,0,0,0-.305.518c-.093.42-.216.842-.335,1.251v0a7.267,7.267,0,0,0-.426,3.4,1.9,1.9,0,0,1,.377-.04,1.792,1.792,0,0,1,1.361.7l.987-.154,1.937-.3,2.943-.46c0-.034.008-.078.013-.122.012-.1.025-.207,0-.214-.968-.324-1.136-1.147-1.284-1.874l-.025-.123c-.1-.143-.186-.28-.273-.413l0,0A8.811,8.811,0,0,0,18.6,4.63a7.943,7.943,0,0,0-.934-.94c-.168-.148-.351-.285-.528-.419l-.005,0,0,0a5.7,5.7,0,0,1-.834-.719,4.685,4.685,0,0,1-.6-.943c-.078-.148-.167-.316-.264-.481l.422-.856a3.875,3.875,0,0,0,1.369.317,2.018,2.018,0,0,0,.961-.237.633.633,0,0,1,.239-.061c.421-.03.848-.057,1.246-.082l.035,0C20.555.146,21.433.09,22.293.011,22.377,0,22.461,0,22.544,0a4.9,4.9,0,0,1,2.05.6l.006,0c.175.081.355.164.534.24a1.244,1.244,0,0,1,.475.573,3.482,3.482,0,0,0,.193.32A8.378,8.378,0,0,0,23.585,3.6a16.007,16.007,0,0,0-1.7,2.469c-.09.644-.2,1.473-.305,2.2l.741-.231.043-.013A8.031,8.031,0,0,1,24.531,7.5a5.386,5.386,0,0,1,1.849.51c.2.077.406.153.631.237l.451.911c-.108.072-.211.148-.31.221l0,0a3.106,3.106,0,0,1-.65.4,4.068,4.068,0,0,0-1.154.709,5.707,5.707,0,0,0-.911,1.039l-.179.254c-.556.788-1.13,1.6-1.68,2.429a3.067,3.067,0,0,1-.845.744c-.143.1-.291.2-.426.308.027.11.06.222.092.331v0a3.067,3.067,0,0,1,.155.744c.025.682.02,1.376.016,2.047,0,.285,0,.579,0,.869a2.53,2.53,0,0,1-.018.256.825.825,0,0,0,.046.523,1.374,1.374,0,0,1-.042,1.6,3.337,3.337,0,0,0-.254.627l-.963.05c-.088.093-.2.187-.3.277l0,0a1.427,1.427,0,0,0-.542.676c-.056.293-.25.352-.438.409-.166.051-.323.1-.393.3a2.7,2.7,0,0,1-.735,1.014c-.481.439-.995.855-1.491,1.257-.192.156-.409.332-.618.5l.065.065.039.039-.51.433-.028.024-.141.119ZM23.059,9.6a8.915,8.915,0,0,0-2.141.248,3.3,3.3,0,0,0-1.377.626l.906.562.091.056,1.472.913c.045-.279.085-.519.125-.76.095-.095.194-.192.3-.292l0,0c.265-.26.538-.529.794-.811a.92.92,0,0,0,.16-.334c.021-.063.043-.129.071-.2C23.33,9.608,23.2,9.6,23.059,9.6ZM5.772,6.438h0c-.632,1.955-.495,2.874,0,3.979l.638-.145.467-.106.537-.123L7.537,9.2l.082-.584.072-.51L5.772,6.438Zm3.351-3.82V4.79a.7.7,0,0,0,.8.538l.122,0a4.209,4.209,0,0,1,.631.1c.1.022.208.042.315.061a2.1,2.1,0,0,1,.076-1.2A2.174,2.174,0,0,0,11.1,2.838L10.771,2.8l-.225-.025L9.123,2.618ZM20.865,2.6l-1.038.556.138.147.05.053.41.437c.429-.218.68-.436.6-.847a.753.753,0,0,0-.091-.21c-.021-.038-.047-.085-.071-.136Z" transform="translate(76.307 16.448)"/>
      <path id="前面オブジェクトで型抜き_1_-_アウトライン" data-name="前面オブジェクトで型抜き 1 - アウトライン" class="cls-3" d="M14.884,28.68l-.144-1.164a2.071,2.071,0,0,1,.355-1.48,31.862,31.862,0,0,1,1.81-2.629c.554-.748,1.124-1.519,1.617-2.318a5.581,5.581,0,0,0,.68-1.665,12.585,12.585,0,0,0,.26-2.058,16.658,16.658,0,0,0,0-2.058,5.159,5.159,0,0,0-.116-.711,6.67,6.67,0,0,1-.128-.757A8.641,8.641,0,0,1,19.2,12.8c0-.053,0-.1,0-.144l-.444-1.075-.253-.613-.137.051-.944.352a2.023,2.023,0,0,0-.347.716A1.688,1.688,0,0,1,15.4,13.52h-.159l-.13-.092a5.27,5.27,0,0,1-1.521-1.685,7.542,7.542,0,0,1-.441-.89l-.111.217-.167.326-.361-.06a2.081,2.081,0,0,1-1.288-.712,4.189,4.189,0,0,1-.442.613,2.307,2.307,0,0,1-.966.727c-.349.106-.507.374-.75.87v.644l.229.185.009.008a8.421,8.421,0,0,1,1.526,1.471l.081.106.018.132a1.154,1.154,0,0,1-.489,1.16A2.579,2.579,0,0,1,11,16.471a1.729,1.729,0,0,1,.539.083l.149.048.1.125a1.481,1.481,0,0,0,.167.166,1.347,1.347,0,0,1,.537,1.368l-.022.11-.068.09a5.37,5.37,0,0,1-1.528,1.37A8.953,8.953,0,0,1,9,20.67a11.141,11.141,0,0,0-1.625.751l-.036.019c-.2.1-.4.209-.6.31l-.02.012a1.529,1.529,0,0,1-1.079,1.091,2.456,2.456,0,0,0-.3.142l-.265.16-.261-.166a4.068,4.068,0,0,1-1.62-1.9,6.433,6.433,0,0,1-.445-2.333l-.01-.31.273-.147.383-.206.794-.427.262.243.34.315L6.7,17.581l0-.536-1.7-.872-.055-.055-.982-.975-.133-.132-.013-.187a1.158,1.158,0,0,1,.22-.8,1.22,1.22,0,0,1,.924-.451,1.389,1.389,0,0,0,.348-.1l.01,0a2.083,2.083,0,0,1,.766-.179,1.375,1.375,0,0,1,.207.016,2.59,2.59,0,0,0,.381.023c.09,0,.179,0,.282-.005v-.4a1.554,1.554,0,0,0-.489-.191,4.1,4.1,0,0,1-2.311-.942,10.154,10.154,0,0,1-1.564-1.706,9.545,9.545,0,0,1-1.33-2.391,2.562,2.562,0,0,0-.323-.527L.922,7.155A2.629,2.629,0,0,1,.35,5.94a2.652,2.652,0,0,0-.268-.722A4.227,4.227,0,0,1-.24,4.392,9.636,9.636,0,0,1-.434,2.973C-.452,2.76-.471,2.54-.5,2.315l-.032-.282L1.437.536,1.649.57A4.934,4.934,0,0,1,4.755,2.218,6.884,6.884,0,0,1,6.062,4.793H7.195l.039-.039V2.059L7.606,2A2.207,2.207,0,0,1,7.012.3l.031-.372.365-.076A4.268,4.268,0,0,1,8.3-.226c.139,0,.274,0,.406.007h.027c.166,0,.286.008.409.008l.145,0,.086,0,.164,0c.21-.006.526-.014.818-.014.315,0,.59.01.841.03a12.012,12.012,0,0,1,1.274.193L12.516,0c.166.031.356.066.547.1l.083.014.074.04a1.648,1.648,0,0,1,.472.434c.179.217.244.276.355.281l.237.01.142.19a2.7,2.7,0,0,1,.471,1.96l-.012.124-.069.1c-.078.118-.159.222-.231.313a1.251,1.251,0,0,0-.211.319c-.1.434-.221.864-.342,1.28l0,.006a8.091,8.091,0,0,0-.469,2.719,2.187,2.187,0,0,1,1.479.666l2.668-.417,2.043-.319a3.18,3.18,0,0,1-.779-1.757l-.005-.025c-.077-.114-.148-.225-.218-.332L18.739,5.7a8.44,8.44,0,0,0-.524-.749,7.473,7.473,0,0,0-.877-.881c-.153-.134-.326-.265-.494-.392l-.021-.016a6.025,6.025,0,0,1-.9-.779,5.126,5.126,0,0,1-.666-1.042c-.076-.144-.162-.306-.253-.462l-.136-.232L14.987.9l.422-.856.2-.41.427.165a3.437,3.437,0,0,0,1.188.283,1.509,1.509,0,0,0,.728-.18,1.1,1.1,0,0,1,.436-.117c.367-.026.764-.052,1.251-.082l.031,0c.846-.054,1.718-.11,2.575-.189.1-.009.2-.013.3-.013A5.364,5.364,0,0,1,24.8.149l.008,0c.16.074.343.158.517.232a1.637,1.637,0,0,1,.717.79,3.127,3.127,0,0,0,.164.274l.321.451-.481.274a7.888,7.888,0,0,0-2.085,1.749,15.292,15.292,0,0,0-1.6,2.309c-.056.4-.12.863-.184,1.325l.031-.01A8.212,8.212,0,0,1,24.531,7a5.744,5.744,0,0,1,2.026.542c.2.077.4.153.628.236l.186.069.1.2.438.886.2.394-.366.244c-.095.063-.188.131-.29.207l-.008.006a3.5,3.5,0,0,1-.753.462,3.576,3.576,0,0,0-1.015.623,5.219,5.219,0,0,0-.831.949l-.179.254c-.525.745-1.12,1.588-1.673,2.419a3.488,3.488,0,0,1-.978.879L22,15.379l-.127.088a3.472,3.472,0,0,1,.173.861c.025.692.02,1.392.016,2.068,0,.284,0,.577,0,.866a2.937,2.937,0,0,1-.02.307,2,2,0,0,0-.015.224A1.864,1.864,0,0,1,22,21.86a2.93,2.93,0,0,0-.219.531l-.091.358-.369.018-.774.04c-.062.057-.126.112-.188.165l-.008.006c-.123.106-.354.3-.375.39a.989.989,0,0,1-.783.793l-.082.026a3.237,3.237,0,0,1-.854,1.175c-.492.448-1.011.869-1.512,1.276l-.022.018-.168.137.1.1-1.054.9Zm4.777-17.54.024.058.521,1.262v.1c0,.077,0,.165-.005.268a7.83,7.83,0,0,0,.013.922,5.818,5.818,0,0,0,.11.643,5.908,5.908,0,0,1,.135.855,17.664,17.664,0,0,1,0,2.182,13.476,13.476,0,0,1-.285,2.223,6.579,6.579,0,0,1-.8,1.963c-.515.834-1.1,1.622-1.662,2.385-.331.447-.667.9-.99,1.367.292-.242.583-.489.86-.741a2.179,2.179,0,0,0,.6-.811.973.973,0,0,1,.718-.608c.029-.009.068-.021.095-.031a1.8,1.8,0,0,1,.706-.955l.007-.006c.093-.08.191-.165.261-.239l.137-.146.234-.012.593-.031c.053-.129.112-.25.167-.363.248-.511.339-.732.083-1.093a1.208,1.208,0,0,1-.135-.863c.008-.074.015-.149.015-.2,0-.292,0-.587,0-.873,0-.666.009-1.355-.015-2.026a2.674,2.674,0,0,0-.135-.62l0-.008c-.032-.107-.067-.228-.1-.349l-.075-.309.249-.2c.146-.117.3-.222.446-.323l.008-.006a2.738,2.738,0,0,0,.713-.61c.56-.841,1.159-1.69,1.687-2.44l.179-.254a6.2,6.2,0,0,1,.992-1.128,4.559,4.559,0,0,1,1.293-.795A2.57,2.57,0,0,0,26.825,9l-.175-.353L26.2,8.478A5.169,5.169,0,0,0,24.531,8a7.921,7.921,0,0,0-2.019.5l-.043.014-.743.232-.75.232.047-.342-.873.136-2.288.357-3.191.5-.181-.2a1.3,1.3,0,0,0-.955-.535l.176.563a8.566,8.566,0,0,0,.747,1.785,4.337,4.337,0,0,0,1.1,1.273c.319-.041.4-.235.576-.748a2.551,2.551,0,0,1,.7-1.2L16.9,10.5l1.123-.419.589-.22.453-.169.163.4A3.923,3.923,0,0,1,20.8,9.368,9.42,9.42,0,0,1,23.059,9.1c.142,0,.282,0,.418.008l.715.03-.273.661c-.021.05-.039.1-.058.161a1.352,1.352,0,0,1-.264.514c-.267.294-.545.568-.815.833l-.019.019-.161.159c-.031.189-.063.382-.1.6l-.12.74-.637-.395-1.472-.913-.091-.057Zm-15.9,7.884a5.091,5.091,0,0,0,.352,1.67,3.063,3.063,0,0,0,1.008,1.291l.136-.058c.369-.154.466-.215.495-.421a.969.969,0,0,1,.544-.654c.193-.1.389-.2.579-.3l.037-.019a11.878,11.878,0,0,1,1.774-.814,7.978,7.978,0,0,0,1.659-.742,4.436,4.436,0,0,0,1.173-1.016c0-.1-.061-.166-.239-.328-.053-.048-.11-.1-.165-.157A.833.833,0,0,0,11,17.471a2.667,2.667,0,0,0-.655.122l-.014,0a3.645,3.645,0,0,1-.943.159,1.884,1.884,0,0,1-.876-.209l-.436-.222.213-.441a1.7,1.7,0,0,1,.767-.747l-.021-.082.439-.118c.347-.158.448-.231.47-.31a7.958,7.958,0,0,0-1.262-1.178l-.01-.008c-.139-.112-.284-.228-.426-.348l-.177-.15V12.6l.062-.127a2.369,2.369,0,0,1,1.4-1.469,1.655,1.655,0,0,0,.517-.443,2.683,2.683,0,0,0,.267-.364l-.421-.4-1.533.979V7.8L9.59,6.377l.248.016,1.062.069.56.018-.3,2.211a6.357,6.357,0,0,1,.41.647,1.966,1.966,0,0,0,.772.907l.1-.2.17-.331.176-.344L13,8.965l-.273.055-.093-.5a7.65,7.65,0,0,1,.438-3.63l0-.006c.116-.4.237-.812.326-1.215a1.8,1.8,0,0,1,.4-.719c.039-.05.077-.1.113-.148a1.759,1.759,0,0,0-.184-.98,1.6,1.6,0,0,1-.806-.6c-.043-.053-.1-.118-.139-.159-.159-.028-.312-.056-.451-.082L12.288.973a11.289,11.289,0,0,0-1.17-.179c-.225-.018-.473-.027-.761-.027S9.782.775,9.566.78L9.4.785l-.091,0-.165,0c-.148,0-.29,0-.434-.008H8.681C8.556.777,8.427.774,8.3.774c-.095,0-.181,0-.262.006a2.388,2.388,0,0,0,.713.977c.057.057.143.143.226.23l.12.126.08.009,1.3.145.969.108.112.276a2.646,2.646,0,0,1-.006,1.769,1.69,1.69,0,0,0-.083.921l.246.786-.811-.144c-.114-.02-.225-.043-.328-.064a3.851,3.851,0,0,0-.556-.088l-.1,0a1.184,1.184,0,0,1-1.269-.878l-.026-.077V2.838l-.268.045L8.234,2.9V5.168L7.9,5.5l-.144.144-.146.146H5.792l.308.268L8.019,7.729l.205.178-.358,2.546L5.489,11l-.168-.373c-.539-1.2-.7-2.241-.024-4.339l.159-.492H5.3l-.1-.37A6.348,6.348,0,0,0,4,2.869,3.9,3.9,0,0,0,1.7,1.595L.526,2.486c.013.136.025.269.036.4A8.926,8.926,0,0,0,.733,4.16a3.373,3.373,0,0,0,.252.628,3.468,3.468,0,0,1,.356,1.019,1.7,1.7,0,0,0,.382.75l.009.012a3.464,3.464,0,0,1,.451.754A8.57,8.57,0,0,0,3.372,9.468a9.388,9.388,0,0,0,1.407,1.546,3.128,3.128,0,0,0,1.762.723,2.318,2.318,0,0,1,.871.3l.012.006c.079.041.154.079.215.1l.311.127V14.31h-.5c-.128,0-.257,0-.381.008H7.033c-.129,0-.246.008-.365.008a3.554,3.554,0,0,1-.53-.035.379.379,0,0,0-.058,0,1.215,1.215,0,0,0-.4.109l-.01,0a2.242,2.242,0,0,1-.639.17.455.455,0,0,0-.186.045l.744.738L7.7,16.435V18.3L4.545,19.354l-.217-.2-.3-.274-.164.088ZM20.521,10.5l.189.117.091.057.836.518,0-.022.026-.158.113-.113c.09-.09.184-.183.281-.278l.029-.028c.157-.154.317-.312.473-.472a8.016,8.016,0,0,0-1.523.22A4.946,4.946,0,0,0,20.521,10.5ZM6.034,7.329a3.845,3.845,0,0,0,.042,2.508l.895-.2.187-1.326Zm3.324.842v.777l.659-.421.136.131.168-1.231-.3-.02ZM19.574,5.145l.008.011c.087.134.174.268.267.4l.056.082.02.1.026.125c.161.789.305,1.283.953,1.5a.52.52,0,0,1,.267.208c.076-.551.154-1.113.219-1.578l.014-.1.049-.085a16.484,16.484,0,0,1,1.755-2.545,9.088,9.088,0,0,1,1.913-1.7,1.087,1.087,0,0,0-.186-.266c-.188-.079-.377-.167-.544-.244l-.008,0A4.457,4.457,0,0,0,22.544.5c-.067,0-.136,0-.206.009-.869.08-1.748.136-2.6.19l-.032,0c-.487.031-.881.057-1.245.082a.241.241,0,0,0-.047.008,2.506,2.506,0,0,1-1.188.292,3.672,3.672,0,0,1-1.117-.2L16,1.107c.05.092.1.181.141.263a4.33,4.33,0,0,0,.529.844,5.313,5.313,0,0,0,.759.65l.016.012c.182.138.371.28.551.438a8.416,8.416,0,0,1,.992,1A9.1,9.1,0,0,1,19.574,5.145Zm-9.95-.44c.044.117.08.117.312.122l.134,0a3.247,3.247,0,0,1,.375.043,4.482,4.482,0,0,1,.142-.706A2.33,2.33,0,0,0,10.7,3.3l-.336-.037-.745-.083Zm10.694-.293-1.3-1.386.576-.308,1.038-.555.461-.247.226.472c.019.04.041.079.059.112a1.2,1.2,0,0,1,.144.357,1.286,1.286,0,0,1-.866,1.387Z" transform="translate(76.307 16.448)"/>
      <path id="パス_16" data-name="パス 16" class="cls-2" d="M404.764,86.777l-.4-1.026c-.871.1-1.386-.633-1.991-1.227v-.561l-.5-.173-.394-2.018-.408-.408a2.131,2.131,0,0,1,.2-1.085c.59-1.068,1-2.235,1.54-3.333.417-.847.939-1.642,1.393-2.473A37.945,37.945,0,0,0,406.35,69a6.543,6.543,0,0,1,.752-1.946c.089-.116.045-.334.071-.587.485-.368.819-.989,1.5-1.278.258-.109.608-.241.709-.133.416.444.925.124,1.382.28l1.421,1.421a3.03,3.03,0,0,0,.5,2.145c.256.3-.175.948.3,1.32a22.265,22.265,0,0,0,.246,3.337,4.98,4.98,0,0,1-.333,1.264c-.7.363-1.478.742-2.227,1.164-.159.089-.21.353-.342.51-.5.6-.765,1.414-1.612,1.711-.22.077-.371.349-.614.593l1.408,1.482a7.7,7.7,0,0,1,.269,1.417,6.473,6.473,0,0,1-.282,1.373,6.588,6.588,0,0,1,3.078-.8c.618.012,1.237,0,1.856,0,.409-.6,1.107-.134,1.669-.475s1.418-.15,2.105-.338a17.442,17.442,0,0,1,4-.253,2.065,2.065,0,0,0,.6-.145,1.567,1.567,0,0,1,1.35.035.923.923,0,0,0,.734.1c.837-.515,1.633-.149,2.444.02l.128.023.243.5.281-.281.42,1.487a7.377,7.377,0,0,1-2.837.387c-.326-.029-.614-.251-.986-.016-.262.166-.577-.333-.985-.011-.218.172-.683.031-1.037.031a3.782,3.782,0,0,0-1.186.019c-1.377.484-2.858.43-4.247.939a9.679,9.679,0,0,0-2.458,1.134,2.419,2.419,0,0,1-2.206.179,4.984,4.984,0,0,0-1.492-.338l-1.395-1.477v7.1c-1.256.2-1.453.1-2.168-1.073a9.1,9.1,0,0,1,.034-2.313c.4-1.515.1-3.032.242-4.538a6.716,6.716,0,0,0-.4-2.106l-.447.576.261.481-2.08,4.85-.265.015" transform="translate(-294.695 -47.771)"/>
      <path id="パス_17" data-name="パス 17" class="cls-2" d="M453.447,66.949h.782c.842.988.571,2.188.64,3.436a14.663,14.663,0,0,1,1.542.012,15.284,15.284,0,0,1,1.577.335l.526.55-.556,1.142a2.642,2.642,0,0,1-3.333-.7c.074.489-.133.912.13,1.4.177.332-.023.864-.072,1.556.109.292.7.384.978.171.568-.429,1.29.023,1.815-.475a.76.76,0,0,1,.734.057c.4.369.848.091,1.294.212.691-1.722.262-3.5.413-5.341-2.036.137-3.843-.2-5.059-2.073V66.21a1.5,1.5,0,0,0,.452-.075,2.846,2.846,0,0,1,3.138.548c.406.287.822.558,1.355.918l.421-2.583a5.143,5.143,0,0,0-2.908-1.318l-.826-.934.739-1.045a12.057,12.057,0,0,0,2.61-.489c.775-.334,1.314.092,1.893.3a4.5,4.5,0,0,1,1.3,1,4.78,4.78,0,0,1,1.6,2.353v1.291l-1.775.6a10.072,10.072,0,0,0-1.116,5.175c.019.574,0,1.149,0,1.723a4.014,4.014,0,0,0,.312,2.229l-.723,1.1c-.745.1-1.026-.416-1.288-1.07-.828.181-1.673.348-2.51.552a2.876,2.876,0,0,1-2.518-.059l-.789,1.1H453.07l-.81-1.081c-.114-.819-.255-1.57-.311-2.327a3.557,3.557,0,0,1,.1-1.544,4.483,4.483,0,0,0,.146-1.527,7.6,7.6,0,0,1,.034-1.582c.265-.893.208-1.973,1.22-2.516" transform="translate(-332.053 -44.901)"/>
      <path id="前面オブジェクトで型抜き_2" data-name="前面オブジェクトで型抜き 2" class="cls-2" d="M11.422,17.8h0a1.878,1.878,0,0,1-1.161-.549,4.5,4.5,0,0,1-.73-1.066l-.074,0c-.046,0-.1,0-.136,0H9.314c-.041,0-.091,0-.137,0a.466.466,0,0,0-.267.06,2,2,0,0,1-1.21.381,5.57,5.57,0,0,1-1.194-.179h0l-.3-.066a1,1,0,0,1-.221-.086h0a.92.92,0,0,0-.232-.089,1.1,1.1,0,0,0-.2-.016c-.065,0-.124,0-.155.007l-.048,0-.659.418-.111.071-.557.353A3.8,3.8,0,0,1,2.085,15.7l0,0c-.2-.214-.41-.435-.632-.629-.139-.373-.295-.748-.445-1.111a16.251,16.251,0,0,1-.821-2.3A5.43,5.43,0,0,1,.1,9.226,6.288,6.288,0,0,1,1.961,7.1a18.144,18.144,0,0,1,2.4-1.44c.263-.14.52-.277.77-.415a2.886,2.886,0,0,1-.158-.736c-.058-.469-.113-.913-.648-1.088a6.292,6.292,0,0,1-.025-1A3.7,3.7,0,0,0,4.144.963c.583-.7.99-.963,1.5-.963A2.966,2.966,0,0,1,6.762.287L6.814.246,6.883.19l.075-.06L7.089.025c.148.132.307.27.435.381l0,0C7.863.7,8.21,1,8.532,1.325c.1.1.208.2.3.291a3.54,3.54,0,0,1,.937,1.153A5.309,5.309,0,0,1,10,3.585a4.251,4.251,0,0,0,.335,1.061l-.322.645L9.407,6.507,10.113,7l.262.181.138.1.676.468c0,.133,0,.264,0,.39v0c0,.277,0,.538,0,.8a7.869,7.869,0,0,0,.485,2.843,1.077,1.077,0,0,1,.04.336c0,.058,0,.118.007.175.026.282.04.572.053.853a7.544,7.544,0,0,0,.256,1.934,5.284,5.284,0,0,1,.19,1.505c.007.26.014.529.044.8l-.841.422ZM6.644,14.59a9.462,9.462,0,0,1,2.774.34l-.36-.977-.023-.063.175-.043.472-.116c-.038-.292-.062-.586-.085-.87a7.612,7.612,0,0,0-.3-1.828,5.981,5.981,0,0,1-.23-1.115A5.465,5.465,0,0,0,8.59,8.132L8.5,8.07l-.006,0c-.165-.111-.441-.3-.728-.467A.674.674,0,0,0,7.4,7.527H7.318a.918.918,0,0,1-.342-.048.376.376,0,0,0-.135-.023A1.613,1.613,0,0,0,6.3,7.61l-.014.006c-.08.032-.163.066-.24.091l-.162.053a13.786,13.786,0,0,0-1.875.716A4.394,4.394,0,0,0,2.458,9.7v1.82c.135.29.255.566.371.834a6.682,6.682,0,0,0,1.317,2.235c.264.016.542.023.875.023.268,0,.547,0,.792-.01h.038C6.111,14.595,6.378,14.59,6.644,14.59Z" transform="translate(144.5 15.392)"/>
      <path id="前面オブジェクトで型抜き_2_-_アウトライン" data-name="前面オブジェクトで型抜き 2 - アウトライン" class="cls-3" d="M11.541,18.3h-.146l-.027,0a2.391,2.391,0,0,1-1.459-.691,4.253,4.253,0,0,1-.676-.926h-.08A2.489,2.489,0,0,1,7.7,17.12a5.867,5.867,0,0,1-1.286-.187l-.019,0L6.1,16.864a1.4,1.4,0,0,1-.32-.118l-.02-.01a.881.881,0,0,0-.1-.046.6.6,0,0,0-.1-.007H5.511l-.55.348-.11.07-.557.353-.175.111-.2-.045a4.254,4.254,0,0,1-2.2-1.475l-.006-.006c-.189-.2-.387-.412-.592-.59l-.1-.083-.044-.119c-.137-.365-.29-.736-.438-1.095A16.621,16.621,0,0,1-.3,11.78,5.918,5.918,0,0,1-.389,9.125l.014-.068L-.343,9a6.776,6.776,0,0,1,2-2.3,18.5,18.5,0,0,1,2.458-1.48l.418-.224c-.029-.148-.047-.292-.064-.426-.064-.514-.107-.609-.308-.674l-.3-.1-.04-.313A6.681,6.681,0,0,1,3.8,2.407a3.279,3.279,0,0,0-.12-1.269l-.1-.272L3.759.644A2.458,2.458,0,0,1,5.645-.5a2.979,2.979,0,0,1,1.03.216l.013-.01.086-.069L7.1-.631l.317.283c.146.13.3.267.43.377.345.3.7.608,1.034.942.091.09.193.186.282.27l.011.01a3.958,3.958,0,0,1,1.059,1.332,5.768,5.768,0,0,1,.251.894,3.826,3.826,0,0,0,.29.938l.118.226-.509,1.019-.34.682.153.106,1.489,1.03V7.74c0,.13,0,.259,0,.383v.005c0,.282,0,.547,0,.82a7.38,7.38,0,0,0,.458,2.664,1.508,1.508,0,0,1,.068.493c0,.05,0,.1.005.136.028.293.041.59.054.877a7.183,7.183,0,0,0,.233,1.805,5.759,5.759,0,0,1,.214,1.643c.007.25.014.509.041.757l.038.346-.311.156-.84.421ZM9.82,15.668l.151.28a4.085,4.085,0,0,0,.642.948,1.361,1.361,0,0,0,.726.387l.4-.2c-.009-.166-.014-.329-.018-.488a4.829,4.829,0,0,0-.167-1.366,7.916,7.916,0,0,1-.279-2.063c-.013-.275-.026-.56-.051-.83-.007-.077-.008-.149-.009-.214a.968.968,0,0,0-.012-.179,8.358,8.358,0,0,1-.513-3.023c.007-.254.005-.511,0-.782l.187,0-.006,0h-.181q0-.063,0-.127L9.632,7.271l-.509-.352-.356-.246.193-.387.533-1.07.288-.577a5.737,5.737,0,0,1-.269-.943,4.946,4.946,0,0,0-.2-.74,3.216,3.216,0,0,0-.815-.973l-.011-.01c-.095-.089-.2-.19-.3-.291-.311-.31-.652-.606-.981-.893L7.074.678l-.23.185L6.569.749A2.566,2.566,0,0,0,5.645.5c-.262,0-.51.1-.942.58A4.818,4.818,0,0,1,4.8,2.436c-.006.215-.013.434,0,.652a1.678,1.678,0,0,1,.671,1.356,2.482,2.482,0,0,0,.125.61l.166.411-.388.214c-.242.133-.485.264-.776.419a17.774,17.774,0,0,0-2.33,1.4A5.831,5.831,0,0,0,.577,9.4,4.978,4.978,0,0,0,.67,11.542a15.879,15.879,0,0,0,.8,2.229c.136.329.277.668.407,1.011.207.189.4.394.572.577l.006.006a3.668,3.668,0,0,0,1.491,1.128l.372-.235.11-.07.659-.418.123-.078h.158c.042,0,.111-.008.19-.008a1.6,1.6,0,0,1,.287.024,1.331,1.331,0,0,1,.351.127l.01,0a.908.908,0,0,0,.107.047l.287.063.017,0A5.212,5.212,0,0,0,7.7,16.12a1.5,1.5,0,0,0,.919-.287.933.933,0,0,1,.559-.154c.049,0,.1,0,.148,0h.022l.109,0H9.5Zm.414.031-.961-.29a9,9,0,0,0-2.629-.318c-.261,0-.519,0-.783.009H5.823c-.22,0-.52.01-.8.01-.344,0-.632-.008-.906-.024l-.185-.011-.133-.13a7.037,7.037,0,0,1-1.426-2.394c-.115-.264-.233-.537-.366-.823l-.047-.1v-2.1l.105-.135a4.881,4.881,0,0,1,1.72-1.361,14.149,14.149,0,0,1,1.942-.743l.163-.053c.065-.021.144-.054.209-.079l.018-.007a1.977,1.977,0,0,1,.727-.19.873.873,0,0,1,.314.056.536.536,0,0,0,.163.015H7.4a1.156,1.156,0,0,1,.618.143c.3.179.593.375.75.481l.008.005.09.06.112.074.06.12a5.954,5.954,0,0,1,.525,1.938,5.529,5.529,0,0,0,.208,1.023,7.979,7.979,0,0,1,.323,1.947c.023.279.047.567.083.848l.057.443-.434.106-.1.025.19.516ZM6.644,14.09a11.67,11.67,0,0,1,1.984.143l-.04-.108-.216-.588.717-.177.047-.012c-.014-.151-.027-.3-.039-.446a7.263,7.263,0,0,0-.273-1.709,6.452,6.452,0,0,1-.251-1.206A5.254,5.254,0,0,0,8.2,8.471c-.16-.107-.416-.279-.684-.439A.7.7,0,0,0,7.4,8.027H7.318a1.437,1.437,0,0,1-.491-.071,1.968,1.968,0,0,0-.337.116l-.016.006c-.1.04-.186.075-.274.1l-.161.053a13.431,13.431,0,0,0-1.809.688,4.017,4.017,0,0,0-1.273.952v1.531c.12.26.226.506.33.745A7.061,7.061,0,0,0,4.369,14.1c.2.009.409.013.652.013.273,0,.568-.005.783-.009h.041C6.111,14.094,6.375,14.09,6.644,14.09Z" transform="translate(144.5 15.392)"/>
      <path id="パス_19" data-name="パス 19" class="cls-2" d="M550.817,123.237l.908.551-.283.945a7.293,7.293,0,0,1-3,.362,15.859,15.859,0,0,0-1.8.321,3.1,3.1,0,0,0,.381.338,8.831,8.831,0,0,1,1.585,1.553,1.944,1.944,0,0,0,.638.654c1.005.48,1.9,1.152,2.875,1.684a4.333,4.333,0,0,0,2.852.433,3.014,3.014,0,0,0,2.189-1.236h.716c-.018.167.014.332-.051.4-.492.483-1.011.938-1.5,1.419-.224.218-.411.473-.645.747-.771,0-1.5.393-2.345.332a8.9,8.9,0,0,1-3.2-.949,33.576,33.576,0,0,1-3.417-2.052c.107,1.138-.2,2.208.429,3.372l-.8.225c-.772.1-1.339-.47-1.741-1.456-.13-.5.269-1.22-.163-1.871a.223.223,0,0,1,.027-.183,1.751,1.751,0,0,0-.248-1.882,1.556,1.556,0,0,0-1.351.579c-.784.9-1.947,1.371-2.563,2.486a2.862,2.862,0,0,1-1.438,1.263c-.289.114-.474.491-.7.744a2.514,2.514,0,0,1-.678-2.4,43.338,43.338,0,0,0,5.486-4.055c-1.717.245-3.041,1.1-4.523.821l-2.627-1.669c.167-.783,1.022-.686,1.256-1.283a3.654,3.654,0,0,0,2.092.12,29.592,29.592,0,0,1,4.255-.318c.386-.022.775,0,1.277,0l-.4-.968,1.352-.424c.546.355.921.692.827,1.435.785-.2,1.553.241,2.291-.289a.787.787,0,0,1,.756.017c.423.412.927.109,1.292.24" transform="translate(-393.707 -89.521)"/>
      <path id="パス_20" data-name="パス 20" class="cls-2" d="M693.343,85.324a16.419,16.419,0,0,1-2.218-2.479V80.888c.778-.259,1.416.142,2.092.324.282.076.682.233.851.11.486-.355,1-.193,1.5-.238a7.605,7.605,0,0,0,1.894-.21,1.706,1.706,0,0,1,1.742.189c.148.131.512.02.8.02l.133.356c1.219.5.856.338,1.868,2.435q-.491.2-.982.406a8.481,8.481,0,0,0-2.856,2.351,1.621,1.621,0,0,0-.391,1.6c1.217.636,2.287,1.686,3.846,1.929l.833.833v1.718a2.834,2.834,0,0,1-.452.042,4.629,4.629,0,0,0-4.3,2.17,4.465,4.465,0,0,1-1.019.788l-1.121-.637.182-1.2-.327-.131.9-.87.628.179,1.673-1.315a2.065,2.065,0,0,0-1.286-.842,2.141,2.141,0,0,1-1.753-2.271,10.834,10.834,0,0,1,.606-2.673,5.5,5.5,0,0,1,.427-1.062c-.575-.357-.906.317-1.4.387a3.1,3.1,0,0,1-1.674-.135l-.2.185" transform="translate(-507.819 -59.312)"/>
      <path id="パス_21" data-name="パス 21" class="cls-2" d="M198.813,58.082a4.588,4.588,0,0,1,1.1.955,4.99,4.99,0,0,1,.356,1.5c-.617.679-1.685,1.067-1.862,1.956-.189.949-1.051,1.512-1.016,2.7l.213.23.935-.248.272-1.982a2.076,2.076,0,0,1,1.965.413l1.312,2.562a2.276,2.276,0,0,1-1.715,1.727l-.438-.711c-1.386-.408-2.556.614-3.9.445a8.659,8.659,0,0,0-.858.837,7.253,7.253,0,0,0-.559.98h-1.41a5.327,5.327,0,0,1-2.3-2.406c-.116-1.382.723-2.58,1.587-3.771.442-.609.9-1.207,1.3-1.842a16.255,16.255,0,0,1,3.24-3.346Z" transform="translate(-140.271 -42.677)"/>
      <path id="前面オブジェクトで型抜き_3" data-name="前面オブジェクトで型抜き 3" class="cls-2" d="M2.516,9.861h0l-.331-.144-.144-.063-.425-.185-.44-1.357L.647,6.482A1.41,1.41,0,0,1,.528,5.8,1.442,1.442,0,0,0,.3,4.886,1,1,0,0,1,.21,4.211a1.273,1.273,0,0,0-.174-.936c-.1-.127.02-.416.123-.671a2.83,2.83,0,0,0,.107-.292l.393-.268.253-.173.482-.329a.2.2,0,0,1,.073-.012,1.213,1.213,0,0,1,.188.023h.005l.033.006H1.7a1.74,1.74,0,0,0,.3.032.7.7,0,0,0,.569-.258.906.906,0,0,0,.176.018,1.069,1.069,0,0,0,.78-.477A2.684,2.684,0,0,1,3.909.5l.277.08.173.05.095.027.261.075A2.282,2.282,0,0,1,6.18,0,2.6,2.6,0,0,1,7.631.61c.113.079.232.153.338.217l0,0c.129.08.263.162.386.252a1.917,1.917,0,0,1,.262.25l0,0c.034.037.077.083.12.126v.787a1.906,1.906,0,0,1-.786.653A2.113,2.113,0,0,0,6.667,4.8a6.692,6.692,0,0,1-.361,1.751,15,15,0,0,0-.493,2.119.719.719,0,0,1-.395.113,1.951,1.951,0,0,1-.7-.189h0A1.936,1.936,0,0,0,4.026,8.4a.787.787,0,0,0-.666.4L2.54,9.831l-.024.03ZM4.774,3.445h0a1.582,1.582,0,0,0-1.255.831,1.909,1.909,0,0,1-.6.608A3.07,3.07,0,0,0,3.33,6.7l.2-.066.23-.076L4.52,6.31c.026-.134.055-.27.083-.4v0a7.781,7.781,0,0,0,.16-.926A9.5,9.5,0,0,0,4.78,3.97c0-.167-.006-.34-.006-.524Z" transform="translate(173.46 32.371)"/>
      <path id="前面オブジェクトで型抜き_3_-_アウトライン" data-name="前面オブジェクトで型抜き 3 - アウトライン" class="cls-3" d="M2.756,10.361H2.412L1.8,10.1l-.389-.17-.206-.09L.7,8.266.184,6.673A1.9,1.9,0,0,1,.028,5.8a.979.979,0,0,0-.134-.626A1.43,1.43,0,0,1-.288,4.171c.022-.279.031-.456-.074-.593-.268-.354-.088-.8.057-1.161.034-.085.073-.181.088-.235L-.169,2l1.326-.9.051-.02a.692.692,0,0,1,.259-.048,1.6,1.6,0,0,1,.273.031h0l.036.006h.005A1.3,1.3,0,0,0,2,1.094a.2.2,0,0,0,.184-.077l.19-.229.292.058a.407.407,0,0,0,.079.008c.114,0,.208-.091.41-.313A3.121,3.121,0,0,1,3.612.1l.2-.147.238.07.183.053.362.1A2.48,2.48,0,0,1,6.18-.5,3.034,3.034,0,0,1,7.918.2c.1.071.219.143.313.2l.007,0c.128.079.275.17.416.273a2.356,2.356,0,0,1,.332.312l0,.005c.031.033.068.073.106.111l.146.146V2.38L9.178,2.5a2.351,2.351,0,0,1-.972.839A1.619,1.619,0,0,0,7.168,4.819a7.153,7.153,0,0,1-.38,1.87,14.614,14.614,0,0,0-.479,2.048l-.031.232-.2.125a1.221,1.221,0,0,1-.662.19,2.357,2.357,0,0,1-.886-.226l-.013-.005A1.621,1.621,0,0,0,4.026,8.9c-.046,0-.124,0-.255.189l-.021.028-.695.866ZM2.023,9.1,2.2,9.18l.161.07.594-.741a1.272,1.272,0,0,1,1.066-.6,2.324,2.324,0,0,1,.871.223l.019.008a2.008,2.008,0,0,0,.451.146,17.547,17.547,0,0,1,.458-1.866,6.506,6.506,0,0,0,.342-1.6V4.787l0-.028A2.59,2.59,0,0,1,7.711,2.466a2.037,2.037,0,0,0,.533-.374V1.66a1.45,1.45,0,0,0-.18-.174c-.109-.079-.233-.156-.353-.23l-.007,0c-.1-.059-.232-.142-.359-.231A2.221,2.221,0,0,0,6.18.5c-.2,0-.518.07-1.135.613l-.206.181-.806-.233c-.046.047-.092.1-.139.15a1.536,1.536,0,0,1-1.15.642A1.216,1.216,0,0,1,2,2.094a2.2,2.2,0,0,1-.381-.038L1.57,2.047l-.023,0-.861.588c-.02.053-.042.107-.063.16-.032.079-.085.211-.109.3a1.835,1.835,0,0,1,.2,1.163,1.2,1.2,0,0,0,0,.346,1.925,1.925,0,0,1,.319,1.2,1,1,0,0,0,.061.454l.02.039.013.042.529,1.63ZM3.055,7.319,2.872,6.9a3.53,3.53,0,0,1-.455-2.016l0-.3.268-.142a1.56,1.56,0,0,0,.433-.463A2.064,2.064,0,0,1,4.747,2.946l.027.5.5-.045.047.517-.039,0v.042a9.863,9.863,0,0,1-.018,1.063,8.159,8.159,0,0,1-.17.987l0,.007c-.025.117-.055.255-.08.386l-.055.289Zm.364-2.173a2.578,2.578,0,0,0,.041.527,2.542,2.542,0,0,0,.145.411l.482-.159L4.114,5.8l0-.007a7.381,7.381,0,0,0,.15-.861,7.669,7.669,0,0,0,.017-.789,2.649,2.649,0,0,0-.362.428A3.105,3.105,0,0,1,3.419,5.146Z" transform="translate(173.46 32.371)"/>
      <path id="パス_23" data-name="パス 23" class="cls-2" d="M235.105,97.191c1.877-.067,2.174.108,2.86,1.663a2.063,2.063,0,0,0,1.393.426,1.622,1.622,0,0,1,1.495.638v1.113a8.831,8.831,0,0,1-3.654.318c-.016.339-.03.632-.044.925a4.651,4.651,0,0,0,1.7,1.278,5.991,5.991,0,0,0,2.066.739,15.781,15.781,0,0,0,2.318-.227l-2.067,1.047h-1.188l-.427.323-.5-.368-.457.29-2.256-.613a1.915,1.915,0,0,0-.379-.429c-1.048-.779-1.152-1.961-1.477-3.1-.429-1.5.211-2.724.622-4.023" transform="translate(-172.187 -71.405)"/>
      <path id="パス_24" data-name="パス 24" class="cls-2" d="M239.259,61.436l.369,1.087-.562,1.443.6.2-.167.182a10.608,10.608,0,0,1,1.316.013,7.6,7.6,0,0,1,1.156.341l.852.835v.539a4.512,4.512,0,0,1-3.6.063,1.322,1.322,0,0,0,.406,1.5,4.8,4.8,0,0,0,2.376,1.6,2.962,2.962,0,0,1,.576.286c-.109.89-.963.659-1.457.9-.6.288-1.223-.229-1.839-.243a8.356,8.356,0,0,1-2.666-4.174,2.692,2.692,0,0,1-.15-.859c-.015-.881.007-1.762-.014-2.643a3.664,3.664,0,0,0-.186-.747c.489-.4,1.013-.811,1.821-.348.3.171.774.028,1.17.028" transform="translate(-173.603 -44.97)"/>
      <path id="パス_25" data-name="パス 25" class="cls-2" d="M212.4,104.346l.546-.142c0-.841.046-1.714-.013-2.581-.058-.844-.223-1.681-.355-2.628h-2.533c-.064-.621.423-.784.613-1.046,1.776-.444,3.543-1.085,5.046.768l-.9,1.66c0,.5-.033,1.206.011,1.909.031.5.2.983.245,1.48.044.481,0,.97.015,1.455a.887.887,0,0,0,.111.349,4.183,4.183,0,0,1,.368,2.587l-.83.368a2.058,2.058,0,0,1-1.752-1.941c-.067-.555-.329-1.022-.441-1.545-.049-.232-.087-.467-.128-.693" transform="translate(-154.331 -71.619)"/>
      <path id="パス_26" data-name="パス 26" class="cls-2" d="M179.18,146.408v1.57a9.506,9.506,0,0,1-1.421.335,4.9,4.9,0,0,1-2.292-.515,8.988,8.988,0,0,1-3.441-2.262v-1.652l1.08-.791a5.713,5.713,0,0,1,3.6.706,5.182,5.182,0,0,1,2.47,2.609" transform="translate(-126.4 -105.073)"/>
      <path id="パス_27" data-name="パス 27" class="cls-2" d="M199.884,110.714c-.924,1.558.15,2.552.4,3.78l-.9.654h-.619a3.487,3.487,0,0,1-.6-.8,4.229,4.229,0,0,1-.271-1.338,22.04,22.04,0,0,1,.013-3.171c.115-1.05.217-2.163,1.446-2.7.33-.144.5-.654.734-.982,2.05-.045,2.627.244,2.84,1.44l-1.038.928-1.692-.823a2.06,2.06,0,0,0-.693,2.138c.563-.086,1.121-.206,1.685-.249s1.125-.01,1.756-.01l-.323.537.26.387-.36.633c-.529.439-1.32.279-2.147.3l-.5-.728" transform="translate(-145.374 -77.998)"/>
      <path id="パス_28" data-name="パス 28" class="cls-2" d="M696.268,107.88c.8.217,1.577.285,2.01,1.035a8.714,8.714,0,0,0-.544,2.423c-.019.67-.2,1.334-.242,2.005a14.917,14.917,0,0,0,0,1.981c.047.715.2,1.423.246,2.137a11,11,0,0,0,.052,2.1,5.049,5.049,0,0,1,.215,1.618c-.028.5-.13.986-.193,1.442l-.75.384c-.055-.05-.185-.115-.229-.217-.46-1.062-1.089-2.1-.43-3.319.092-.171.008-.432.021-.651a12.846,12.846,0,0,1,.232-3.071c.342-1.133-.284-2.28-.259-3.449a4.827,4.827,0,0,0,.067-1.509,5.553,5.553,0,0,0-.518-1.38c-.275-.483.128-.954.323-1.532" transform="translate(-511.292 -79.267)"/>
      <path id="パス_29" data-name="パス 29" class="cls-2" d="M481.989,148.043a4.42,4.42,0,0,0-.58,0c-1.552.283-2.658-.652-3.718-1.5a8.007,8.007,0,0,1-1.344-1.927,4.863,4.863,0,0,1-.239-.457c.726-1.147,1.122-1.334,1.966-.906l.313-.281c.107.047.22.092.329.146a6.735,6.735,0,0,1,3.021,3.317,5.957,5.957,0,0,1,.253,1.605" transform="translate(-349.83 -105.054)"/>
      <path id="パス_30" data-name="パス 30" class="cls-2" d="M250.157,139.444a1.8,1.8,0,0,1,.114-2.031c.845-.634,1.652-.243,2.471.224a5.762,5.762,0,0,0,.985.34l1.762,1.763v.722l-.948.57c-1.5-.392-3.026-.442-4.385-1.587" transform="translate(-183.613 -100.724)"/>
      <path id="パス_31" data-name="パス 31" class="cls-2" d="M521.066,112.5v-1.584c.224-.2.545-.491.872-.776a1.419,1.419,0,0,1,.4-.3c.459-.165.943-.266,1.393-.449a9.961,9.961,0,0,0,1.189-.622c.55-.315,1.068.163,1.675-.033a2.036,2.036,0,0,1-.715,1.713,9.29,9.29,0,0,1-1.236,1.437c-.478.335-1.239.278-1.692.631-.678.528-1.192-.135-1.887-.016" transform="translate(-382.864 -79.836)"/>
      <path id="パス_32" data-name="パス 32" class="cls-2" d="M597.023,114.034a3.546,3.546,0,0,1,3.053-.382c.218.218.427.447.658.652.215.19.454.355.787.612l.329.791-.752,1.09h-1.184l-1.635-.683-1.256-2.079" transform="translate(-438.675 -83.385)"/>
      <path id="パス_33" data-name="パス 33" class="cls-2" d="M210.421,146.187l-.745.625c-.785-.072-1.741.218-2.577-.3-.334-.886-1.532-1.376-1.1-2.551,2.285-.209,2.623-.213,3.726.393a7.775,7.775,0,0,1,.443.82,8.178,8.178,0,0,1,.255,1.016" transform="translate(-151.293 -105.682)"/>
      <path id="パス_34" data-name="パス 34" class="cls-2" d="M598.138,89.731v.639l-.678.928c-.829-.377-1.187-.344-1.76.151-.232.2-.419.453-.658.642a7.023,7.023,0,0,1-.761.463h-1.5c.585-1.439,1.722-2.4,2.709-3.692.886-.316,1.637.581,2.653.868" transform="translate(-435.554 -65.244)"/>
      <path id="パス_35" data-name="パス 35" class="cls-2" d="M524.67,89.285c-1.323-.384-2.334-1.425-3.54-2.187V86.46a3.567,3.567,0,0,1,2.467-.22l1.981,1.147v1.281l-.907.617" transform="translate(-382.911 -63.258)"/>
      <path id="パス_36" data-name="パス 36" class="cls-2" d="M457.18,148.038l-.744,1.071-1.3-1.491v-2.312l.413-.413,1.977.254-.341,2.891" transform="translate(-334.418 -106.463)"/>
      <path id="パス_37" data-name="パス 37" class="cls-2" d="M230.648,145.144a2.249,2.249,0,0,1,.6,2.074,2.542,2.542,0,0,0-.7.186c-.173.1-.271.334-.415.526l-1.975-1.386-.363-1.139.491-.562,2.367.3" transform="translate(-167.373 -106.426)"/>
      <path id="パス_100" data-name="パス 100" class="cls-1" d="M90.361,217.03l-.185.217-.084-.084.217-.185.052.052" transform="translate(-66.198 -159.429)"/>
      <path id="パス_102" data-name="パス 102" class="cls-4" d="M51.916,48.516c-.038-2.7.244-5.422-.247-8.112-.129-.706.279-1.345.25-2.012a40.253,40.253,0,0,0-.2-5.6,39.916,39.916,0,0,1-.31-5.318,11.723,11.723,0,0,0-.02-1.588,6.819,6.819,0,0,1-.027-2.7,8.263,8.263,0,0,0-.123-3.1c-.173-.586-.739-1.313-.1-2A5.029,5.029,0,0,1,51.4,15.8c.035-.071.038-.225,0-.254-.365-.252-.261-.625-.252-.96a6.759,6.759,0,0,0-.67-2.908,4.373,4.373,0,0,1-.413-1.692,13.848,13.848,0,0,0-.256-2.011c-.032-.194-.2-.362-.252-.556a19.9,19.9,0,0,1-1.089-3.8,1.188,1.188,0,0,0-.542-.812c-.989-.521-1.942-1.087-2.892-1.678A4.035,4.035,0,0,0,42.227.544a1.5,1.5,0,0,1-.914-.014c-.7-.423-1.513,0-2.139-.285a6.818,6.818,0,0,0-2.3-.22,19.488,19.488,0,0,0-3.073.232,18.15,18.15,0,0,0-2.54.3c-.28.052-.541.21-.82.253a17.79,17.79,0,0,0-3.814,1.23l-.5,1.1c-.889.477-2.013,2.34-2.4,4l-.432.125a3.458,3.458,0,0,1-.014.994c-.445,1.316-.887,2.638-1.431,3.915a5.413,5.413,0,0,0-.68,2.637,1.665,1.665,0,0,1-.364,1.362c-.26,1.061-.411,1.974-.715,2.832a4.861,4.861,0,0,0-.192,2.261c.558-.4.91-.876,1.449-1.2a6.348,6.348,0,0,0,1.246-1.443c.171-.2.343-.487.565-.546.939-.248,1.107-1.342,1.932-1.691.875-1.405,1.793-2.787,2.611-4.225A11.724,11.724,0,0,1,29.589,9.5c.6-.589,1.189-1.187,1.788-1.786h1.675l1.395,1.14c0,.244-.075.49.013.581.417.437.365,1.009.541,1.509a10.792,10.792,0,0,0,1,2.769,7.475,7.475,0,0,1,1.125,2.588A1.444,1.444,0,0,0,38.3,17.545a1.5,1.5,0,0,1,.168-.463c.991-1.185,2.015-2.342,2.989-3.541a41.481,41.481,0,0,0,2.7-3.529,3.551,3.551,0,0,1,1.6-1.453l1.132,1.132c-.055.062-.151.12-.157.187-.055.56-.094,1.121-.145,1.787l.713.592a12.125,12.125,0,0,0,1.227,3.029c.188.268.539.415.778.655a8.611,8.611,0,0,1,.69.842c.028.037-.007.121-.022.285l-.9.278-.158.464-.281-.253-.442.3a5.378,5.378,0,0,1-1.131-.858,7.366,7.366,0,0,1-1.508-2.422c-.081-.291-.412-.514-.6-.74l-.717.646c0,.2.075.446-.012.534-.672.678-1.153,1.552-2.062,1.993a1.417,1.417,0,0,0-.686.544,5.339,5.339,0,0,1-1.341,1.562,7.785,7.785,0,0,1-2.04,1.789c-.433.994-1.392,1.46-2.121,2.161-.247.238-.845.133-.754.713a3.539,3.539,0,0,1-2.248.641c-.272-.494-.837-.075-1.064-.269l-.4-.751c.844-.723,1.7-1.527,2.628-2.233a24.02,24.02,0,0,0,2.86-2.361c.075-.079.077-.228.141-.437l-.709-.053A10.486,10.486,0,0,1,34.384,15.5c-.614-1.029-.65-2.3-1.469-3.393-.04.314-.065.513-.1.773a9.89,9.89,0,0,1-1.64,1.878,7.794,7.794,0,0,0-2.291,2.37A9.983,9.983,0,0,1,27.563,18.7a21.651,21.651,0,0,0-2.917,3.165,1.35,1.35,0,0,1-.561.551,1.97,1.97,0,0,0-.945.92c-.227.369-.835.508-1.05.88-.319.552-.842.7-1.293,1.025a2.87,2.87,0,0,1-1.673.537,18.263,18.263,0,0,1-1.4,4.192,4.286,4.286,0,0,1-.217,1.358c-.156.336.183.875.207,1.328.042.793-.027,1.593.023,2.385a4.734,4.734,0,0,1-.472,1.971c.084.549.167.913.191,1.281.129,1.906-.238,3.83.25,5.729a9.985,9.985,0,0,1,.029,1.586c.042.5.242.989.24,1.482a9.355,9.355,0,0,0,.733,3.415,3.789,3.789,0,0,1,.358,1.85,3.179,3.179,0,0,0,.628,1.982,13.3,13.3,0,0,0,1.449,1.71l1.922-.757a3.984,3.984,0,0,1,1.452-.96,12.263,12.263,0,0,0,2.915-1.588c.355-.251.635-.563,1.047-.472,1.233-1.348,2.9-2.1,3.8-3.643.171-.39-.182-.865.244-1.237a.5.5,0,0,0,.037-.49,1.957,1.957,0,0,1-.233-1.623c.148-1.533-.408-3.011-.285-4.534.007-.088.039-.214-.005-.259-.315-.325-.288-.6-.1-1.025.135-.308-.253-.838-.127-1.159.332-.85.329-1.764.7-2.627A5.931,5.931,0,0,1,33.891,33.6c.37-.346.8-.63,1.2-.944a12.486,12.486,0,0,1,1.3-1.02A11.55,11.55,0,0,0,39.627,29.2c.018-.021.095.014.128-.005a21.69,21.69,0,0,0,4.374-3.171h.939l1.417,1.333a9.509,9.509,0,0,1-1.567,1.527c-1.365.812-2.88,1.381-3.944,2.644-.065.077-.257.036-.348.1-1.008.76-2.117,1.38-3.055,2.24a8.26,8.26,0,0,1-1.461,1.257,13.446,13.446,0,0,0-1.91,1.56c-.114.559-.233,1-.291,1.457a4.337,4.337,0,0,1-.237,1.631,1.624,1.624,0,0,0,.053,1.269,11.741,11.741,0,0,1,.4,1.822,5.15,5.15,0,0,1,.026,2.105c-.093.717.319,1.322.293,2.015-.034.925-.008,1.852-.008,2.775a3.68,3.68,0,0,0-1.08,1.552,1.807,1.807,0,0,1-1.171,1.211c-.258.121-.568.141-.809.284-.586.348-1.353.494-1.533,1.187A26.9,26.9,0,0,0,27.2,55.161a8.618,8.618,0,0,1-2.288,1.211c-.434.1-.771.469-1.289.437-.21-.013-.44.287-.794.539a11.525,11.525,0,0,0,1.342.951c.507.258,1.094.356,1.6.617a4.185,4.185,0,0,0,2.041.525c1.546-.026,3.093-.008,4.639-.008l-.152-.157.588-.2a3.446,3.446,0,0,0-1.118-.065,7.778,7.778,0,0,1-1.12-.213c1.163-.892,2.34-1.554,3.363-2.465a31.308,31.308,0,0,0,4.172-4.236,4.909,4.909,0,0,0,.982-1.7c.175-1.033.711-2,.578-3.089a8.862,8.862,0,0,0-.212-1.631,2.591,2.591,0,0,1,.138-1.759c.3-.707.077-1.574.3-2.39A25.451,25.451,0,0,1,41.5,38.175q2.035-1.969,4.072-3.938c.081-.078.192-.128.263-.212.41-.485.811-.976,1.2-1.44,1.594.842,1.756,1.1,1.632,2.3a24.139,24.139,0,0,0-2.761,2.4c-.679.787-1.449,1.5-2.074,2.317a9.492,9.492,0,0,0-1.461,2.571c-.423,1.194-.355,2.473-.765,3.66-.051.149-.051.42.041.5.342.288.168.651.217.981.055.37-.152.782.228,1.108a.5.5,0,0,1,.023.493,1.3,1.3,0,0,0-.236,1.227c.156.943-.573,1.668-.557,2.568,0,.146-.14.291-.2.443a9.225,9.225,0,0,1-2.171,2.94,12.277,12.277,0,0,1-1.521,1.166l-.221-.194-.455.454c1.468.314,2.811-.239,4.2-.219.966-.966,1.964-1.908,2.9-2.912A13.735,13.735,0,0,0,46.1,51.342a4.836,4.836,0,0,0,.828-2.32c-.006-.284.3-.575.5-.94,0-1.408,0-2.909,0-4.41,0-.033.045-.072.077-.1a2.543,2.543,0,0,1,.288-.141c.373.746,1.091,1.265,1.5,2.183a22.709,22.709,0,0,1-.243,3.886,37.995,37.995,0,0,1-1.316,3.968A7.493,7.493,0,0,1,46.2,55.527a14.52,14.52,0,0,0,2.1-.624,19.311,19.311,0,0,1,1.806-1.092c.607-.222,1.048-.9,1.561-1.368,0-.46-.181-1.076.039-1.3.407-.418.019-.94.4-1.323.44-.445-.187-.837-.194-1.3M28.54,34.638l-.506.983.306.368-.546.381.44.84-1.023,1.153-1.641.647A4.886,4.886,0,0,1,24.653,39a1.834,1.834,0,0,1-1.027-.357,6.563,6.563,0,0,0-2.145-1.474L21.4,36.4h-.6a7.047,7.047,0,0,1-.4-.688c-.211-.489-.462-.944-.046-1.51.224-.305.176-.8.3-1.194a3.034,3.034,0,0,1,.4-.889,8.142,8.142,0,0,1,1.221-1.473,3.244,3.244,0,0,1,3.137-.794c.281.082.57.134.932.217a4.139,4.139,0,0,1,2.2,4.57" transform="translate(-12.684 0)"/>
      <path id="パス_107" data-name="パス 107" class="cls-2" d="M645.495,71.562l-2.639.3c-.151-1.257.2-2.446-.326-3.639a4.08,4.08,0,0,1,1.22-.556c.653-.061.572-.682.864-.908a1.719,1.719,0,0,0-1.263-1.244h-2.383l.024.024-.185.217-.083-.084.217-.185.025.025c.028-.073.041-.194.087-.208.5-.15,1.049.065,1.54-.293.127-.093.5.15.759.238l1.241-.614.336-.675a7.853,7.853,0,0,0-.478-1.434,16.923,16.923,0,0,0-1.5-2.291,7.727,7.727,0,0,0-1.884-1.473,3.384,3.384,0,0,0-2.38-.65l-.346.346c-.169,1.918.064,3.691,1.487,5l-.6,1.534a.872.872,0,0,0-.069.074,3.668,3.668,0,0,1-2.2,1.395,4.2,4.2,0,0,1-2.512-.122,7.35,7.35,0,0,0-1.964-.276c0,.535.021.976,0,1.415a1.95,1.95,0,0,0,.838,1.639c.484.408,1.013.762,1.524,1.14h1.782l.459-.459h1.093c-.847,1.05-.037,2.074-.126,3.088-1.689.125-3.329.835-4.924-.171h-2.672l-.323.323V74.5l3.53,4.1,2.207-.421.383-1.934a3.881,3.881,0,0,1,2.359-1.593c.654-.128,1.283-.338,1.96-.412a10.222,10.222,0,0,0,2.768-.655,15.173,15.173,0,0,1,2.634-.718,1.059,1.059,0,0,0-.467-1.3m-4.274-.549-.709,1.39c-.594.08-.5-.63-.876-.911V69.71l1.087-.988h.663c.039.04.1.074.1.1-.092.794-.189,1.587-.263,2.19" transform="translate(-462.994 -42.682)"/>
      <path id="パス_116" data-name="パス 116" class="cls-2" d="M564.016,95.3a2.3,2.3,0,0,1-2.3-.745,5.978,5.978,0,0,1-1.67-2.4l.68-1.009h1.55a8.762,8.762,0,0,1,1.674,1.166,7.713,7.713,0,0,1,.931,1.75l-.868,1.234" transform="translate(-411.508 -66.975)"/>
      <text id="Resort_-_KUMANO_CLUB" data-name="Resort - KUMANO CLUB" class="cls-5" transform="translate(100.471 53.23)"><tspan x="-39.855" y="0">Resort - KUMANO CLUB</tspan></text>
      <text id="里創人" class="cls-6" transform="translate(115.153 6)"><tspan x="-11.2" y="0">里創人</tspan></text>
    </g>
  </g>
</svg>
