<svg xmlns="http://www.w3.org/2000/svg" width="254.458" height="78.046" viewBox="0 0 254.458 78.046">
  <defs>
    <style>
      .cls-1, .cls-3, .cls-4 {
        fill: #fff;
      }

      .cls-2 {
        fill: rgba(0,0,0,0);
      }

      .cls-3 {
        font-size: 8px;
        letter-spacing: 0.2em;
      }

      .cls-3, .cls-4 {
        font-family: ShipporiMincho-Regular, しっぽり明朝;
      }

      .cls-4 {
        font-size: 9px;
        letter-spacing: 0.1em;
      }
    </style>
  </defs>
  <g id="グループ_27" data-name="グループ 27" transform="translate(-14.901 -0.615)">
    <g id="グループ_15" data-name="グループ 15" transform="translate(14.901 -2)">
      <path id="パス_14" data-name="パス 14" class="cls-1" d="M0,224.082H.98c.009.082.017.164.026.246l-1.006.1v-.347" transform="translate(0 -143.768)"/>
      <path id="前面オブジェクトで型抜き_1" data-name="前面オブジェクトで型抜き 1" class="cls-1" d="M19.916,35.869h0a2.063,2.063,0,0,1,.38-1.5c.7-1.182,1.531-2.3,2.332-3.385.73-.986,1.484-2.006,2.142-3.072a7.948,7.948,0,0,0,.969-2.372,17.034,17.034,0,0,0,.356-2.8,22.442,22.442,0,0,0,0-2.772,7.224,7.224,0,0,0-.164-1.023,8.1,8.1,0,0,1-.156-.915,10.756,10.756,0,0,1-.019-1.282c0-.129.007-.241.007-.333l-.443-1.073-.188-.456-.572-1.384-.77.287-.317.118-.807.3-.235.087a2.782,2.782,0,0,0-.72,1.291c-.252.735-.49,1.43-1.572,1.43a6.25,6.25,0,0,1-1.8-2A11.819,11.819,0,0,1,17.3,12.554c-.1.2-.2.4-.307.6l-.148.287-.377.735a2.646,2.646,0,0,1-1.911-1.637,6.082,6.082,0,0,0-.656-.983l.1-.759.035-.254.033-.241.163-1.2h-.017l-1.4-.091-.693.8-.234.27-.311.359v2.453l.771-.493.121-.077.541-.345.979.942.328.315c-.059.088-.118.181-.18.28l0,.006a5.01,5.01,0,0,1-.52.729,2.484,2.484,0,0,1-.969.765c-.775.235-1.078.858-1.43,1.58l-.015.032v1.3c.184.156.373.308.556.455a10.478,10.478,0,0,1,1.887,1.812c.1.745-.453,1-1.04,1.26h0a2.143,2.143,0,0,0-1.18.9,1.825,1.825,0,0,0,.849.2,4.192,4.192,0,0,0,1.066-.187l.017,0a4,4,0,0,1,1.024-.182,1.617,1.617,0,0,1,.5.076,2.37,2.37,0,0,0,.3.308,1.125,1.125,0,0,1,.5,1.173,6.38,6.38,0,0,1-1.816,1.626,11.068,11.068,0,0,1-2.3,1.033A15.064,15.064,0,0,0,9.34,27.426l-.028.014c-.258.136-.524.276-.788.408-.132.066-.336.217-.356.363-.095.667-.576.867-1.042,1.061a3.719,3.719,0,0,0-.484.23A4.686,4.686,0,0,1,4.776,27.31a7.788,7.788,0,0,1-.53-2.818l.5-.27.174-.094.452-.243.729.675.557-.186,2.534-.846.217-.072v-1.57l-.96-.492L7.2,20.75l-.277-.141L5.634,19.333a.886.886,0,0,1,.155-.6.975.975,0,0,1,.738-.334,2.338,2.338,0,0,0,.651-.181h0a2.13,2.13,0,0,1,.767-.19,1.141,1.141,0,0,1,.172.013,4.017,4.017,0,0,0,.6.038c.149,0,.3,0,.456-.01h.038c.17-.006.346-.012.527-.012V16.486c-.106-.043-.216-.1-.333-.16l-.012-.006a2.493,2.493,0,0,0-.9-.324,4.722,4.722,0,0,1-2.662-1.088,12.766,12.766,0,0,1-1.942-2.125A11.841,11.841,0,0,1,2.247,9.816a3.956,3.956,0,0,0-.511-.844l0,0a2.822,2.822,0,0,1-.629-1.292A3.972,3.972,0,0,0,.7,6.541,4.949,4.949,0,0,1,.322,5.59,12.13,12.13,0,0,1,.084,3.829C.06,3.547.034,3.256,0,2.953l.294-.224L.85,2.306l1.2-.915A5.823,5.823,0,0,1,5.721,3.325,8.911,8.911,0,0,1,7.432,6.92H9.677l.187-.187.078-.078.169-.169V3.244l.7-.119.451-.076c-.1-.1-.2-.207-.285-.291A2.824,2.824,0,0,1,9.819.446,4.961,4.961,0,0,1,10.853.358c.178,0,.356,0,.528.009H11.4c.205.006.376.01.553.01.077,0,.145,0,.207,0h0l.326-.009c.307-.008.689-.018,1.051-.018.4,0,.738.012,1.047.037a15.249,15.249,0,0,1,1.6.244l.054.01c.235.044.477.089.728.131a1.61,1.61,0,0,1,.427.41,1.272,1.272,0,0,0,.94.6,2.906,2.906,0,0,1,.489,2.108c-.088.133-.181.252-.272.368a1.82,1.82,0,0,0-.4.677c-.121.549-.282,1.1-.438,1.636v0a9.5,9.5,0,0,0-.557,4.443,2.487,2.487,0,0,1,.492-.052,2.342,2.342,0,0,1,1.779.916l1.29-.2,2.532-.4,3.847-.6c0-.044.01-.1.017-.159.016-.133.032-.271.006-.28-1.265-.423-1.485-1.5-1.678-2.45l-.033-.16c-.127-.186-.244-.366-.357-.541l0-.006a11.519,11.519,0,0,0-.728-1.038A10.384,10.384,0,0,0,23.1,4.825c-.22-.193-.459-.373-.691-.548L22.4,4.272l0,0a7.445,7.445,0,0,1-1.091-.94A6.125,6.125,0,0,1,20.525,2.1c-.1-.194-.218-.413-.345-.629L20.731.349a5.066,5.066,0,0,0,1.789.414,2.638,2.638,0,0,0,1.256-.31.828.828,0,0,1,.313-.08C24.641.334,25.2.3,25.718.266l.045,0C26.873.191,28.02.118,29.145.015c.109-.01.219-.015.327-.015a6.409,6.409,0,0,1,2.68.788l.007,0c.228.106.465.215.7.314a1.626,1.626,0,0,1,.621.749,4.553,4.553,0,0,0,.253.419,10.953,10.953,0,0,0-2.9,2.427,20.927,20.927,0,0,0-2.224,3.228c-.117.842-.267,1.926-.4,2.881.355-.11.681-.212.969-.3l.056-.018a10.5,10.5,0,0,1,2.835-.683,7.042,7.042,0,0,1,2.417.667c.267.1.531.2.825.31l.59,1.191c-.141.094-.276.193-.406.289l0,0a4.061,4.061,0,0,1-.85.529,5.318,5.318,0,0,0-1.509.927,7.461,7.461,0,0,0-1.191,1.358l-.234.332c-.726,1.03-1.477,2.1-2.2,3.176a4.01,4.01,0,0,1-1.105.973c-.187.129-.38.261-.557.4.035.143.078.291.12.433v0a4.01,4.01,0,0,1,.2.973c.032.891.026,1.8.021,2.677,0,.372,0,.757,0,1.136a3.307,3.307,0,0,1-.023.335,1.078,1.078,0,0,0,.06.683,1.8,1.8,0,0,1-.054,2.093,4.363,4.363,0,0,0-.332.819l-1.259.065c-.115.122-.257.244-.393.362l-.006.005a1.866,1.866,0,0,0-.709.883c-.074.383-.327.46-.573.535-.217.066-.423.129-.514.387a3.527,3.527,0,0,1-.961,1.326c-.629.573-1.3,1.117-1.949,1.643-.251.2-.535.434-.808.66l.085.085.051.051-.666.566-.036.031-.184.156ZM30.146,12.557a11.655,11.655,0,0,0-2.8.324,4.317,4.317,0,0,0-1.8.818l1.185.734.118.074L28.774,15.7c.059-.365.111-.678.163-.993.124-.124.253-.251.386-.382l0,0c.346-.34.7-.692,1.039-1.061a1.2,1.2,0,0,0,.209-.437c.028-.083.056-.169.093-.257C30.5,12.561,30.326,12.557,30.146,12.557Zm-22.6-4.14h0c-.827,2.556-.647,3.757.005,5.2l.834-.19L9,13.29l.7-.16.155-1.1.107-.763.094-.667L7.546,8.417Zm4.381-4.995V6.262a.91.91,0,0,0,1.048.7l.16,0a5.5,5.5,0,0,1,.825.127c.137.028.272.055.412.08a2.743,2.743,0,0,1,.1-1.564,2.843,2.843,0,0,0,.035-1.9l-.426-.047-.294-.033-1.86-.207ZM27.278,3.4l-1.357.727.181.192.066.07.536.571c.561-.285.889-.57.786-1.107a.985.985,0,0,0-.119-.275c-.027-.049-.061-.111-.093-.178Z" transform="translate(99.76 24.117)"/>
      <path id="前面オブジェクトで型抜き_1_-_アウトライン" data-name="前面オブジェクトで型抜き 1 - アウトライン" class="cls-2" d="M19.585,37.1l-.162-1.142a2.526,2.526,0,0,1,.444-1.837,41.542,41.542,0,0,1,2.358-3.424c.725-.981,1.473-1.991,2.121-3.041a7.449,7.449,0,0,0,.907-2.223,16.589,16.589,0,0,0,.344-2.716,21.937,21.937,0,0,0,0-2.709,6.856,6.856,0,0,0-.154-.952,8.472,8.472,0,0,1-.164-.972,11.167,11.167,0,0,1-.021-1.342c0-.082,0-.156.006-.222l-.593-1.435-.387-.938-.318.118-1.267.473a2.62,2.62,0,0,0-.513,1.018c-.256.747-.606,1.768-2.045,1.769h-.159l-.13-.092A6.739,6.739,0,0,1,17.9,15.275a10.2,10.2,0,0,1-.692-1.454l-.3.581-.167.326-.361-.06a2.617,2.617,0,0,1-1.725-1.043l-.089.141-.013.021a5.47,5.47,0,0,1-.574.8,2.9,2.9,0,0,1-1.194.907c-.522.158-.752.559-1.09,1.248v.95c.119.1.239.194.356.288l.013.011a10.883,10.883,0,0,1,1.97,1.9l.081.106.018.132a1.481,1.481,0,0,1-.942,1.6l0,.009-.392.177c-.1.045-.2.089-.29.134a5.329,5.329,0,0,0,.688-.152l.016,0a4.447,4.447,0,0,1,1.157-.2,2.109,2.109,0,0,1,.658.1l.149.048.1.125a1.988,1.988,0,0,0,.237.238,1.608,1.608,0,0,1,.655,1.644l-.022.11-.068.09A6.87,6.87,0,0,1,14.128,25.8a11.554,11.554,0,0,1-2.407,1.081,14.675,14.675,0,0,0-2.148.991l-.046.024c-.254.134-.517.273-.78.4a.527.527,0,0,0-.1.066,1.856,1.856,0,0,1-1.331,1.372,3.312,3.312,0,0,0-.418.2l-.265.16-.261-.166A5.17,5.17,0,0,1,4.315,27.5a8.264,8.264,0,0,1-.569-3l-.01-.31.273-.147.5-.269.941-.507.262.243.511.474,2.686-.9v-.9L6.621,21.018l-.055-.055L5.282,19.688l-.133-.132-.013-.187a1.363,1.363,0,0,1,.256-.94,1.447,1.447,0,0,1,1.1-.529,1.92,1.92,0,0,0,.5-.146l.011,0a2.56,2.56,0,0,1,.947-.223,1.641,1.641,0,0,1,.248.019,3.534,3.534,0,0,0,.521.032c.138,0,.274,0,.438-.009l.047,0h.038V16.8l-.06-.031-.015-.007a2.151,2.151,0,0,0-.706-.27,5.207,5.207,0,0,1-2.936-1.2A13.156,13.156,0,0,1,3.5,13.09,12.33,12.33,0,0,1,1.783,10a3.472,3.472,0,0,0-.443-.724l-.01-.013A3.264,3.264,0,0,1,.61,7.745a3.622,3.622,0,0,0-.364-.989,5.326,5.326,0,0,1-.41-1.05,12.485,12.485,0,0,1-.25-1.832c-.024-.28-.049-.568-.083-.864l-.032-.282,1.56-1.188L1.749.993l.171-.13L2.131.9A6.3,6.3,0,0,1,6.1,3,8.971,8.971,0,0,1,7.811,6.42H9.47l.04-.04L9.588,6.3l.023-.023V2.822l.631-.107A2.891,2.891,0,0,1,9.321.4L9.352.033l.365-.076a5.435,5.435,0,0,1,1.136-.1c.18,0,.357,0,.528.009h.033c.218.006.376.01.539.01l.194,0,.112,0,.215-.006c.273-.007.685-.018,1.065-.018.407,0,.763.013,1.087.039a15.59,15.59,0,0,1,1.65.251l.057.011c.218.041.467.087.718.129l.083.014.074.04a2.033,2.033,0,0,1,.573.53c.243.294.363.414.576.423l.237.01.142.19a3.381,3.381,0,0,1,.585,2.455l-.012.124-.069.1c-.1.149-.2.282-.295.4a1.569,1.569,0,0,0-.305.478c-.124.563-.287,1.123-.445,1.663l0,.008a10.266,10.266,0,0,0-.609,3.751,2.71,2.71,0,0,1,2.024.881l3.564-.557,3.007-.469A3.677,3.677,0,0,1,24.951,7.9l-.013-.062c-.106-.158-.205-.311-.3-.459l-.009-.013a11.14,11.14,0,0,0-.7-.993A9.915,9.915,0,0,0,22.768,5.2c-.2-.179-.433-.352-.655-.519l-.024-.018a7.778,7.778,0,0,1-1.155-1,6.586,6.586,0,0,1-.85-1.332c-.1-.189-.213-.4-.335-.61l-.136-.232.119-.242L20.283.128l.2-.41.427.165a4.628,4.628,0,0,0,1.609.38A2.149,2.149,0,0,0,23.544.01a1.291,1.291,0,0,1,.509-.136c.478-.034,1-.068,1.633-.108l.042,0c1.106-.071,2.247-.144,3.37-.247.127-.011.252-.017.373-.017a6.891,6.891,0,0,1,2.889.834l.009,0c.211.1.451.209.682.306a1.993,1.993,0,0,1,.863.966,4.188,4.188,0,0,0,.224.372l.321.451-.481.274a10.462,10.462,0,0,0-2.767,2.319,20.212,20.212,0,0,0-2.121,3.067c-.083.6-.182,1.308-.278,2l.216-.068.057-.018a10.675,10.675,0,0,1,2.985-.706,7.422,7.422,0,0,1,2.594.7c.266.1.529.2.822.308l.186.069.088.178.59,1.191.2.394-.366.244c-.127.085-.25.175-.386.275l-.008.006a4.471,4.471,0,0,1-.953.586,4.827,4.827,0,0,0-1.37.841,6.973,6.973,0,0,0-1.111,1.268l-.234.332c-.687.974-1.465,2.078-2.189,3.165a4.442,4.442,0,0,1-1.238,1.108l-.011.008c-.086.059-.172.119-.257.179l.028.095,0,.007a4.434,4.434,0,0,1,.221,1.091c.032.9.027,1.815.021,2.7,0,.371,0,.754,0,1.132a3.716,3.716,0,0,1-.026.384,1.843,1.843,0,0,0-.016.365,2.275,2.275,0,0,1-.026,2.581,4,4,0,0,0-.3.724l-.091.358-.369.018-1.068.055c-.092.086-.188.169-.282.25l-.01.008c-.215.185-.511.439-.541.6a1.143,1.143,0,0,1-.918.919,1.1,1.1,0,0,0-.185.067l0,.007a4.018,4.018,0,0,1-1.1,1.529c-.64.583-1.316,1.131-1.97,1.661l-.03.025-.351.285.129.13-1.262,1.072Zm5.794-22.913.213.516.67,1.621v.1c0,.1,0,.214-.007.347a10.345,10.345,0,0,0,.017,1.222,7.723,7.723,0,0,0,.147.858,7.6,7.6,0,0,1,.173,1.1,22.941,22.941,0,0,1,0,2.834,17.48,17.48,0,0,1-.368,2.881,8.447,8.447,0,0,1-1.03,2.521c-.67,1.085-1.43,2.113-2.166,3.107-.635.859-1.286,1.74-1.874,2.651l0,0c.644-.522,1.309-1.061,1.927-1.625a3,3,0,0,0,.826-1.122,1.122,1.122,0,0,1,.838-.7c.212-.064.212-.064.229-.152a2.231,2.231,0,0,1,.873-1.168l.009-.008c.125-.108.256-.221.353-.324l.137-.146.233-.012.884-.046c.077-.2.167-.384.251-.556.335-.689.479-1.044.1-1.585a1.459,1.459,0,0,1-.149-1.024c.01-.1.021-.2.021-.282,0-.383,0-.768,0-1.141.006-.872.011-1.775-.02-2.655a3.6,3.6,0,0,0-.182-.849l0-.008c-.041-.139-.087-.3-.125-.452l-.075-.309.249-.2c.187-.149.384-.285.575-.416l.011-.008a3.673,3.673,0,0,0,.973-.839c.731-1.1,1.514-2.207,2.2-3.186l.234-.332a7.948,7.948,0,0,1,1.272-1.447,5.809,5.809,0,0,1,1.648-1.013,3.655,3.655,0,0,0,.742-.468l.009-.006.06-.044-.312-.631-.641-.241a6.815,6.815,0,0,0-2.24-.635,10.378,10.378,0,0,0-2.685.66l-.056.018c-.288.091-.615.193-.971.3l-.75.232.119-.862c.129-.935.273-1.98.387-2.8l.014-.1.049-.085a21.4,21.4,0,0,1,2.278-3.3A11.66,11.66,0,0,1,33.044,2.1l0-.005c-.108-.193-.271-.486-.379-.532-.246-.1-.494-.219-.713-.32l-.009,0A6.031,6.031,0,0,0,29.472.5c-.092,0-.187,0-.283.013-1.135.1-2.283.178-3.394.249l-.043,0C25.115.8,24.6.838,24.125.872A.36.36,0,0,0,24.009.9a3.126,3.126,0,0,1-1.489.368,4.822,4.822,0,0,1-1.539-.29l-.236.478c.08.144.154.284.222.412A5.768,5.768,0,0,0,21.68,3a7.054,7.054,0,0,0,1.015.87l.021.016c.236.178.48.363.712.566a10.857,10.857,0,0,1,1.279,1.288,11.8,11.8,0,0,1,.756,1.076l.009.013c.114.175.228.351.351.532l.056.082.02.1.033.163c.221,1.085.422,1.766,1.347,2.076.413.14.362.561.332.813-.006.05-.012.1-.014.133l-.026.4-1.219.19-3.025.472-4.089.638-.181-.2a1.858,1.858,0,0,0-1.408-.751c-.053,0-.106,0-.162.007l.291.928a11.343,11.343,0,0,0,.99,2.365,5.8,5.8,0,0,0,1.525,1.746c.564-.047.7-.371.944-1.086a3.212,3.212,0,0,1,.867-1.509l.068-.058,1.442-.538.77-.287.453-.169.184.447.057.137.129-.12a4.891,4.891,0,0,1,2.018-.936,12.161,12.161,0,0,1,2.922-.339c.183,0,.365,0,.54.011l.715.03-.273.661c-.029.07-.053.143-.079.22a1.621,1.621,0,0,1-.314.618c-.346.381-.709.738-1.059,1.082l-.027.026-.245.242c-.043.262-.087.529-.137.833l-.12.74-.637-.395-1.924-1.193-.119-.074Zm-20.62,10.6a6.923,6.923,0,0,0,.477,2.332,4.162,4.162,0,0,0,1.441,1.805c.088-.04.174-.076.256-.11.5-.207.69-.319.74-.671A1.116,1.116,0,0,1,8.3,27.4c.254-.126.511-.262.76-.393l.047-.025a15.414,15.414,0,0,1,2.3-1.055,10.579,10.579,0,0,0,2.2-.985,5.931,5.931,0,0,0,1.6-1.4c.021-.239-.091-.355-.36-.6-.078-.071-.163-.147-.244-.234a1.2,1.2,0,0,0-.226-.02,3.587,3.587,0,0,0-.9.165l-.019.005a4.641,4.641,0,0,1-1.193.2A2.313,2.313,0,0,1,11.2,22.8l-.436-.222.213-.441a2.159,2.159,0,0,1,1.034-.959l-.023-.081.452-.12c.557-.253.715-.371.721-.6a10.488,10.488,0,0,0-1.712-1.612l-.014-.011c-.181-.146-.369-.3-.553-.452l-.177-.15V16.51l.065-.135a2.935,2.935,0,0,1,1.734-1.84,2.222,2.222,0,0,0,.744-.622,4.209,4.209,0,0,0,.432-.6l-.727-.7-.33.21-.5.318L11.08,13.8V10.251l.831-.957.53-.611L12.6,8.5l.248.016,1.392.091.563.018-.38,2.784a7.664,7.664,0,0,1,.564.881c.357.618.629,1.091,1.215,1.305l.2-.381.221-.43.232-.453.418-.82-.018,0-.5.1-.093-.5a9.882,9.882,0,0,1,.569-4.674l0-.008c.153-.524.311-1.067.428-1.6a2.236,2.236,0,0,1,.494-.878c.059-.076.12-.154.178-.234a2.472,2.472,0,0,0-.291-1.469A1.884,1.884,0,0,1,17.01,1.5a2.187,2.187,0,0,0-.231-.254c-.222-.038-.438-.079-.631-.115l-.056-.011A14.874,14.874,0,0,0,14.547.884c-.3-.024-.627-.035-1.007-.035s-.77.011-1.038.018l-.217.006-.117,0-.214,0c-.191,0-.376,0-.564-.01h-.033c-.165,0-.335-.009-.5-.009-.2,0-.37.006-.526.02A2.851,2.851,0,0,0,11.334,2.4c.075.075.187.187.293.3l.2.2.16.018,1.7.189,1.178.131.112.276a3.287,3.287,0,0,1-.014,2.216,2.311,2.311,0,0,0-.107,1.289l.246.786-.811-.144c-.148-.026-.291-.055-.425-.083a5.137,5.137,0,0,0-.75-.117l-.141,0a1.4,1.4,0,0,1-1.515-1.044l-.026-.077V3.528l-.53.09-.286.049V6.693l-.147.146-.17.17-.077.077-.188.188-.146.146H7.049l-.1-.37a8.442,8.442,0,0,0-1.608-3.4,5.265,5.265,0,0,0-3.16-1.73l-.544.414L.527,3.18c.021.208.038.409.055.606A11.771,11.771,0,0,0,.809,5.474a4.587,4.587,0,0,0,.34.851A4.415,4.415,0,0,1,1.6,7.612a2.38,2.38,0,0,0,.53,1.053l.01.013a4.407,4.407,0,0,1,.571.953,11.354,11.354,0,0,0,1.575,2.842A12.389,12.389,0,0,0,6.15,14.518a4.238,4.238,0,0,0,2.388.979,2.912,2.912,0,0,1,1.082.377l.014.007c.107.055.207.107.293.142l.311.127v2.4h-.5c-.171,0-.34.006-.5.011l-.045,0c-.168.005-.319.01-.473.01a4.5,4.5,0,0,1-.67-.043,1.406,1.406,0,0,0-.678.146l-.011,0a2.765,2.765,0,0,1-.792.213.573.573,0,0,0-.38.139.259.259,0,0,0-.043.1L7.216,20.2,9.91,21.58v2.236L5.979,25.128l-.217-.2L5.295,24.5l-.312.168ZM26.49,13.7l.5.312.119.074,1.288.8.042-.255.026-.158.113-.113c.117-.117.239-.238.365-.361l.036-.035c.3-.29.6-.589.886-.9a10.948,10.948,0,0,0-2.4.306A6,6,0,0,0,26.49,13.7ZM12.08,10.625v1.354h0l.994-.635.309.3.283-2.072-.635-.042-.367.423Zm.347-4.449c.106.279.2.281.558.289l.171,0a4.635,4.635,0,0,1,.637.083,4.933,4.933,0,0,1,.194-1.066,2.849,2.849,0,0,0,.139-1.316l-.556-.062-1.143-.127ZM7.264,14.2,7.1,13.825c-.689-1.528-.9-2.866-.025-5.562l.233-.72.571.5,2.508,2.181.205.178-.442,3.141-.335.077-.345.079-.357.081ZM7.8,9.3a5.289,5.289,0,0,0,.046,3.736L8.886,12.8l.357-.082.008,0,.27-1.922ZM26.6,5.579l-.256-.274-.325-.346L25.108,4l.576-.308,1.357-.726.461-.247.226.472c.027.056.056.11.08.153a1.416,1.416,0,0,1,.172.421A1.528,1.528,0,0,1,26.93,5.409Z" transform="translate(99.76 24.117)"/>
      <path id="パス_16" data-name="パス 16" class="cls-1" d="M405.9,93.465l-.518-1.342c-1.139.135-1.812-.828-2.6-1.6v-.734l-.658-.226-.516-2.638-.534-.534a2.786,2.786,0,0,1,.266-1.418c.772-1.4,1.306-2.922,2.014-4.358.546-1.107,1.228-2.147,1.821-3.233a49.611,49.611,0,0,0,2.8-7.156,8.554,8.554,0,0,1,.983-2.544c.117-.152.059-.437.093-.768.635-.482,1.07-1.293,1.966-1.67.337-.142.8-.315.927-.174.543.581,1.209.162,1.807.365l1.857,1.858a3.961,3.961,0,0,0,.651,2.8c.335.386-.229,1.24.392,1.726-.19,1.478.294,2.906.322,4.362a6.511,6.511,0,0,1-.435,1.653c-.92.474-1.932.969-2.912,1.522-.208.117-.274.462-.447.667-.658.782-1,1.848-2.107,2.236-.287.1-.485.457-.8.775l1.841,1.937a10.069,10.069,0,0,1,.352,1.853,8.456,8.456,0,0,1-.369,1.8,8.613,8.613,0,0,1,4.024-1.047c.809.016,1.618,0,2.426,0,.535-.78,1.447-.175,2.182-.621s1.854-.2,2.752-.442a22.8,22.8,0,0,1,5.235-.331,2.7,2.7,0,0,0,.785-.189,2.049,2.049,0,0,1,1.765.045,1.207,1.207,0,0,0,.959.126c1.094-.673,2.135-.194,3.194.026.053.011.107.019.167.03l.318.657.367-.367.55,1.944a9.644,9.644,0,0,1-3.709.506c-.426-.038-.8-.328-1.288-.021-.343.217-.755-.435-1.288-.015-.285.225-.893.04-1.355.04a4.943,4.943,0,0,0-1.551.024c-1.8.633-3.736.563-5.552,1.227A12.654,12.654,0,0,0,418.86,91.7a3.162,3.162,0,0,1-2.884.233,6.517,6.517,0,0,0-1.951-.442L412.2,89.558v9.277c-1.642.261-1.9.134-2.834-1.4a11.9,11.9,0,0,1,.044-3.024c.528-1.981.129-3.964.316-5.932a8.78,8.78,0,0,0-.52-2.753l-.584.752.341.629-2.719,6.34-.347.02" transform="translate(-262.001 -39.856)"/>
      <path id="パス_17" data-name="パス 17" class="cls-1" d="M453.919,68.744h1.023c1.1,1.292.746,2.86.836,4.492a19.168,19.168,0,0,1,2.016.016,19.981,19.981,0,0,1,2.062.438l.687.719-.727,1.493a3.454,3.454,0,0,1-4.357-.911c.1.64-.174,1.192.17,1.836.231.433-.03,1.13-.094,2.034.142.381.911.5,1.279.224.742-.561,1.686.03,2.373-.621a.993.993,0,0,1,.96.075c.529.483,1.109.119,1.692.277.9-2.251.342-4.578.54-6.983-2.662.179-5.024-.256-6.613-2.711V67.778a1.955,1.955,0,0,0,.59-.1c1.552-.786,2.847-.171,4.1.716.53.375,1.075.73,1.771,1.2l.551-3.377a6.723,6.723,0,0,0-3.8-1.723l-1.08-1.222.966-1.366a15.763,15.763,0,0,0,3.412-.639c1.013-.437,1.718.12,2.474.388a5.881,5.881,0,0,1,1.706,1.308,6.249,6.249,0,0,1,2.093,3.077v1.688l-2.32.788a13.167,13.167,0,0,0-1.459,6.765c.025.75-.006,1.5.006,2.253a5.248,5.248,0,0,0,.408,2.914l-.945,1.443c-.974.134-1.342-.544-1.684-1.4-1.082.236-2.188.455-3.282.722-1.066.26-2.121.677-3.292-.078l-1.031,1.433h-1.523l-1.059-1.413c-.149-1.071-.333-2.053-.407-3.042a4.65,4.65,0,0,1,.129-2.018,5.862,5.862,0,0,0,.191-2,9.94,9.94,0,0,1,.044-2.069c.347-1.167.272-2.579,1.595-3.289" transform="translate(-295.215 -37.305)"/>
      <path id="前面オブジェクトで型抜き_2" data-name="前面オブジェクトで型抜き 2" class="cls-1" d="M14.932,23.27h0a2.455,2.455,0,0,1-1.518-.718,5.881,5.881,0,0,1-.954-1.394c-.036,0-.066,0-.1,0-.061,0-.125,0-.177,0h-.008c-.053,0-.119-.005-.179-.005a.609.609,0,0,0-.349.079,2.621,2.621,0,0,1-1.582.5A7.281,7.281,0,0,1,8.5,21.494h0c-.124-.028-.257-.058-.389-.086a1.307,1.307,0,0,1-.289-.113h0a1.2,1.2,0,0,0-.3-.116,1.435,1.435,0,0,0-.257-.021c-.085,0-.161.005-.2.009l-.063,0-.862.546-.145.092-.728.461a4.968,4.968,0,0,1-2.537-1.738l0,0c-.263-.28-.536-.569-.826-.822-.182-.488-.385-.978-.582-1.452A21.245,21.245,0,0,1,.242,15.244a7.1,7.1,0,0,1-.11-3.183A8.22,8.22,0,0,1,2.564,9.277,23.72,23.72,0,0,1,5.7,7.395c.344-.183.679-.362,1.006-.543A3.773,3.773,0,0,1,6.5,5.89C6.42,5.276,6.348,4.7,5.649,4.468a8.226,8.226,0,0,1-.033-1.3,4.834,4.834,0,0,0-.2-1.906C6.18.341,6.712,0,7.38,0A3.877,3.877,0,0,1,8.84.376L8.908.321,9,.249,9.1.171,9.267.033c.194.173.4.353.568.5l0,0c.439.382.893.777,1.314,1.2.131.13.272.263.4.38A4.628,4.628,0,0,1,12.777,3.62a6.94,6.94,0,0,1,.3,1.068,5.558,5.558,0,0,0,.438,1.387l-.421.843L12.3,8.507l.923.639.343.237.181.125.884.611c0,.174,0,.345,0,.51v0c0,.362.005.7,0,1.048a10.287,10.287,0,0,0,.635,3.717,1.408,1.408,0,0,1,.052.44c0,.076,0,.154.009.228.035.368.052.748.069,1.115a9.862,9.862,0,0,0,.335,2.529,6.909,6.909,0,0,1,.249,1.968c.009.34.019.692.057,1.043l-1.1.552Zm-6.246-4.2a12.37,12.37,0,0,1,3.626.444l-.471-1.278-.03-.083.228-.056.617-.152c-.049-.382-.081-.766-.112-1.137a9.952,9.952,0,0,0-.39-2.389,7.82,7.82,0,0,1-.3-1.457,7.145,7.145,0,0,0-.625-2.335l-.123-.082-.007-.005c-.215-.145-.576-.386-.951-.61a.882.882,0,0,0-.473-.094H9.567a1.2,1.2,0,0,1-.447-.063.492.492,0,0,0-.177-.03,2.109,2.109,0,0,0-.71.2l-.019.008c-.1.042-.213.086-.313.119l-.212.069a18.023,18.023,0,0,0-2.452.936,5.744,5.744,0,0,0-2.025,1.6v2.379c.177.379.334.74.486,1.09A8.736,8.736,0,0,0,5.42,19.069c.345.021.709.031,1.144.031.351,0,.715-.007,1.036-.012h.05C7.989,19.08,8.339,19.074,8.686,19.074Z" transform="translate(188.91 22.737)"/>
      <path id="前面オブジェクトで型抜き_2_-_アウトライン" data-name="前面オブジェクトで型抜き 2 - アウトライン" class="cls-2" d="M15.051,23.77h-.146l-.027,0a2.937,2.937,0,0,1-1.816-.86,5.593,5.593,0,0,1-.9-1.252H12.14c-.046,0-.1,0-.143,0a.654.654,0,0,0-.084,0,3.105,3.105,0,0,1-1.847.573,7.572,7.572,0,0,1-1.653-.242l-.02,0c-.122-.027-.253-.057-.383-.084a1.691,1.691,0,0,1-.388-.145l-.02-.009a.957.957,0,0,0-.173-.073.932.932,0,0,0-.166-.013c-.039,0-.076,0-.106,0l-.753.477-.144.092-.728.461-.175.111-.2-.045a5.438,5.438,0,0,1-2.793-1.883l-.005-.006c-.252-.268-.514-.547-.788-.785L1.472,20l-.044-.119c-.18-.48-.381-.966-.575-1.436a21.614,21.614,0,0,1-1.1-3.081,7.587,7.587,0,0,1-.114-3.4l.014-.068.032-.062A8.708,8.708,0,0,1,2.263,8.878,24.066,24.066,0,0,1,5.456,6.956l0,0c.234-.125.444-.237.644-.345A6.386,6.386,0,0,1,6,5.952c-.082-.664-.14-.889-.507-1.009l-.3-.1-.04-.313a8.613,8.613,0,0,1-.037-1.38,4.4,4.4,0,0,0-.167-1.717l-.1-.272L5.033.94A3.084,3.084,0,0,1,7.38-.5a3.873,3.873,0,0,1,1.374.3l.026-.021L8.84-.265l.113-.091.33-.267L9.6-.34c.191.171.4.35.563.494l0,0c.446.389.906.789,1.34,1.221.12.12.254.245.372.356l.015.014a5.06,5.06,0,0,1,1.347,1.686,7.317,7.317,0,0,1,.32,1.145,5.189,5.189,0,0,0,.393,1.264l.118.226-.644,1.292-.489.981.311.215,1.878,1.3v.262c0,.171,0,.339,0,.5v.006c0,.367.005.713-.005,1.066a9.8,9.8,0,0,0,.607,3.538,1.845,1.845,0,0,1,.08.6c0,.069,0,.134.007.19.036.38.053.766.071,1.139a9.5,9.5,0,0,0,.311,2.4,7.3,7.3,0,0,1,.272,2.106c.009.33.018.671.055,1l.038.346-.311.156-1.1.551Zm-2.3-3.129.151.279a5.465,5.465,0,0,0,.866,1.276,1.928,1.928,0,0,0,1.08.557l.659-.331c-.017-.25-.023-.495-.03-.734a6.524,6.524,0,0,0-.225-1.829,10.233,10.233,0,0,1-.358-2.658c-.017-.362-.034-.735-.067-1.092-.009-.094-.01-.186-.011-.267a1.146,1.146,0,0,0-.024-.282,10.777,10.777,0,0,1-.663-3.9c.01-.335.007-.672,0-1.028l.5-.011-.5,0q0-.122,0-.247l-1.448-1-.668-.462-.356-.246.193-.387.682-1.369.422-.847a7.048,7.048,0,0,1-.37-1.272,6.576,6.576,0,0,0-.273-.991,4.3,4.3,0,0,0-1.1-1.327l-.015-.014c-.123-.115-.262-.246-.393-.376-.41-.409-.857-.8-1.29-1.174l0,0L9.252.686l-.33.265L8.647.837A3.439,3.439,0,0,0,7.38.5c-.4,0-.764.149-1.4.872A5.957,5.957,0,0,1,6.116,3.18c-.009.311-.018.63,0,.947a2,2,0,0,1,.874,1.7,3.352,3.352,0,0,0,.174.837l.166.411-.388.214c-.316.174-.633.344-1.013.546a23.348,23.348,0,0,0-3.066,1.84A7.762,7.762,0,0,0,.608,12.231a6.646,6.646,0,0,0,.119,2.894,20.871,20.871,0,0,0,1.049,2.936c.182.44.37.894.544,1.352.276.25.535.525.766.771l.005.006a4.792,4.792,0,0,0,2.086,1.54l.546-.346.144-.092.862-.546.123-.078H7l.027,0c.053,0,.139-.01.238-.01a1.933,1.933,0,0,1,.347.029,1.616,1.616,0,0,1,.422.154l.011.005a1.036,1.036,0,0,0,.175.074c.128.027.256.056.377.083l.019,0a6.92,6.92,0,0,0,1.452.222,2.109,2.109,0,0,0,1.291-.4A1.076,1.076,0,0,1,12,20.651c.066,0,.132,0,.186.005h.028c.048,0,.1,0,.151,0l.07,0Zm.379-.355L12.168,20a11.908,11.908,0,0,0-3.481-.423c-.342,0-.681.006-1.027.012H7.61c-.287.005-.678.013-1.045.013-.447,0-.82-.01-1.175-.032L5.2,19.557l-.133-.13a9.089,9.089,0,0,1-1.831-3.08c-.15-.346-.305-.7-.481-1.079l-.047-.1V12.506l.105-.135a6.231,6.231,0,0,1,2.2-1.736A18.382,18.382,0,0,1,7.532,9.67l.213-.07c.089-.029.2-.073.282-.107l.023-.01a2.47,2.47,0,0,1,.893-.237A.989.989,0,0,1,9.3,9.31a.786.786,0,0,0,.268.03h.109a1.343,1.343,0,0,1,.729.165c.39.233.769.487.973.624l.012.008.116.078.112.074.06.12A7.657,7.657,0,0,1,12.35,12.9a7.451,7.451,0,0,0,.278,1.366,10.317,10.317,0,0,1,.415,2.509c.031.368.062.745.109,1.115l.057.443-.434.106-.3.074.308.836ZM8.686,18.574a14.511,14.511,0,0,1,2.831.233l-.145-.394-.223-.607.771-.19.19-.047c-.024-.241-.044-.479-.063-.712a9.607,9.607,0,0,0-.365-2.272,8.2,8.2,0,0,1-.322-1.548,6.892,6.892,0,0,0-.522-2.065l-.01-.007-.009-.006c-.21-.141-.561-.376-.927-.595a.611.611,0,0,0-.216-.024H9.567a1.674,1.674,0,0,1-.618-.093H8.944a1.969,1.969,0,0,0-.517.164l-.021.009c-.126.051-.236.095-.348.131l-.213.07a17.652,17.652,0,0,0-2.383.908,5.363,5.363,0,0,0-1.749,1.326v2.092c.162.35.305.681.444,1A9.066,9.066,0,0,0,5.642,18.58c.279.013.577.019.923.019s.744-.007,1.026-.012h.052C7.992,18.58,8.336,18.574,8.686,18.574Z" transform="translate(188.91 22.737)"/>
      <path id="パス_19" data-name="パス 19" class="cls-1" d="M555.426,123.668l1.187.721-.37,1.236c-1.22.624-2.586.39-3.92.473a20.727,20.727,0,0,0-2.355.419,4.05,4.05,0,0,0,.5.441,11.546,11.546,0,0,1,2.072,2.03,2.541,2.541,0,0,0,.834.855c1.314.628,2.482,1.506,3.759,2.2a5.666,5.666,0,0,0,3.728.566,3.941,3.941,0,0,0,2.861-1.617h.936c-.024.218.019.434-.067.518-.643.631-1.321,1.227-1.967,1.855-.293.285-.537.619-.844.976-1.008,0-1.965.514-3.066.434a11.638,11.638,0,0,1-4.177-1.241,43.909,43.909,0,0,1-4.467-2.683c.141,1.487-.259,2.886.561,4.408l-1.049.295c-1.009.128-1.751-.615-2.276-1.9-.17-.65.352-1.594-.213-2.446a.292.292,0,0,1,.035-.239,2.289,2.289,0,0,0-.324-2.46,2.034,2.034,0,0,0-1.766.757c-1.025,1.173-2.546,1.792-3.35,3.25a3.742,3.742,0,0,1-1.88,1.652c-.377.148-.62.641-.919.973-.987-.863-1-1.919-.886-3.135a56.652,56.652,0,0,0,7.172-5.3c-2.245.32-3.976,1.434-5.913,1.074l-3.435-2.182c.218-1.024,1.336-.9,1.642-1.678a4.777,4.777,0,0,0,2.735.156,38.685,38.685,0,0,1,5.563-.415c.505-.028,1.013,0,1.67,0l-.527-1.265,1.768-.554c.714.465,1.2.905,1.081,1.876,1.026-.258,2.03.314,3-.378a1.029,1.029,0,0,1,.988.023c.553.538,1.212.142,1.689.313" transform="translate(-350.03 -76.975)"/>
      <path id="パス_20" data-name="パス 20" class="cls-1" d="M694.025,86.739a21.463,21.463,0,0,1-2.9-3.241V80.939c1.017-.338,1.851.185,2.734.423.369.1.892.305,1.113.144.636-.464,1.3-.252,1.958-.312a9.941,9.941,0,0,0,2.476-.274,2.231,2.231,0,0,1,2.277.248c.194.172.669.026,1.052.026l.174.465c1.594.648,1.119.441,2.442,3.183q-.641.264-1.284.53a11.088,11.088,0,0,0-3.734,3.074,2.119,2.119,0,0,0-.511,2.089c1.591.831,2.989,2.2,5.028,2.522l1.088,1.088v2.246a3.706,3.706,0,0,1-.591.055,6.052,6.052,0,0,0-5.619,2.836,5.838,5.838,0,0,1-1.333,1.03l-1.465-.833.238-1.567-.427-.171,1.173-1.138.821.234,2.187-1.719a2.7,2.7,0,0,0-1.681-1.1,2.8,2.8,0,0,1-2.291-2.968c-.085-1.272.587-2.318.792-3.495a7.188,7.188,0,0,1,.558-1.388c-.751-.467-1.185.414-1.824.506a4.054,4.054,0,0,1-2.188-.176l-.264.242" transform="translate(-451.482 -50.118)"/>
      <path id="パス_21" data-name="パス 21" class="cls-1" d="M201.244,58.082a6,6,0,0,1,1.442,1.248,6.522,6.522,0,0,1,.465,1.96c-.807.888-2.2,1.395-2.435,2.558-.248,1.241-1.374,1.977-1.328,3.535l.279.3,1.222-.325.356-2.592a2.714,2.714,0,0,1,2.569.54l1.715,3.349a2.976,2.976,0,0,1-2.243,2.258l-.572-.93c-1.812-.533-3.341.8-5.095.581A11.318,11.318,0,0,0,196.5,71.66a9.48,9.48,0,0,0-.731,1.281h-1.844c-1.064-.771-2.356-1.47-3-3.146-.152-1.807.946-3.373,2.075-4.93.578-.8,1.18-1.578,1.7-2.408a21.252,21.252,0,0,1,4.236-4.375Z" transform="translate(-124.709 -35.328)"/>
      <path id="前面オブジェクトで型抜き_3" data-name="前面オブジェクトで型抜き 3" class="cls-1" d="M3.289,12.892h0L2.857,12.7l-.188-.082-.555-.242L1.538,10.6.846,8.474A1.843,1.843,0,0,1,.69,7.58a1.886,1.886,0,0,0-.3-1.192,1.309,1.309,0,0,1-.119-.883A1.664,1.664,0,0,0,.047,4.282c-.126-.166.026-.544.161-.877a3.7,3.7,0,0,0,.139-.381l.514-.35.331-.226.631-.431A.255.255,0,0,1,1.917,2a1.585,1.585,0,0,1,.246.031h.007l.043.007h.009a2.275,2.275,0,0,0,.39.041.91.91,0,0,0,.744-.337,1.184,1.184,0,0,0,.23.024A1.4,1.4,0,0,0,4.6,1.146,3.508,3.508,0,0,1,5.11.66l.362.105L5.7.83l.124.036.341.1A2.983,2.983,0,0,1,8.079,0a3.4,3.4,0,0,1,1.9.8c.147.1.3.2.442.284l0,0c.169.1.343.212.505.33a2.506,2.506,0,0,1,.343.326l0,0c.045.048.1.109.157.165V2.938a2.492,2.492,0,0,1-1.027.854A2.762,2.762,0,0,0,8.716,6.277a8.749,8.749,0,0,1-.472,2.289,19.608,19.608,0,0,0-.645,2.77.94.94,0,0,1-.516.148,2.55,2.55,0,0,1-.914-.247h0l0,0a2.531,2.531,0,0,0-.9-.247,1.029,1.029,0,0,0-.871.529L3.321,12.852l-.032.039ZM6.241,4.5h0A2.068,2.068,0,0,0,4.6,5.592a2.5,2.5,0,0,1-.786.8,4.014,4.014,0,0,0,.54,2.376l.263-.087.3-.1.992-.328c.034-.176.072-.353.109-.525v0a10.172,10.172,0,0,0,.21-1.21,12.416,12.416,0,0,0,.021-1.32c0-.219-.008-.445-.008-.686Z" transform="translate(226.771 44.934)"/>
      <path id="前面オブジェクトで型抜き_3_-_アウトライン" data-name="前面オブジェクトで型抜き 3 - アウトライン" class="cls-2" d="M3.529,13.392H3.185l-.763-.333-.509-.222-.206-.09-.069-.214-.576-1.774L.383,8.666A2.352,2.352,0,0,1,.19,7.584a1.428,1.428,0,0,0-.2-.906,1.723,1.723,0,0,1-.21-1.213,1.207,1.207,0,0,0-.127-.88c-.3-.393-.089-.91.095-1.367.049-.121.1-.245.12-.325l.048-.179.153-.1.369-.251,1.15-.785.051-.02A.742.742,0,0,1,1.917,1.5a1.947,1.947,0,0,1,.33.038h.006l.046.008h0a1.848,1.848,0,0,0,.309.035.417.417,0,0,0,.359-.156L3.16,1.2l.292.058a.685.685,0,0,0,.133.014c.211,0,.353-.133.65-.46A3.957,3.957,0,0,1,4.813.257l.2-.147.238.07.241.07.551.159A3.171,3.171,0,0,1,8.079-.5a3.831,3.831,0,0,1,2.185.889c.138.1.292.191.417.267l.008,0c.166.1.356.219.536.351a2.916,2.916,0,0,1,.413.388l-.363.344.366-.34,0,0c.041.044.092.1.141.148l.146.146V3.071l-.066.115a2.909,2.909,0,0,1-1.213,1.04A2.264,2.264,0,0,0,9.217,6.294,9.21,9.21,0,0,1,8.726,8.7a19.222,19.222,0,0,0-.63,2.7l-.031.232-.2.125a1.445,1.445,0,0,1-.783.225,2.962,2.962,0,0,1-1.1-.284l-.013-.005a2.205,2.205,0,0,0-.706-.208c-.126,0-.269.038-.459.314l-.021.028-.9,1.118ZM2.52,12.011l.3.131.318.138.854-1.064a1.519,1.519,0,0,1,1.271-.73,2.924,2.924,0,0,1,1.082.281l.019.008a1.887,1.887,0,0,0,.782.2,21.865,21.865,0,0,1,.617-2.552A8.553,8.553,0,0,0,8.216,6.29V6.263l0-.028a3.254,3.254,0,0,1,1.939-2.878,2.534,2.534,0,0,0,.775-.569V2.11l-.02-.021L10.9,2.081a2.119,2.119,0,0,0-.271-.262c-.147-.107-.312-.209-.472-.308l-.007,0c-.132-.081-.3-.185-.464-.3A2.985,2.985,0,0,0,8.079.5a2.568,2.568,0,0,0-1.585.84l-.206.181-1.06-.306c-.085.082-.167.172-.252.265a1.856,1.856,0,0,1-1.392.79H3.535a1.414,1.414,0,0,1-.925.314,2.722,2.722,0,0,1-.475-.049l-.019,0-.024,0-.014,0L1.986,2.51,1,3.184.769,3.34c-.03.083-.064.168-.1.251a3.529,3.529,0,0,0-.166.473A2.189,2.189,0,0,1,.773,5.545,1.126,1.126,0,0,0,.8,6.1a2.355,2.355,0,0,1,.39,1.479,1.444,1.444,0,0,0,.1.664l.02.039.013.042.691,2.131ZM4.079,9.379,3.9,8.965A4.467,4.467,0,0,1,3.313,6.39l0-.3.268-.142A2.125,2.125,0,0,0,4.2,5.3a2.537,2.537,0,0,1,2.017-1.29l.027.5.5-.036.036.508-.03,0q0,.1,0,.2a12.789,12.789,0,0,1-.023,1.374,10.547,10.547,0,0,1-.219,1.271v0c-.034.159-.073.34-.106.513l-.055.289Zm.237-2.724a3.821,3.821,0,0,0,.059.8,4.133,4.133,0,0,0,.254.694l.848-.28c.018-.085.036-.168.053-.246l0-.009a9.769,9.769,0,0,0,.2-1.146A12.061,12.061,0,0,0,5.749,5.2V5.134A2.312,2.312,0,0,0,5,5.888,3.65,3.65,0,0,1,4.315,6.656Z" transform="translate(226.771 44.934)"/>
      <path id="パス_23" data-name="パス 23" class="cls-1" d="M235.34,97.2c2.454-.087,2.843.141,3.74,2.174a2.7,2.7,0,0,0,1.821.557,2.12,2.12,0,0,1,1.954.834v1.455a11.544,11.544,0,0,1-4.776.416c-.021.443-.04.826-.058,1.209a6.081,6.081,0,0,0,2.221,1.67,7.833,7.833,0,0,0,2.7.967,20.629,20.629,0,0,0,3.03-.3l-2.7,1.369h-1.553l-.558.422-.657-.481-.6.379-2.949-.8a2.5,2.5,0,0,0-.5-.561c-1.37-1.018-1.506-2.564-1.931-4.051-.561-1.956.275-3.561.813-5.26" transform="translate(-153.085 -60.868)"/>
      <path id="パス_24" data-name="パス 24" class="cls-1" d="M240.178,61.508l.482,1.421-.735,1.887.788.268-.218.239a13.869,13.869,0,0,1,1.72.017,9.941,9.941,0,0,1,1.511.445l1.114,1.092v.7a5.9,5.9,0,0,1-4.712.082,1.728,1.728,0,0,0,.531,1.959,6.276,6.276,0,0,0,3.106,2.089,3.872,3.872,0,0,1,.753.374c-.142,1.163-1.259.862-1.905,1.173-.783.377-1.6-.3-2.4-.318a10.924,10.924,0,0,1-3.485-5.457,3.519,3.519,0,0,1-.2-1.123c-.02-1.152.009-2.3-.018-3.455a4.792,4.792,0,0,0-.243-.977c.64-.528,1.324-1.06,2.38-.455.389.223,1.012.036,1.53.036" transform="translate(-154.343 -37.367)"/>
      <path id="パス_25" data-name="パス 25" class="cls-1" d="M213.127,106.459l.713-.186c0-1.1.06-2.241-.017-3.374-.075-1.1-.291-2.2-.464-3.436h-3.311c-.084-.811.552-1.025.8-1.367,2.322-.58,4.632-1.419,6.6,1l-1.178,2.17c0,.651-.043,1.577.015,2.5.04.649.26,1.285.32,1.935.058.629,0,1.268.019,1.9a1.16,1.16,0,0,0,.145.456,5.468,5.468,0,0,1,.481,3.382l-1.085.481a2.69,2.69,0,0,1-2.29-2.538c-.087-.725-.431-1.336-.576-2.02-.065-.3-.113-.61-.167-.906" transform="translate(-137.21 -61.059)"/>
      <path id="パス_26" data-name="パス 26" class="cls-1" d="M181.379,147.455v2.053a12.428,12.428,0,0,1-1.857.438,6.4,6.4,0,0,1-3-.673,11.751,11.751,0,0,1-4.5-2.957v-2.16l1.412-1.034c1.8-.415,3.223.323,4.711.922,1.607.647,2.411,1.966,3.23,3.411" transform="translate(-112.377 -90.801)"/>
      <path id="パス_27" data-name="パス 27" class="cls-1" d="M200.509,112.116c-1.208,2.037.2,3.337.524,4.942l-1.17.854h-.809a4.559,4.559,0,0,1-.781-1.043,5.53,5.53,0,0,1-.355-1.75,28.817,28.817,0,0,1,.017-4.146c.15-1.373.284-2.828,1.89-3.532.431-.189.654-.854.959-1.284,2.68-.059,3.434.319,3.713,1.883l-1.357,1.214-2.212-1.076c-.939.665-1.025,1.626-.906,2.795.736-.113,1.466-.269,2.2-.326s1.471-.012,2.3-.012l-.422.7.34.506-.471.828c-.692.574-1.725.365-2.807.4l-.653-.952" transform="translate(-129.247 -66.73)"/>
      <path id="パス_28" data-name="パス 28" class="cls-1" d="M696.4,107.88c1.045.283,2.062.373,2.628,1.354a11.393,11.393,0,0,0-.712,3.167c-.024.876-.257,1.744-.316,2.621a19.5,19.5,0,0,0,0,2.59c.062.934.263,1.86.322,2.794a14.387,14.387,0,0,0,.068,2.748,6.6,6.6,0,0,1,.281,2.116c-.036.647-.169,1.29-.253,1.885l-.98.5c-.071-.065-.241-.15-.3-.284-.6-1.388-1.423-2.746-.562-4.339.121-.223.01-.565.027-.851a16.8,16.8,0,0,1,.3-4.015c.448-1.482-.371-2.98-.339-4.508a6.308,6.308,0,0,0,.088-1.972,7.261,7.261,0,0,0-.678-1.8c-.359-.631.168-1.247.423-2" transform="translate(-454.57 -67.859)"/>
      <path id="パス_29" data-name="パス 29" class="cls-1" d="M483.8,149.6a5.783,5.783,0,0,0-.759,0c-2.029.37-3.475-.853-4.861-1.962a10.466,10.466,0,0,1-1.757-2.519,6.346,6.346,0,0,1-.312-.6c.949-1.5,1.467-1.744,2.57-1.184l.409-.368c.139.061.287.12.43.19a8.8,8.8,0,0,1,3.949,4.336,7.789,7.789,0,0,1,.331,2.1" transform="translate(-311.02 -90.785)"/>
      <path id="パス_30" data-name="パス 30" class="cls-1" d="M250.239,140.17a2.348,2.348,0,0,1,.149-2.655c1.105-.829,2.159-.318,3.231.292a7.532,7.532,0,0,0,1.288.445l2.3,2.3v.943l-1.24.745c-1.959-.512-3.956-.578-5.732-2.075" transform="translate(-163.243 -86.935)"/>
      <path id="パス_31" data-name="パス 31" class="cls-1" d="M521.066,113.676v-2.07c.292-.261.712-.643,1.14-1.015a1.854,1.854,0,0,1,.525-.391c.6-.216,1.232-.348,1.822-.587a13.031,13.031,0,0,0,1.555-.813c.719-.412,1.4.213,2.189-.044a2.662,2.662,0,0,1-.935,2.239,12.154,12.154,0,0,1-1.616,1.878c-.624.438-1.62.364-2.212.825-.887.69-1.558-.177-2.467-.021" transform="translate(-340.389 -68.364)"/>
      <path id="パス_32" data-name="パス 32" class="cls-1" d="M597.023,114.2c1.855-.849,1.855-.849,3.992-.5.285.285.558.585.86.852.281.249.594.464,1.03.8l.43,1.035-.983,1.425H600.8l-2.138-.894-1.642-2.718" transform="translate(-390.009 -71.519)"/>
      <path id="パス_33" data-name="パス 33" class="cls-1" d="M211.809,146.911l-.974.818c-1.026-.094-2.276.285-3.37-.4-.437-1.158-2-1.8-1.44-3.335,2.987-.274,3.429-.278,4.871.513a10.16,10.16,0,0,1,.579,1.072,10.689,10.689,0,0,1,.334,1.329" transform="translate(-134.509 -91.344)"/>
      <path id="パス_34" data-name="パス 34" class="cls-1" d="M599.786,90.018v.836l-.887,1.214c-1.084-.493-1.552-.449-2.3.2-.3.261-.548.592-.861.839a9.181,9.181,0,0,1-1,.606h-1.967c.765-1.882,2.251-3.133,3.542-4.827,1.158-.414,2.14.759,3.469,1.135" transform="translate(-387.234 -55.392)"/>
      <path id="パス_35" data-name="パス 35" class="cls-1" d="M525.758,90.266c-1.73-.5-3.051-1.862-4.628-2.859v-.835a4.663,4.663,0,0,1,3.225-.288l2.589,1.5V89.46l-1.186.807" transform="translate(-340.431 -53.625)"/>
      <path id="パス_36" data-name="パス 36" class="cls-1" d="M457.81,149l-.972,1.4-1.706-1.949v-3.023l.54-.54,2.584.332L457.81,149" transform="translate(-297.318 -92.038)"/>
      <path id="パス_37" data-name="パス 37" class="cls-1" d="M231.526,145.236a2.94,2.94,0,0,1,.785,2.711,3.322,3.322,0,0,0-.921.243c-.226.135-.354.436-.543.687l-2.583-1.812-.475-1.489.641-.734,3.095.393" transform="translate(-148.805 -92.005)"/>
      <path id="パス_100" data-name="パス 100" class="cls-1" d="M90.444,217.046l-.242.283-.109-.109.283-.242.068.068" transform="translate(-58.854 -139.128)"/>
      <path id="パス_102" data-name="パス 102" class="cls-1" d="M62.567,63.427c-.05-3.536.319-7.089-.323-10.6-.169-.923.365-1.759.327-2.63-.1-2.437.185-4.865-.26-7.324a52.182,52.182,0,0,1-.4-6.953,15.327,15.327,0,0,0-.026-2.076,8.915,8.915,0,0,1-.036-3.535,10.8,10.8,0,0,0-.16-4.058c-.226-.767-.967-1.717-.13-2.614a6.575,6.575,0,0,1,.341-2.98c.045-.092.05-.294,0-.332-.477-.329-.341-.817-.33-1.255a8.836,8.836,0,0,0-.876-3.8,5.718,5.718,0,0,1-.541-2.212,18.1,18.1,0,0,0-.335-2.629c-.042-.253-.256-.474-.33-.727a26.014,26.014,0,0,1-1.423-4.969,1.553,1.553,0,0,0-.709-1.062c-1.293-.682-2.539-1.421-3.78-2.194A5.276,5.276,0,0,0,49.9.711,1.96,1.96,0,0,1,48.705.694c-.917-.553-1.979-.006-2.8-.372-1.026-.459-2.009-.175-3-.287a25.477,25.477,0,0,0-4.018.3,23.729,23.729,0,0,0-3.321.391C35.2.8,34.862,1,34.5,1.06A23.258,23.258,0,0,0,29.51,2.668l-.656,1.443c-1.162.624-2.632,3.059-3.142,5.234l-.565.164a4.521,4.521,0,0,1-.018,1.3c-.582,1.721-1.16,3.448-1.871,5.118a7.077,7.077,0,0,0-.888,3.448,2.177,2.177,0,0,1-.476,1.781c-.339,1.388-.537,2.58-.934,3.7a6.355,6.355,0,0,0-.251,2.956c.729-.52,1.19-1.146,1.894-1.572a8.3,8.3,0,0,0,1.628-1.886c.224-.263.449-.637.739-.714,1.228-.325,1.447-1.754,2.526-2.21,1.144-1.837,2.344-3.644,3.413-5.524a15.327,15.327,0,0,1,2.47-3.482c.783-.77,1.554-1.551,2.337-2.335h2.19l1.824,1.49c0,.319-.1.64.017.76.545.571.478,1.319.708,1.973a14.109,14.109,0,0,0,1.313,3.62,9.772,9.772,0,0,1,1.47,3.383,1.888,1.888,0,0,0,1.531,1.62,1.967,1.967,0,0,1,.22-.605c1.3-1.549,2.635-3.062,3.907-4.629a54.228,54.228,0,0,0,3.524-4.614,4.642,4.642,0,0,1,2.094-1.9l1.48,1.48c-.071.081-.2.157-.206.245-.072.732-.122,1.465-.19,2.336l.932.774a15.852,15.852,0,0,0,1.6,3.961c.245.35.7.542,1.017.856a11.258,11.258,0,0,1,.9,1.1c.037.048-.009.159-.028.372l-1.175.363-.206.606-.367-.33-.578.387a7.031,7.031,0,0,1-1.479-1.122,9.63,9.63,0,0,1-1.972-3.166c-.106-.381-.538-.672-.791-.967l-.938.845c0,.257.1.583-.016.7-.878.887-1.508,2.028-2.7,2.605a1.853,1.853,0,0,0-.9.711,6.98,6.98,0,0,1-1.753,2.042,10.178,10.178,0,0,1-2.666,2.338c-.567,1.3-1.82,1.909-2.773,2.826-.322.311-1.1.174-.985.933a4.626,4.626,0,0,1-2.939.838c-.355-.646-1.094-.1-1.391-.352l-.518-.982c1.1-.946,2.221-2,3.435-2.92a31.4,31.4,0,0,0,3.74-3.086c.1-.1.1-.3.184-.572l-.927-.07a13.709,13.709,0,0,1-2.67-3.677c-.8-1.345-.85-3.007-1.921-4.436-.052.411-.085.671-.127,1.011a12.93,12.93,0,0,1-2.145,2.456,10.189,10.189,0,0,0-3,3.1,13.051,13.051,0,0,1-1.729,2.056c-1.265,1.384-2.821,2.5-3.814,4.138a1.765,1.765,0,0,1-.734.72,2.576,2.576,0,0,0-1.235,1.2c-.3.483-1.092.665-1.372,1.15-.416.722-1.1.921-1.691,1.339a3.752,3.752,0,0,1-2.188.7,23.876,23.876,0,0,1-1.833,5.48,5.6,5.6,0,0,1-.284,1.776c-.2.439.24,1.144.271,1.736.055,1.037-.036,2.083.03,3.119a6.188,6.188,0,0,1-.617,2.576c.11.718.218,1.194.25,1.675.169,2.492-.312,5.007.327,7.49a13.054,13.054,0,0,1,.038,2.073c.055.651.317,1.293.314,1.938a12.23,12.23,0,0,0,.958,4.465,4.953,4.953,0,0,1,.468,2.418,4.155,4.155,0,0,0,.821,2.591,17.381,17.381,0,0,0,1.895,2.236l2.513-.989a5.209,5.209,0,0,1,1.9-1.255,16.032,16.032,0,0,0,3.811-2.076c.464-.328.831-.736,1.368-.617,1.612-1.763,3.794-2.746,4.974-4.762.224-.509-.238-1.131.319-1.617a.654.654,0,0,0,.048-.64,2.558,2.558,0,0,1-.3-2.122c.193-2-.533-3.936-.373-5.927.009-.115.051-.279-.007-.339-.411-.424-.377-.782-.132-1.34.177-.4-.33-1.1-.166-1.515.433-1.111.431-2.306.918-3.434A7.753,7.753,0,0,1,39,43.922c.484-.452,1.043-.823,1.565-1.234a16.324,16.324,0,0,1,1.7-1.334,15.1,15.1,0,0,0,4.231-3.18c.023-.028.124.019.167-.007a28.356,28.356,0,0,0,5.718-4.145h1.227l1.853,1.743a12.432,12.432,0,0,1-2.049,2c-1.784,1.061-3.765,1.805-5.156,3.457-.085.1-.336.047-.455.137-1.318.994-2.768,1.8-3.994,2.928a10.8,10.8,0,0,1-1.91,1.643,17.579,17.579,0,0,0-2.5,2.039c-.149.73-.3,1.313-.38,1.905A5.67,5.67,0,0,1,38.716,52a2.123,2.123,0,0,0,.07,1.659,15.35,15.35,0,0,1,.518,2.382,6.732,6.732,0,0,1,.034,2.752c-.121.938.416,1.728.383,2.634-.045,1.209-.011,2.421-.011,3.628a4.811,4.811,0,0,0-1.412,2.03,2.363,2.363,0,0,1-1.531,1.583c-.337.158-.742.185-1.057.372-.767.455-1.768.646-2,1.551a35.17,35.17,0,0,0-3.452,1.521A11.267,11.267,0,0,1,27.261,73.7c-.568.13-1.008.613-1.685.571-.275-.017-.575.375-1.038.7a15.067,15.067,0,0,0,1.754,1.243c.662.337,1.43.466,2.09.807a5.471,5.471,0,0,0,2.669.687c2.021-.034,4.043-.01,6.065-.01l-.2-.205.769-.264a4.505,4.505,0,0,0-1.461-.085,10.168,10.168,0,0,1-1.465-.278c1.521-1.166,3.059-2.032,4.4-3.223a40.93,40.93,0,0,0,5.455-5.538,6.418,6.418,0,0,0,1.284-2.226c.228-1.35.929-2.614.755-4.038a11.586,11.586,0,0,0-.277-2.132,3.387,3.387,0,0,1,.181-2.3c.4-.924.1-2.058.389-3.125a33.273,33.273,0,0,1,2.007-4.377q2.661-2.575,5.323-5.148c.106-.1.251-.167.344-.277.535-.633,1.061-1.276,1.562-1.882,2.084,1.1,2.3,1.433,2.134,3.01A31.558,31.558,0,0,0,54.7,48.741c-.887,1.029-1.895,1.956-2.711,3.028a12.409,12.409,0,0,0-1.91,3.362c-.553,1.561-.465,3.233-1,4.784-.067.2-.067.549.054.651.447.377.219.852.283,1.282.072.483-.2,1.023.3,1.449a.656.656,0,0,1,.03.645,1.7,1.7,0,0,0-.308,1.6c.2,1.232-.749,2.181-.728,3.357,0,.191-.183.381-.261.579a12.06,12.06,0,0,1-2.838,3.843,16.051,16.051,0,0,1-1.989,1.525l-.289-.254-.594.594c1.919.411,3.675-.313,5.487-.286,1.263-1.263,2.568-2.494,3.785-3.807a17.956,17.956,0,0,0,2.947-3.975,6.322,6.322,0,0,0,1.083-3.033c-.008-.372.39-.752.659-1.229,0-1.841,0-3.8,0-5.765,0-.043.059-.094.1-.128a3.326,3.326,0,0,1,.376-.185c.488.975,1.427,1.654,1.959,2.853-.18,1.583.165,3.321-.317,5.08A49.671,49.671,0,0,1,57.1,69.9,9.8,9.8,0,0,1,55.1,72.593a18.981,18.981,0,0,0,2.75-.816,25.249,25.249,0,0,1,2.361-1.428c.793-.291,1.37-1.171,2.041-1.789,0-.6-.236-1.406.051-1.7.532-.546.025-1.229.521-1.73.575-.581-.245-1.094-.253-1.7M32.007,45.283l-.662,1.286.4.481-.713.5.575,1.1L30.27,50.154,28.125,51a6.387,6.387,0,0,1-1.2-.017,2.4,2.4,0,0,1-1.343-.467,8.58,8.58,0,0,0-2.8-1.927l-.108-1h-.79a9.212,9.212,0,0,1-.518-.9c-.276-.64-.6-1.234-.06-1.974.293-.4.231-1.045.389-1.561a3.966,3.966,0,0,1,.526-1.162,10.644,10.644,0,0,1,1.6-1.926,4.241,4.241,0,0,1,4.1-1.038c.367.107.745.175,1.218.284,2.136,1.332,3.416,3.226,2.876,5.974" transform="translate(-11.277 2.615)"/>
      <path id="パス_107" data-name="パス 107" class="cls-1" d="M650.22,75.7l-3.451.391c-.2-1.644.261-3.2-.426-4.758a5.333,5.333,0,0,1,1.595-.727c.853-.08.748-.892,1.129-1.187a2.248,2.248,0,0,0-1.651-1.627H644.3l.031.032-.242.283L643.98,68l.283-.242.033.033c.036-.1.054-.253.114-.271.65-.2,1.371.085,2.013-.382.166-.121.653.2.992.311l1.623-.8.439-.883a10.283,10.283,0,0,0-.625-1.875,22.128,22.128,0,0,0-1.961-3,10.1,10.1,0,0,0-2.464-1.925,4.424,4.424,0,0,0-3.112-.85l-.452.452c-.222,2.507.083,4.825,1.944,6.542l-.786,2.005a1.135,1.135,0,0,0-.09.1,4.8,4.8,0,0,1-2.881,1.824,5.491,5.491,0,0,1-3.284-.16,9.608,9.608,0,0,0-2.567-.361c0,.7.027,1.276-.006,1.85a2.55,2.55,0,0,0,1.1,2.143c.632.534,1.324,1,1.993,1.491h2.329l.6-.6h1.429c-1.107,1.373-.048,2.711-.165,4.037-2.208.163-4.353,1.091-6.437-.224h-3.494l-.422.422v1.9l4.614,5.36,2.886-.55c.181-.913.341-1.72.5-2.528a5.074,5.074,0,0,1,3.083-2.083c.856-.167,1.678-.442,2.563-.538a13.362,13.362,0,0,0,3.619-.856,19.835,19.835,0,0,1,3.444-.939,1.385,1.385,0,0,0-.61-1.7m-5.587-.718-.926,1.817c-.776.1-.651-.823-1.145-1.191V73.282l1.421-1.292h.867c.052.052.131.1.127.132-.12,1.037-.247,2.074-.344,2.863" transform="translate(-411.63 -35.332)"/>
      <path id="パス_116" data-name="パス 116" class="cls-1" d="M565.235,96.577a3.011,3.011,0,0,1-3-.974,7.815,7.815,0,0,1-2.183-3.132l.888-1.32h2.027a11.457,11.457,0,0,1,2.189,1.525,10.084,10.084,0,0,1,1.218,2.288l-1.135,1.613" transform="translate(-365.856 -56.93)"/>
      <text id="Resort_-_KUMANO_CLUB" data-name="Resort - KUMANO CLUB" class="cls-3" transform="translate(149.82 74.85)"><tspan x="-63.768" y="0">Resort - KUMANO CLUB</tspan></text>
      <text id="里創人" class="cls-4" transform="translate(150.164 13)"><tspan x="-14.4" y="0">里創人</tspan></text>
    </g>
  </g>
</svg>
