<svg xmlns="http://www.w3.org/2000/svg" width="31.999" height="32" viewBox="0 0 31.999 32">
  <defs>
    <style>
      .cls-1 {
        fill: #374149;
      }
    </style>
  </defs>
  <path id="前面オブジェクトで型抜き_4" data-name="前面オブジェクトで型抜き 4" class="cls-1" d="M11442.093,23281h0l-15.326,0a1.762,1.762,0,0,1-1.766-1.766v-28.469a1.759,1.759,0,0,1,1.766-1.764h28.467a1.759,1.759,0,0,1,1.767,1.764v28.469a1.762,1.762,0,0,1-1.767,1.766h-8.153v-12.393h4.159l.622-4.828h-4.781v-3.084a2.523,2.523,0,0,1,.444-1.7,1.609,1.609,0,0,1,.729-.482,3.691,3.691,0,0,1,1.219-.17l2.559,0v-4.318a34.283,34.283,0,0,0-3.728-.189,6.216,6.216,0,0,0-4.487,1.641,5.449,5.449,0,0,0-1.271,2,7.836,7.836,0,0,0-.452,2.74v3.563h-4.172v4.828h4.172V23281Z" transform="translate(-11425 -23249)"/>
</svg>
