<svg xmlns="http://www.w3.org/2000/svg" width="164" height="152" viewBox="0 0 164 152">
  <defs>
    <style>
      .cls-1 {
        fill: #fff;
      }

      .cls-2 {
        fill: #763d3b;
      }

      .cls-3 {
        fill: rgba(0,0,0,0);
      }

      .cls-4 {
        font-size: 5px;
        letter-spacing: 0.15em;
      }

      .cls-4, .cls-5 {
        font-family: ShipporiMincho-Regular, しっぽり明朝;
      }

      .cls-5 {
        font-size: 6px;
        letter-spacing: 0.3em;
      }
    </style>
  </defs>
  <g id="グループ_842" data-name="グループ 842" transform="translate(20121 10740)">
    <rect id="長方形_806" data-name="長方形 806" class="cls-1" width="164" height="152" transform="translate(-20121 -10740)"/>
    <path id="パス_102" data-name="パス 102" class="cls-2" d="M54.778,52.522c-.041-2.928.264-5.87-.268-8.781-.14-.765.3-1.456.271-2.178a43.575,43.575,0,0,0-.216-6.064,43.211,43.211,0,0,1-.335-5.758,12.692,12.692,0,0,0-.021-1.719,7.383,7.383,0,0,1-.03-2.928,8.945,8.945,0,0,0-.133-3.36c-.187-.635-.8-1.422-.108-2.165a5.445,5.445,0,0,1,.282-2.468c.038-.076.042-.243,0-.275-.4-.273-.283-.677-.273-1.039a7.317,7.317,0,0,0-.725-3.148,4.735,4.735,0,0,1-.448-1.832,14.992,14.992,0,0,0-.277-2.177c-.035-.21-.212-.392-.273-.6a21.542,21.542,0,0,1-1.179-4.115,1.286,1.286,0,0,0-.587-.879c-1.07-.564-2.1-1.177-3.13-1.817A4.369,4.369,0,0,0,44.289.589,1.623,1.623,0,0,1,43.3.574c-.759-.458-1.638,0-2.316-.308A7.381,7.381,0,0,0,38.5.029,21.1,21.1,0,0,0,35.171.28,19.649,19.649,0,0,0,32.421.6c-.3.056-.585.227-.888.274A19.259,19.259,0,0,0,27.4,2.21l-.544,1.2c-.962.517-2.179,2.533-2.6,4.334l-.468.136a3.743,3.743,0,0,1-.015,1.076c-.482,1.425-.961,2.856-1.549,4.238a5.86,5.86,0,0,0-.736,2.855,1.8,1.8,0,0,1-.394,1.475c-.281,1.149-.445,2.137-.774,3.066a5.263,5.263,0,0,0-.208,2.447c.6-.431.985-.949,1.568-1.3a6.872,6.872,0,0,0,1.348-1.562c.185-.218.372-.527.612-.591,1.017-.269,1.2-1.452,2.091-1.83.948-1.521,1.941-3.017,2.826-4.574a12.692,12.692,0,0,1,2.045-2.884c.648-.637,1.287-1.285,1.936-1.934h1.814l1.51,1.234c0,.264-.081.53.014.629.451.473.4,1.092.586,1.633a11.683,11.683,0,0,0,1.087,3,8.092,8.092,0,0,1,1.217,2.8,1.563,1.563,0,0,0,1.267,1.342,1.629,1.629,0,0,1,.182-.5c1.072-1.283,2.182-2.536,3.236-3.833a44.905,44.905,0,0,0,2.918-3.821,3.844,3.844,0,0,1,1.734-1.573l1.225,1.225c-.059.067-.163.13-.17.2-.059.606-.1,1.213-.157,1.934l.772.641a13.127,13.127,0,0,0,1.328,3.28c.2.29.583.449.842.709a9.322,9.322,0,0,1,.747.911c.03.04-.007.132-.024.308l-.973.3-.171.5-.3-.274-.479.321A5.823,5.823,0,0,1,49.52,18.4a7.975,7.975,0,0,1-1.633-2.622c-.088-.316-.446-.556-.655-.8l-.777.7c0,.213.082.483-.013.578-.727.734-1.249,1.68-2.232,2.157a1.534,1.534,0,0,0-.743.589,5.78,5.78,0,0,1-1.451,1.691,8.429,8.429,0,0,1-2.208,1.936c-.469,1.076-1.507,1.581-2.3,2.34-.267.257-.915.144-.816.772a3.831,3.831,0,0,1-2.433.694c-.294-.535-.906-.081-1.152-.291l-.429-.813c.913-.783,1.839-1.653,2.845-2.418a26,26,0,0,0,3.1-2.556c.082-.085.083-.247.152-.473l-.767-.058A11.352,11.352,0,0,1,35.8,16.777c-.664-1.114-.7-2.49-1.591-3.673-.043.34-.07.555-.105.837a10.707,10.707,0,0,1-1.776,2.033,8.437,8.437,0,0,0-2.48,2.566,10.808,10.808,0,0,1-1.432,1.7,23.439,23.439,0,0,0-3.158,3.426,1.462,1.462,0,0,1-.608.6,2.133,2.133,0,0,0-1.023,1c-.245.4-.9.55-1.136.952-.345.6-.912.763-1.4,1.109a3.107,3.107,0,0,1-1.812.581,19.771,19.771,0,0,1-1.517,4.538,4.64,4.64,0,0,1-.235,1.47c-.169.364.2.947.224,1.438.045.859-.03,1.725.025,2.582a5.124,5.124,0,0,1-.511,2.133c.091.595.18.989.207,1.387.14,2.064-.258,4.146.271,6.2a10.81,10.81,0,0,1,.032,1.716c.045.539.262,1.07.26,1.6a10.127,10.127,0,0,0,.793,3.7,4.1,4.1,0,0,1,.387,2,3.441,3.441,0,0,0,.68,2.145,14.393,14.393,0,0,0,1.569,1.852l2.081-.819a4.313,4.313,0,0,1,1.572-1.039A13.275,13.275,0,0,0,28.271,57.1c.384-.272.688-.61,1.133-.511,1.335-1.46,3.142-2.274,4.119-3.943.185-.422-.2-.937.264-1.339a.541.541,0,0,0,.04-.53,2.118,2.118,0,0,1-.252-1.758c.16-1.66-.442-3.259-.309-4.908.007-.1.042-.231-.006-.281-.341-.351-.312-.647-.109-1.109.146-.333-.274-.907-.138-1.255.359-.92.357-1.909.76-2.844a6.42,6.42,0,0,1,1.491-2.248c.4-.374.863-.682,1.3-1.022a13.517,13.517,0,0,1,1.411-1.1,12.5,12.5,0,0,0,3.5-2.633c.019-.023.1.016.138-.005a23.481,23.481,0,0,0,4.735-3.433h1.016L48.9,29.616a10.294,10.294,0,0,1-1.7,1.653c-1.477.879-3.118,1.495-4.27,2.862-.07.084-.278.039-.377.113-1.091.823-2.292,1.494-3.307,2.425a8.942,8.942,0,0,1-1.581,1.36A14.557,14.557,0,0,0,35.6,39.718c-.124.6-.252,1.087-.315,1.578a4.7,4.7,0,0,1-.256,1.766,1.758,1.758,0,0,0,.058,1.374,12.712,12.712,0,0,1,.429,1.972,5.575,5.575,0,0,1,.028,2.279c-.1.776.345,1.431.317,2.181-.037,1-.009,2.005-.009,3a3.984,3.984,0,0,0-1.169,1.681,1.957,1.957,0,0,1-1.268,1.311c-.279.131-.615.153-.875.308-.635.376-1.464.535-1.66,1.285a29.124,29.124,0,0,0-2.859,1.26,9.33,9.33,0,0,1-2.477,1.311c-.47.108-.835.507-1.4.473-.228-.014-.476.311-.859.584a12.476,12.476,0,0,0,1.453,1.029c.548.279,1.184.386,1.731.668a4.53,4.53,0,0,0,2.21.569c1.674-.028,3.348-.009,5.022-.009l-.165-.17.637-.219a3.73,3.73,0,0,0-1.21-.071,8.421,8.421,0,0,1-1.213-.231c1.259-.966,2.533-1.682,3.64-2.669A33.894,33.894,0,0,0,39.908,56.4a5.315,5.315,0,0,0,1.063-1.843c.189-1.118.77-2.165.625-3.344a9.594,9.594,0,0,0-.229-1.766,2.8,2.8,0,0,1,.15-1.9c.329-.765.083-1.7.322-2.588A27.552,27.552,0,0,1,43.5,41.328q2.2-2.132,4.408-4.263c.088-.084.208-.138.285-.23.443-.525.878-1.056,1.294-1.559,1.725.911,1.9,1.187,1.767,2.492a26.133,26.133,0,0,0-2.988,2.593c-.735.852-1.569,1.62-2.245,2.508a10.275,10.275,0,0,0-1.581,2.784c-.458,1.293-.385,2.677-.828,3.962-.056.162-.055.455.045.539.37.312.182.705.235,1.062.059.4-.165.847.247,1.2a.543.543,0,0,1,.025.534,1.41,1.41,0,0,0-.255,1.328c.169,1.02-.62,1.806-.6,2.78,0,.158-.152.315-.216.48a9.987,9.987,0,0,1-2.35,3.182,13.291,13.291,0,0,1-1.647,1.263l-.239-.21-.492.492c1.589.34,3.043-.259,4.544-.237,1.046-1.046,2.126-2.065,3.134-3.152a14.869,14.869,0,0,0,2.44-3.292,5.235,5.235,0,0,0,.9-2.512c-.006-.308.323-.622.546-1.017,0-1.524,0-3.149,0-4.774,0-.036.049-.078.083-.106a2.753,2.753,0,0,1,.311-.153c.4.807,1.181,1.37,1.622,2.363-.149,1.311.137,2.75-.263,4.207a41.131,41.131,0,0,1-1.424,4.3,8.112,8.112,0,0,1-1.662,2.228,15.717,15.717,0,0,0,2.277-.675,20.909,20.909,0,0,1,1.955-1.182c.657-.241,1.134-.969,1.69-1.481,0-.5-.2-1.165.042-1.409.44-.452.021-1.017.432-1.432.476-.482-.2-.906-.21-1.41M29.472,37.5l-.548,1.065.332.4-.591.413.476.91-1.107,1.248-1.776.7a5.289,5.289,0,0,1-.994-.014,1.985,1.985,0,0,1-1.112-.387,7.1,7.1,0,0,0-2.322-1.6l-.09-.831h-.654a7.628,7.628,0,0,1-.429-.745c-.229-.53-.5-1.022-.05-1.635.243-.33.191-.865.322-1.293a3.285,3.285,0,0,1,.436-.962,8.813,8.813,0,0,1,1.321-1.6,3.512,3.512,0,0,1,3.4-.859c.3.088.617.145,1.009.235A4.48,4.48,0,0,1,29.472,37.5" transform="translate(-20076.324 -10719.388)"/>
    <g id="グループ_841" data-name="グループ 841" transform="translate(-250.715 61.246)">
      <path id="前面オブジェクトで型抜き_1" data-name="前面オブジェクトで型抜き 1" d="M10.842,19.526h0a1.123,1.123,0,0,1,.207-.815c.383-.644.834-1.253,1.269-1.843.4-.537.808-1.092,1.166-1.672a4.327,4.327,0,0,0,.527-1.291,9.273,9.273,0,0,0,.194-1.523,12.217,12.217,0,0,0,0-1.509,3.932,3.932,0,0,0-.089-.557,4.41,4.41,0,0,1-.085-.5,5.855,5.855,0,0,1-.01-.7c0-.07,0-.131,0-.181l-.241-.584-.1-.248-.311-.754-.419.156-.173.064-.44.164-.128.048a1.514,1.514,0,0,0-.392.7c-.137.4-.267.778-.856.779a3.4,3.4,0,0,1-.981-1.088,6.434,6.434,0,0,1-.564-1.344l-.167.326-.08.156-.205.4a1.44,1.44,0,0,1-1.04-.891,3.311,3.311,0,0,0-.357-.535l.056-.413.019-.138.018-.131.089-.652H7.74l-.762-.05L6.6,5.34l-.128.147-.17.2V7.017l.42-.268.066-.042.294-.188.533.513L7.8,7.2c-.032.048-.064.1-.1.152l0,0a2.727,2.727,0,0,1-.283.4,1.352,1.352,0,0,1-.528.416c-.422.128-.587.467-.778.86L6.1,9.05v.707c.1.085.2.167.3.248a5.7,5.7,0,0,1,1.027.987c.055.406-.246.542-.566.686h0a1.166,1.166,0,0,0-.642.493.993.993,0,0,0,.462.11,2.282,2.282,0,0,0,.58-.1l.009,0a2.177,2.177,0,0,1,.558-.1.88.88,0,0,1,.275.042,1.29,1.29,0,0,0,.164.167.613.613,0,0,1,.272.638,3.473,3.473,0,0,1-.989.885,6.025,6.025,0,0,1-1.254.563,8.2,8.2,0,0,0-1.21.557l-.015.008c-.14.074-.285.15-.429.222-.072.036-.183.118-.194.2-.052.363-.314.472-.567.578a2.025,2.025,0,0,0-.263.125A2.551,2.551,0,0,1,2.6,14.867a4.24,4.24,0,0,1-.289-1.534l.273-.147.095-.051L2.925,13l.4.367.3-.1L5,12.808l.118-.039v-.855L4.6,11.646l-.683-.35-.151-.077-.7-.694a.482.482,0,0,1,.084-.327.531.531,0,0,1,.4-.182,1.273,1.273,0,0,0,.354-.1h0a1.159,1.159,0,0,1,.418-.1.621.621,0,0,1,.094.007,2.187,2.187,0,0,0,.325.021c.081,0,.162,0,.248-.005h.021c.093,0,.188-.006.287-.006V8.974c-.058-.024-.118-.054-.181-.087l-.007,0a1.357,1.357,0,0,0-.487-.177,2.57,2.57,0,0,1-1.449-.592A6.949,6.949,0,0,1,2.12,6.958a6.446,6.446,0,0,1-.9-1.614,2.153,2.153,0,0,0-.278-.46h0A1.536,1.536,0,0,1,.6,4.18,2.162,2.162,0,0,0,.38,3.561a2.694,2.694,0,0,1-.2-.518,6.6,6.6,0,0,1-.13-.958C.032,1.931.019,1.773,0,1.608l.16-.122.3-.23.654-.5a3.17,3.17,0,0,1,2,1.053,4.851,4.851,0,0,1,.932,1.957H5.268l.1-.1.042-.042L5.5,3.531V1.766L5.887,1.7l.246-.042c-.053-.056-.11-.113-.155-.158A1.537,1.537,0,0,1,5.345.243,2.7,2.7,0,0,1,5.908.195C6,.195,6.1.2,6.2.2h.01c.112,0,.2.006.3.006h.114L6.8.2c.167,0,.375-.01.572-.01.215,0,.4.007.57.02a8.3,8.3,0,0,1,.871.133L8.84.348c.128.024.26.048.4.071a.876.876,0,0,1,.232.223.692.692,0,0,0,.512.329,1.582,1.582,0,0,1,.266,1.147c-.048.072-.1.137-.148.2a.991.991,0,0,0-.217.369c-.066.3-.154.6-.238.89v0A5.172,5.172,0,0,0,9.339,6a1.354,1.354,0,0,1,.268-.028,1.275,1.275,0,0,1,.969.5l.7-.11,1.378-.215,2.094-.327c0-.024.005-.056.009-.087.009-.073.018-.148,0-.152-.689-.23-.808-.816-.914-1.334l-.018-.087c-.069-.1-.133-.2-.194-.294l0,0a6.271,6.271,0,0,0-.4-.565,5.653,5.653,0,0,0-.665-.669c-.12-.1-.25-.2-.376-.3l0,0h0a4.053,4.053,0,0,1-.594-.511,3.334,3.334,0,0,1-.425-.671c-.056-.105-.119-.225-.188-.342l.3-.609a2.758,2.758,0,0,0,.974.225,1.436,1.436,0,0,0,.684-.169A.45.45,0,0,1,13.114.2c.3-.021.6-.041.886-.058l.025,0c.6-.039,1.228-.079,1.841-.135C15.925,0,15.985,0,16.043,0A3.489,3.489,0,0,1,17.5.429l0,0c.124.058.253.117.38.171a.885.885,0,0,1,.338.408,2.478,2.478,0,0,0,.138.228,5.962,5.962,0,0,0-1.578,1.321,11.392,11.392,0,0,0-1.211,1.757c-.064.458-.145,1.048-.217,1.568l.527-.165.031-.01a5.716,5.716,0,0,1,1.543-.372,3.833,3.833,0,0,1,1.316.363l.449.169.321.648c-.077.051-.15.105-.221.158h0a2.211,2.211,0,0,1-.463.288,2.9,2.9,0,0,0-.821.5,4.061,4.061,0,0,0-.648.739l-.127.181c-.4.561-.8,1.141-1.2,1.729a2.183,2.183,0,0,1-.6.53c-.1.07-.207.142-.3.219.019.078.042.158.065.235h0a2.183,2.183,0,0,1,.11.529c.017.485.014.979.011,1.457,0,.2,0,.412,0,.618a1.8,1.8,0,0,1-.013.182.587.587,0,0,0,.033.372.978.978,0,0,1-.03,1.139,2.375,2.375,0,0,0-.181.446l-.685.035c-.063.066-.14.133-.214.2l0,0a1.016,1.016,0,0,0-.386.481c-.04.208-.178.251-.312.291-.118.036-.23.07-.28.21a1.92,1.92,0,0,1-.523.722c-.343.312-.708.608-1.061.895-.137.111-.291.236-.44.359l.046.046.028.028-.363.308-.02.017-.1.085ZM16.41,6.836a6.345,6.345,0,0,0-1.524.176,2.35,2.35,0,0,0-.98.445l.645.4.064.04,1.048.65c.032-.2.06-.369.089-.541l.21-.208h0c.188-.185.383-.377.565-.578a.655.655,0,0,0,.114-.238c.015-.045.031-.092.05-.14C16.6,6.838,16.508,6.836,16.41,6.836ZM4.108,4.582h0a3.392,3.392,0,0,0,0,2.832l.454-.1L4.9,7.235l.382-.087.084-.6.058-.415.051-.363L4.108,4.582ZM6.493,1.863V3.409a.5.5,0,0,0,.57.383l.087,0a3,3,0,0,1,.449.069c.075.015.148.03.224.044a1.493,1.493,0,0,1,.054-.852A1.547,1.547,0,0,0,7.9,2.02l-.232-.026-.16-.018L6.493,1.863Zm8.356-.011-.739.4.1.1.036.038.292.311c.306-.155.484-.31.428-.6a.536.536,0,0,0-.065-.15c-.015-.027-.033-.06-.051-.1Z" transform="translate(-19820.477 -10701.121)"/>
      <path id="前面オブジェクトで型抜き_1_-_アウトライン" data-name="前面オブジェクトで型抜き 1 - アウトライン" class="cls-3" d="M10.495,20.753l-.147-1.147a1.652,1.652,0,0,1,.271-1.151,22.787,22.787,0,0,1,1.3-1.883c.392-.53.8-1.076,1.144-1.639a3.827,3.827,0,0,0,.466-1.142,8.831,8.831,0,0,0,.182-1.441,11.712,11.712,0,0,0,0-1.447,3.512,3.512,0,0,0-.079-.485,4.865,4.865,0,0,1-.093-.555,6.27,6.27,0,0,1-.012-.758q0-.038,0-.072l-.431-1.045-.6.225a1.512,1.512,0,0,0-.2.434,1.338,1.338,0,0,1-1.328,1.117H10.8l-.13-.092A3.892,3.892,0,0,1,9.55,8.43c-.069-.118-.135-.242-.2-.374l-.109.213-.361-.06a1.624,1.624,0,0,1-.87-.418,2.482,2.482,0,0,1-.231.3,1.757,1.757,0,0,1-.752.558c-.179.054-.27.189-.431.515v.356l.11.089.006,0a6.2,6.2,0,0,1,1.11,1.071l.081.106.018.132a.973.973,0,0,1-.117.653,1.388,1.388,0,0,1,.449.066l.15.048.1.125a1.027,1.027,0,0,0,.1.1,1.1,1.1,0,0,1,.427,1.109l-.022.11-.068.09A3.963,3.963,0,0,1,7.81,14.236a6.512,6.512,0,0,1-1.357.611,7.824,7.824,0,0,0-1.135.525l-.026.013c-.125.066-.253.133-.383.2a1.244,1.244,0,0,1-.837.812,1.662,1.662,0,0,0-.2.092l-.265.16-.261-.166a3.035,3.035,0,0,1-1.209-1.42,4.715,4.715,0,0,1-.328-1.712l-.01-.31L3,12.393l.262.243.179.166,1.179-.394v-.189l-1.154-.591-.055-.055-.7-.694-.133-.132-.013-.187a.966.966,0,0,1,.186-.666,1.008,1.008,0,0,1,.761-.377.922.922,0,0,0,.2-.063l.01,0a1.6,1.6,0,0,1,.6-.137,1.123,1.123,0,0,1,.169.013,1.705,1.705,0,0,0,.249.015H4.8V9.286a.739.739,0,0,0-.216-.081,3.055,3.055,0,0,1-1.723-.7A7.339,7.339,0,0,1,1.726,7.266,6.934,6.934,0,0,1,.759,5.529a1.708,1.708,0,0,0-.211-.34L.54,5.177a1.991,1.991,0,0,1-.434-.931,1.8,1.8,0,0,0-.178-.471,3.122,3.122,0,0,1-.239-.616A6.967,6.967,0,0,1-.452,2.128c-.013-.151-.027-.306-.045-.465l-.032-.282L.984.23,1.2.264a3.65,3.65,0,0,1,2.3,1.221,4.932,4.932,0,0,1,.927,1.783H5V1.344l.148-.025A1.644,1.644,0,0,1,4.847.2L4.878-.17l.365-.076a3.174,3.174,0,0,1,.665-.059c.1,0,.2,0,.294.005H6.22c.117,0,.2.005.287.005h.1l.178,0c.151,0,.377-.01.586-.01.228,0,.427.007.61.022a8.661,8.661,0,0,1,.923.14l.031.006c.117.022.252.047.386.07L9.4-.059l.074.04a1.308,1.308,0,0,1,.378.344.816.816,0,0,0,.139.147H10l.237.01.142.19q.033.045.064.091l.091-.186.293-.6.209-.425.427.165a2.321,2.321,0,0,0,.793.192A.935.935,0,0,0,12.711-.2a.928.928,0,0,1,.367-.1c.3-.021.607-.041.891-.059h.021c.6-.039,1.221-.078,1.83-.134.076-.007.151-.01.224-.01a3.932,3.932,0,0,1,1.669.475l.007,0c.111.051.24.111.362.163a1.279,1.279,0,0,1,.58.625c.037.066.075.134.108.182l.321.451-.481.274a5.472,5.472,0,0,0-1.446,1.213,10.674,10.674,0,0,0-1.108,1.6l-.1.689a5.12,5.12,0,0,1,1.5-.334,4.173,4.173,0,0,1,1.493.4L19.4,5.4l.186.069.6,1.22-.366.244c-.065.043-.129.091-.2.144l-.007.005a2.6,2.6,0,0,1-.566.345,2.4,2.4,0,0,0-.682.419,3.574,3.574,0,0,0-.568.65l-.127.181c-.373.529-.8,1.129-1.188,1.718a2.594,2.594,0,0,1-.734.664l-.006,0,0,0a2.279,2.279,0,0,1,.1.548c.018.5.015,1,.012,1.478,0,.2,0,.41,0,.615a2.2,2.2,0,0,1-.015.233c0,.031-.007.072-.009.1a1.472,1.472,0,0,1-.035,1.576,1.992,1.992,0,0,0-.146.35l-.091.358-.369.018-.5.026-.1.086-.068-.077h-.006l.069.08a1.654,1.654,0,0,0-.225.216.851.851,0,0,1-.645.653,2.516,2.516,0,0,1-.619.826c-.353.322-.724.623-1.083.913l-.011.009.067.067-.86.73Zm4.224-9.6c.016.424.011.848-.014,1.262a9.72,9.72,0,0,1-.206,1.606,4.826,4.826,0,0,1-.589,1.44c-.206.334-.427.656-.651.971.052-.022.1-.037.139-.049a1.527,1.527,0,0,1,.528-.676l.006,0c.062-.054.129-.112.174-.159l.137-.146.23-.012.327-.017c.029-.064.058-.124.086-.182.179-.368.2-.449.071-.631a1,1,0,0,1-.122-.712c.005-.049.01-.1.01-.13,0-.208,0-.419,0-.623,0-.472.006-.961-.011-1.436a1.815,1.815,0,0,0-.09-.406V11.24ZM2.828,13.622a3.369,3.369,0,0,0,.232,1.05,2.005,2.005,0,0,0,.606.809l.02-.008c.253-.106.256-.123.265-.187a.832.832,0,0,1,.465-.574c.136-.068.275-.141.41-.212l.026-.014A8.561,8.561,0,0,1,6.136,13.9a5.537,5.537,0,0,0,1.151-.514,3.051,3.051,0,0,0,.746-.628c-.026-.028-.071-.069-.1-.1s-.055-.05-.085-.079a1.7,1.7,0,0,0-.446.082l-.01,0a2.711,2.711,0,0,1-.708.118,1.5,1.5,0,0,1-.689-.165l-.369-.188v.7L3.2,13.938l-.217-.2-.135-.125Zm1.236-2.813,1.559.8v.646l.146-.3a1.29,1.29,0,0,1,.508-.539l-.024-.092.441-.117c.062-.028.134-.062.187-.092a6.067,6.067,0,0,0-.792-.718l-.006-.005c-.091-.073-.186-.149-.28-.228v.166H5.3c-.089,0-.179,0-.266.006H5.01c-.093,0-.177.006-.265.006a2.669,2.669,0,0,1-.4-.026l-.02,0a.8.8,0,0,0-.229.067l-.01,0a2.132,2.132,0,0,1-.343.108ZM14.3,8.286l.228.553v.1c0,.054,0,.119,0,.194a5.459,5.459,0,0,0,.009.639,4.043,4.043,0,0,0,.076.441c.026.124.054.258.074.4l.169-.135c.108-.086.219-.163.326-.236l.006,0a1.87,1.87,0,0,0,.469-.4c.112-.168.226-.336.34-.5l-.59-.366-1.047-.649Zm1.924-.04-.062.38-.1.612c.272-.4.545-.782.8-1.137l.127-.181a4.55,4.55,0,0,1,.729-.829,3.386,3.386,0,0,1,.961-.59,1.247,1.247,0,0,0,.238-.142l-.045-.091-.266-.1a3.557,3.557,0,0,0-1.139-.331,5.626,5.626,0,0,0-1.393.349l-.031.01-.53.165-.168.052a7.305,7.305,0,0,1,1.074-.078c.1,0,.2,0,.3.006l.715.03-.274.661c-.013.031-.025.067-.037.1a1.1,1.1,0,0,1-.218.417c-.193.212-.393.409-.586.6l-.017.016ZM9.843,6.519l.052.165a5.959,5.959,0,0,0,.518,1.24,2.968,2.968,0,0,0,.7.825c.088-.032.134-.13.236-.425a1.959,1.959,0,0,1,.539-.92l.068-.058,1.695-.633.1.235a3.3,3.3,0,0,1,1.019-.423l.029-.21-.425.066-1.634.255-2.348.367L10.2,6.8A1.1,1.1,0,0,0,9.843,6.519ZM5.34,8.438l.009,0c.053.028.1.054.142.069l.263.107a1.621,1.621,0,0,1,.986-.924,1.283,1.283,0,0,0,.3-.274,1.35,1.35,0,0,0,.11-.141l-.131-.126L5.8,7.93V7.01l-.077.548-1.854.423a2,2,0,0,0,.793.228A1.792,1.792,0,0,1,5.34,8.438Zm-4-3.86.009.012a2.582,2.582,0,0,1,.338.568,5.958,5.958,0,0,0,.825,1.491,6.573,6.573,0,0,0,.978,1.077A2.45,2.45,0,0,0,3.8,7.94L3.655,7.62a3.858,3.858,0,0,1-.023-3.192l.052-.161H3.662l-.1-.37a4.383,4.383,0,0,0-.828-1.761,2.611,2.611,0,0,0-1.492-.846l-.717.546c.006.07.012.138.018.206a6.249,6.249,0,0,0,.118.886,2.309,2.309,0,0,0,.169.418,2.582,2.582,0,0,1,.266.768A1.071,1.071,0,0,0,1.341,4.578ZM14.946,7.513l.366.227.087-.087.2-.2.026-.026.055-.054a5.173,5.173,0,0,0-.669.12ZM8.091,6.148c.1.145.189.292.266.427a1.828,1.828,0,0,0,.368.512l.12-.233.127-.247.013-.026-.045.009-.093-.5a5.637,5.637,0,0,1,.315-2.65l0-.006c.082-.28.167-.572.229-.855a1.415,1.415,0,0,1,.312-.57l.052-.067a1.131,1.131,0,0,0-.09-.526A1.323,1.323,0,0,1,9.084.962L9.024.89,8.749.84,8.718.834A7.931,7.931,0,0,0,7.9.708C7.745.7,7.571.69,7.37.69S6.965.7,6.812.7L6.626.7H6.507c-.1,0-.188,0-.313-.006H6.176c-.078,0-.159,0-.238,0a2.666,2.666,0,0,0,.393.454c.047.047.107.107.163.166l.049.052h.005l.938.1.763.085.112.276a2,2,0,0,1,0,1.349,1.078,1.078,0,0,0-.061.576l.246.786L8.316,4.5ZM4.38,5.481a2.446,2.446,0,0,0,.038,1.35l.415-.094.108-.768ZM6.8,5.869V6.1l.311-.2.064-.47Zm2.984-.388a1.7,1.7,0,0,1,.961.456l1.83-.286,1.2-.187a2.761,2.761,0,0,1-.415-1.109c-.049-.073-.094-.144-.139-.212l-.007-.01a5.906,5.906,0,0,0-.364-.52A5.183,5.183,0,0,0,12.244,3c-.1-.092-.226-.183-.344-.272l-.015-.011a4.465,4.465,0,0,1-.66-.574,3.76,3.76,0,0,1-.494-.77l-.055-.1a2.4,2.4,0,0,1,.068.9l-.012.124-.069.1c-.059.089-.118.165-.171.232a1.3,1.3,0,0,0-.124.174c-.069.312-.159.619-.245.916l0,.005A6.013,6.013,0,0,0,9.788,5.481ZM4.507,4.267,5.8,5.392l.053.046L6.763,4.39l.248.016.754.049.355.012L7.736,4.4c-.081-.014-.158-.03-.237-.046a2.606,2.606,0,0,0-.374-.06l-.069,0a.98.98,0,0,1-1.038-.723L6,3.525v.213l-.281.281-.1.1-.146.146Zm9.542-.686.007.01c.062.095.123.19.189.286l.056.082.039.186c.116.571.207.834.582.959l.036.014c.043-.308.085-.611.121-.872l.014-.1.049-.085a11.868,11.868,0,0,1,1.265-1.833,6.68,6.68,0,0,1,1.275-1.158l-.019-.025C17.535,1,17.409.937,17.3.885l-.007,0A3.066,3.066,0,0,0,16.043.5c-.043,0-.088,0-.134.006-.621.057-1.247.1-1.853.136l-.022,0c-.285.018-.586.037-.883.058a1.922,1.922,0,0,1-.892.214,2.593,2.593,0,0,1-.695-.1l.051.1a2.94,2.94,0,0,0,.356.572,3.624,3.624,0,0,0,.52.444l.011.008c.134.1.269.2.4.319a6.125,6.125,0,0,1,.722.728A6.661,6.661,0,0,1,14.049,3.581ZM6.993,3.289l.081,0,.1,0c.046,0,.092.006.136.011.022-.131.055-.256.086-.376a2.16,2.16,0,0,0,.086-.453l-.1-.012-.383-.043Zm7.435.028-1.13-1.2.576-.308.738-.4.461-.247.226.472c.013.027.027.052.038.072a.986.986,0,0,1,.117.3,1.056,1.056,0,0,1-.693,1.142Z" transform="translate(-19820.477 -10701.121)"/>
      <path id="パス_16" data-name="パス 16" d="M403.7,80.5l-.282-.73c-.62.074-.986-.451-1.417-.873v-.4l-.358-.123-.281-1.436-.291-.291a1.516,1.516,0,0,1,.145-.772c.42-.76.711-1.591,1.1-2.372.3-.6.669-1.169.991-1.76a27,27,0,0,0,1.526-3.9,4.658,4.658,0,0,1,.535-1.385c.064-.083.032-.238.051-.418.345-.262.583-.7,1.07-.909.184-.077.433-.172.5-.095.3.316.658.088.984.2l1.011,1.011a2.157,2.157,0,0,0,.354,1.527c.182.21-.125.675.213.94a15.839,15.839,0,0,0,.175,2.375,3.543,3.543,0,0,1-.237.9c-.5.258-1.052.528-1.585.828-.113.064-.149.251-.243.363-.358.426-.545,1.006-1.147,1.217-.156.055-.264.249-.437.422l1,1.054a5.478,5.478,0,0,1,.191,1.009,4.607,4.607,0,0,1-.2.977,4.688,4.688,0,0,1,2.19-.57c.44.008.881,0,1.321,0,.291-.425.788-.1,1.188-.338s1.009-.106,1.5-.24a12.412,12.412,0,0,1,2.849-.18,1.469,1.469,0,0,0,.427-.1,1.115,1.115,0,0,1,.961.025.657.657,0,0,0,.522.068c.6-.366,1.162-.106,1.739.014l.091.016.173.358.2-.2.3,1.058a5.25,5.25,0,0,1-2.019.275c-.232-.021-.437-.178-.7-.011-.187.118-.411-.237-.7-.008-.155.122-.486.022-.738.022a2.691,2.691,0,0,0-.844.013c-.98.344-2.034.306-3.022.668a6.888,6.888,0,0,0-1.749.807,1.721,1.721,0,0,1-1.57.127,3.548,3.548,0,0,0-1.062-.241l-.993-1.051v5.05c-.894.142-1.034.073-1.543-.764a6.477,6.477,0,0,1,.024-1.646,18.844,18.844,0,0,0,.172-3.229,4.778,4.778,0,0,0-.283-1.5l-.318.41.186.343-1.48,3.451-.189.011" transform="translate(-20200.148 -10765.568)"/>
      <path id="パス_17" data-name="パス 17" d="M453,65.265h.557c.6.7.406,1.557.455,2.445a10.434,10.434,0,0,1,1.1.008,10.876,10.876,0,0,1,1.123.239l.374.391-.4.813a1.88,1.88,0,0,1-2.372-.5c.053.348-.095.649.092,1,.126.236-.016.615-.051,1.107.077.208.5.273.7.122.4-.305.918.016,1.292-.338a.541.541,0,0,1,.522.041c.288.263.6.065.921.151.492-1.225.186-2.492.294-3.8a3.55,3.55,0,0,1-3.6-1.475v-.732a1.064,1.064,0,0,0,.321-.053,2.025,2.025,0,0,1,2.233.39c.289.2.585.4.964.654l.3-1.838a3.66,3.66,0,0,0-2.07-.938l-.588-.665.526-.744a8.581,8.581,0,0,0,1.857-.348c.551-.238.935.065,1.347.211a3.2,3.2,0,0,1,.929.712,3.4,3.4,0,0,1,1.139,1.675v.919l-1.263.429a7.168,7.168,0,0,0-.794,3.683c.014.408,0,.818,0,1.226a2.857,2.857,0,0,0,.222,1.586l-.515.786c-.53.073-.73-.3-.917-.762-.589.129-1.191.248-1.787.393a2.047,2.047,0,0,1-1.792-.042l-.561.78h-.829l-.576-.769c-.081-.583-.181-1.117-.222-1.656a2.531,2.531,0,0,1,.07-1.1,3.192,3.192,0,0,0,.1-1.087,5.41,5.41,0,0,1,.024-1.126c.189-.635.148-1.4.868-1.79" transform="translate(-20241.395 -10762.399)"/>
      <path id="前面オブジェクトで型抜き_2" data-name="前面オブジェクトで型抜き 2" d="M8.129,12.668h0a1.336,1.336,0,0,1-.826-.391,3.2,3.2,0,0,1-.519-.759H6.73l-.1,0h0l-.1,0a.332.332,0,0,0-.19.043,1.427,1.427,0,0,1-.861.271,3.964,3.964,0,0,1-.85-.127h0l-.212-.047a.711.711,0,0,1-.157-.062h0a.655.655,0,0,0-.165-.063.781.781,0,0,0-.14-.011c-.047,0-.088,0-.11,0l-.034,0-.469.3-.079.05-.4.251a2.7,2.7,0,0,1-1.381-.946l0,0c-.143-.152-.292-.31-.45-.447-.1-.266-.21-.533-.317-.791A11.565,11.565,0,0,1,.132,8.3a3.864,3.864,0,0,1-.06-1.733A4.475,4.475,0,0,1,1.4,5.05,12.912,12.912,0,0,1,3.1,4.025c.187-.1.37-.2.548-.3a2.054,2.054,0,0,1-.112-.524c-.041-.334-.08-.65-.461-.774a4.478,4.478,0,0,1-.018-.709A2.631,2.631,0,0,0,2.949.686C3.364.186,3.654,0,4.018,0a2.111,2.111,0,0,1,.794.2l.037-.03L4.9.135,4.951.093,5.045.018c.105.094.218.192.309.271l0,0c.239.208.486.423.715.652.071.071.148.143.216.207a2.519,2.519,0,0,1,.667.82,3.778,3.778,0,0,1,.161.581,3.026,3.026,0,0,0,.238.755l-.229.459-.431.865.5.348.187.129.1.068.481.333c0,.094,0,.188,0,.278h0c0,.2,0,.383,0,.57a5.6,5.6,0,0,0,.346,2.023.766.766,0,0,1,.029.239c0,.041,0,.084.005.124.019.2.028.407.038.607a5.369,5.369,0,0,0,.182,1.377A3.761,3.761,0,0,1,8.7,11.8c.005.185.01.377.031.568l-.6.3Zm-3.4-2.284a6.734,6.734,0,0,1,1.974.242l-.256-.7L6.43,9.884l.124-.031.336-.083c-.027-.208-.044-.417-.061-.619a5.417,5.417,0,0,0-.212-1.3,4.257,4.257,0,0,1-.163-.793,3.889,3.889,0,0,0-.34-1.271l-.067-.045,0,0c-.117-.079-.314-.21-.518-.332a.48.48,0,0,0-.257-.051H5.208a.653.653,0,0,1-.243-.034.268.268,0,0,0-.1-.016,1.148,1.148,0,0,0-.386.11l-.01,0c-.057.023-.116.047-.17.065l-.115.038a9.811,9.811,0,0,0-1.335.509,3.127,3.127,0,0,0-1.1.869V8.2c.1.206.182.4.264.594a4.755,4.755,0,0,0,.937,1.591c.188.011.386.017.623.017.191,0,.389,0,.564-.007h.027C4.349,10.386,4.539,10.383,4.729,10.383Z" transform="translate(-19771.947 -10701.872)"/>
      <path id="前面オブジェクトで型抜き_2_-_アウトライン" data-name="前面オブジェクトで型抜き 2 - アウトライン" class="cls-3" d="M8.248,13.168H8.1l-.027,0a1.842,1.842,0,0,1-1.124-.533,2.948,2.948,0,0,1-.444-.586,1.942,1.942,0,0,1-1.027.282,4.335,4.335,0,0,1-.943-.136l-.018,0-.206-.045a1.115,1.115,0,0,1-.257-.094l-.018-.009-.045-.022-.028,0-.357.226-.078.05-.4.251-.175.111-.2-.045a3.145,3.145,0,0,1-1.637-1.092l0-.005C.981,11.372.844,11.225.7,11.1l-.1-.083L.564,10.9c-.1-.258-.205-.52-.31-.774a11.937,11.937,0,0,1-.608-1.71A4.353,4.353,0,0,1-.418,6.464L-.4,6.4l.032-.062A4.963,4.963,0,0,1,1.1,4.651,13.272,13.272,0,0,1,2.863,3.585l.2-.109c-.011-.072-.02-.141-.028-.208-.041-.335-.061-.341-.121-.361l-.3-.1L2.579,2.5a4.94,4.94,0,0,1-.022-.787A2.233,2.233,0,0,0,2.481.861l-.1-.272L2.564.366A1.914,1.914,0,0,1,4.018-.5a2.152,2.152,0,0,1,.705.135l.338-.273.317.283c.1.093.215.189.3.267.248.216.5.436.743.677.063.063.135.13.2.189L6.63.785a2.927,2.927,0,0,1,.789,1,4.219,4.219,0,0,1,.185.658,2.624,2.624,0,0,0,.193.632l.118.226-.387.776-.194.389,1.128.78v.262c0,.092,0,.183,0,.271,0,.206,0,.4,0,.593A5.111,5.111,0,0,0,8.78,8.216a1.21,1.21,0,0,1,.056.4c0,.032,0,.064,0,.086.02.212.03.425.039.631a5.011,5.011,0,0,0,.159,1.247,4.214,4.214,0,0,1,.159,1.21c0,.175.01.356.028.527l.038.346-.311.156-.6.3ZM7.238,11.309a2.686,2.686,0,0,0,.416.612.819.819,0,0,0,.4.226L8.2,12.07c0-.087-.006-.172-.008-.257a3.33,3.33,0,0,0-.112-.933,5.742,5.742,0,0,1-.205-1.506c-.009-.194-.018-.395-.036-.584-.006-.06-.006-.115-.007-.163,0-.03,0-.072,0-.091a6.083,6.083,0,0,1-.37-2.194c.005-.179,0-.36,0-.552v-.02L6.054,4.8l.193-.387.387-.777L6.8,3.293a4.529,4.529,0,0,1-.174-.633,3.423,3.423,0,0,0-.138-.5,2.21,2.21,0,0,0-.544-.641l-.008-.007c-.068-.064-.146-.137-.219-.21C5.5,1.081,5.262.872,5.03.671L4.894.78,4.619.666A1.7,1.7,0,0,0,4.018.5c-.112,0-.245.027-.513.31a3.768,3.768,0,0,1,.052.927c0,.13-.007.256,0,.38a1.375,1.375,0,0,1,.48,1.027,1.672,1.672,0,0,0,.08.4l.166.411-.388.214c-.173.1-.347.189-.554.3A12.54,12.54,0,0,0,1.7,5.45,4.019,4.019,0,0,0,.548,6.735,3.415,3.415,0,0,0,.617,8.179a11.2,11.2,0,0,0,.56,1.565c.093.225.189.457.279.691.141.131.272.27.389.4l0,0a2.613,2.613,0,0,0,.937.742l.206-.13.078-.05.469-.3.123-.078h.144c.031,0,.084-.006.145-.006a1.28,1.28,0,0,1,.23.02,1.088,1.088,0,0,1,.287.1l.007,0,.052.024.194.043.015,0a3.553,3.553,0,0,0,.741.115.931.931,0,0,0,.57-.177.7.7,0,0,1,.258-.115,6.761,6.761,0,0,0-1.579-.153c-.184,0-.367,0-.555.007H4.147c-.157,0-.371.007-.574.007-.248,0-.456-.006-.653-.018l-.185-.011-.133-.13A5.19,5.19,0,0,1,1.555,8.989C1.474,8.8,1.39,8.61,1.3,8.407l-.047-.1V6.729l.105-.135A3.614,3.614,0,0,1,2.628,5.585a10.177,10.177,0,0,1,1.4-.537l.115-.038c.042-.014.1-.036.14-.053L4.3,4.952a1.519,1.519,0,0,1,.572-.146.766.766,0,0,1,.272.048.555.555,0,0,0,.067,0h.059a.966.966,0,0,1,.514.122c.217.13.427.27.54.346l.18.12.06.12a4.357,4.357,0,0,1,.387,1.423,3.835,3.835,0,0,0,.142.7,5.874,5.874,0,0,1,.237,1.421c.016.2.033.4.058.6l.057.443-.351.086.426,1.157ZM4.729,9.883a9.081,9.081,0,0,1,1.193.067l-.153-.418.58-.143q-.009-.1-.017-.2a4.989,4.989,0,0,0-.187-1.181,4.705,4.705,0,0,1-.185-.884,3.734,3.734,0,0,0-.24-1c-.106-.071-.258-.172-.418-.268H5.208a1.189,1.189,0,0,1-.357-.045c-.047.014-.124.045-.178.067l-.011,0c-.073.03-.137.055-.2.077L4.341,6a9.441,9.441,0,0,0-1.266.481,2.76,2.76,0,0,0-.826.6v1c.082.178.156.35.223.5a5.143,5.143,0,0,0,.7,1.3c.121,0,.251.006.4.006.193,0,.4,0,.554-.007h.03C4.348,9.886,4.536,9.883,4.729,9.883Z" transform="translate(-19771.947 -10701.872)"/>
      <path id="パス_19" data-name="パス 19" d="M546.494,122.833l.646.392-.2.673a5.19,5.19,0,0,1-2.134.258,11.284,11.284,0,0,0-1.282.228,2.205,2.205,0,0,0,.271.24,6.285,6.285,0,0,1,1.128,1.1,1.383,1.383,0,0,0,.454.466c.715.342,1.351.82,2.046,1.2a3.084,3.084,0,0,0,2.029.308,2.145,2.145,0,0,0,1.558-.88h.51c-.013.119.01.236-.037.282-.35.344-.719.668-1.071,1.01-.159.155-.292.337-.459.532-.549,0-1.07.28-1.669.237a6.336,6.336,0,0,1-2.274-.675,23.912,23.912,0,0,1-2.432-1.46,5.42,5.42,0,0,0,.305,2.4l-.571.16c-.549.07-.953-.335-1.239-1.036-.092-.354.192-.868-.116-1.331a.159.159,0,0,1,.019-.13,1.246,1.246,0,0,0-.176-1.339,1.107,1.107,0,0,0-.961.412c-.558.638-1.386.976-1.824,1.769a2.037,2.037,0,0,1-1.024.9c-.205.081-.338.349-.5.53a1.789,1.789,0,0,1-.482-1.707,30.833,30.833,0,0,0,3.9-2.886c-1.222.174-2.164.781-3.219.584l-1.87-1.188c.119-.558.728-.488.894-.913a2.6,2.6,0,0,0,1.489.085,21.058,21.058,0,0,1,3.028-.226c.275-.015.551,0,.909,0l-.287-.689.962-.3c.389.253.656.493.588,1.021.559-.14,1.105.171,1.63-.206a.56.56,0,0,1,.538.012c.3.293.66.077.919.17" transform="translate(-20309.465 -10811.664)"/>
      <path id="パス_20" data-name="パス 20" d="M692.7,84a11.7,11.7,0,0,1-1.578-1.764V80.84c.554-.184,1.007.1,1.488.23.2.054.486.166.606.078.346-.253.71-.137,1.066-.17a5.411,5.411,0,0,0,1.348-.149,1.214,1.214,0,0,1,1.24.135c.106.093.364.014.573.014l.1.253c.868.353.609.24,1.329,1.733l-.7.289a6.036,6.036,0,0,0-2.033,1.673,1.154,1.154,0,0,0-.278,1.137,8.756,8.756,0,0,0,2.737,1.373l.593.592v1.223a2.02,2.02,0,0,1-.322.03,3.294,3.294,0,0,0-3.059,1.544,3.178,3.178,0,0,1-.726.561l-.8-.453.13-.853-.233-.093.639-.619.447.127,1.19-.936a1.469,1.469,0,0,0-.915-.6,1.523,1.523,0,0,1-1.247-1.616,7.712,7.712,0,0,1,.431-1.9,3.914,3.914,0,0,1,.3-.756c-.409-.254-.645.226-.993.275a2.207,2.207,0,0,1-1.191-.1L692.7,84" transform="translate(-20435.451 -10778.313)"/>
      <path id="パス_21" data-name="パス 21" d="M196.533,58.082a3.266,3.266,0,0,1,.785.68,3.551,3.551,0,0,1,.253,1.067c-.439.483-1.2.759-1.325,1.392-.135.676-.748,1.076-.723,1.924l.152.164.665-.177.194-1.411a1.478,1.478,0,0,1,1.4.294l.934,1.823a1.62,1.62,0,0,1-1.221,1.229l-.311-.506c-.986-.29-1.819.437-2.773.316a6.161,6.161,0,0,0-.611.6,5.16,5.16,0,0,0-.4.7h-1a3.791,3.791,0,0,1-1.636-1.712,4.188,4.188,0,0,1,1.13-2.684c.315-.433.642-.859.928-1.311a11.57,11.57,0,0,1,2.306-2.382Z" transform="translate(-20029.65 -10759.945)"/>
      <path id="前面オブジェクトで型抜き_3" data-name="前面オブジェクトで型抜き 3" d="M1.791,7.018h0l-.235-.1-.1-.045-.3-.132L.837,5.773.461,4.613a1,1,0,0,1-.085-.487,1.026,1.026,0,0,0-.162-.649A.713.713,0,0,1,.149,3a.906.906,0,0,0-.124-.666c-.068-.09.014-.3.087-.478a2.014,2.014,0,0,0,.076-.208l.28-.191.18-.123L.992,1.1a.139.139,0,0,1,.052-.008.863.863,0,0,1,.134.017h0l.023,0h0a1.238,1.238,0,0,0,.212.022.5.5,0,0,0,.4-.184.645.645,0,0,0,.125.013.761.761,0,0,0,.555-.34A1.91,1.91,0,0,1,2.782.359l.2.057L3.1.452l.068.019.186.054A1.624,1.624,0,0,1,4.4,0,1.85,1.85,0,0,1,5.431.434c.08.056.165.109.241.155l0,0c.092.057.187.115.275.18a1.364,1.364,0,0,1,.187.178h0c.024.026.055.059.086.09V1.6a1.357,1.357,0,0,1-.559.465,1.5,1.5,0,0,0-.919,1.353,4.763,4.763,0,0,1-.257,1.246,10.674,10.674,0,0,0-.351,1.508.512.512,0,0,1-.281.08,1.388,1.388,0,0,1-.5-.135h0a1.378,1.378,0,0,0-.489-.134.56.56,0,0,0-.474.288L1.808,7l-.017.021ZM3.4,2.452h0a1.126,1.126,0,0,0-.893.592,1.358,1.358,0,0,1-.428.433A2.185,2.185,0,0,0,2.37,4.77l.143-.047.164-.054.54-.178c.018-.1.039-.192.059-.286v0a5.537,5.537,0,0,0,.114-.659A6.759,6.759,0,0,0,3.4,2.825c0-.119,0-.242,0-.373Z" transform="translate(-19751.336 -10689.789)"/>
      <path id="前面オブジェクトで型抜き_3_-_アウトライン" data-name="前面オブジェクトで型抜き 3 - アウトライン" class="cls-3" d="M2.03,7.518H1.686l-.462-.2L.95,7.2l-.206-.09L.361,5.927,0,4.8A1.5,1.5,0,0,1-.124,4.13c0-.2-.008-.277-.069-.363a1.151,1.151,0,0,1-.156-.811c.013-.165.018-.269-.023-.323a.953.953,0,0,1,.021-.967c.021-.051.049-.121.057-.151l.048-.179,1-.682L.805.634A.636.636,0,0,1,1.044.59a1.252,1.252,0,0,1,.218.024l.03.005h0a.81.81,0,0,0,.127.015c.01,0,.016,0,.02,0L1.631.4,1.923.46a.147.147,0,0,0,.028,0A.955.955,0,0,0,2.136.288a2.339,2.339,0,0,1,.349-.331l.2-.147.238.07.13.038.186.054A1.839,1.839,0,0,1,4.4-.5a2.286,2.286,0,0,1,1.32.525c.069.048.15.1.215.138l.006,0c.092.057.2.123.305.2A1.794,1.794,0,0,1,6.5.607l0,0c.021.023.046.05.072.075l.146.146v.9l-.066.115a1.789,1.789,0,0,1-.745.651,1.014,1.014,0,0,0-.666.937A5.224,5.224,0,0,1,4.969,4.8a10.288,10.288,0,0,0-.336,1.437L4.6,6.469l-.2.125a1.011,1.011,0,0,1-.548.158,1.818,1.818,0,0,1-.685-.171l0,0h0l-.008,0a1.175,1.175,0,0,0-.292-.094h0a.317.317,0,0,0-.063.072l-.021.028-.483.6ZM1.557,6.37l.067.029.017.007.351-.438a1.04,1.04,0,0,1,.874-.488,1.789,1.789,0,0,1,.672.169l.02.008c.048.019.1.04.149.057.082-.425.2-.826.3-1.19a4.683,4.683,0,0,0,.238-1.1V3.4l0-.028A1.989,1.989,0,0,1,5.416,1.63a1.82,1.82,0,0,0,.307-.2V1.239a.606.606,0,0,0-.069-.065c-.073-.053-.159-.106-.242-.157l-.005,0C5.338.971,5.239.91,5.145.844A1.47,1.47,0,0,0,4.4.5c-.12,0-.31.045-.712.4l-.206.181L2.915.918,2.877.959a1.252,1.252,0,0,1-.877.5,1.011,1.011,0,0,1-.58.172,1.671,1.671,0,0,1-.287-.028l-.528.36-.03.074c-.016.039-.038.094-.055.141a1.474,1.474,0,0,1,.126.856,1.63,1.63,0,0,0-.008.177,1.508,1.508,0,0,1,.236.909A.672.672,0,0,0,.9,4.378l.021.039.013.042.376,1.16ZM2.1,5.387l-.183-.415A2.637,2.637,0,0,1,1.576,3.48l0-.3.268-.142A1.052,1.052,0,0,0,2.1,2.748,1.612,1.612,0,0,1,3.37,1.953l.027.5.5-.031.031.5H3.9a6.239,6.239,0,0,1-.015.663,5.914,5.914,0,0,1-.123.719l0,.007c-.018.082-.038.179-.056.27l-.055.289Zm.483-1.659a1.4,1.4,0,0,0,.025.279,1.113,1.113,0,0,0,.046.145l.136-.045V4.093a5.139,5.139,0,0,0,.1-.594c0-.05.007-.1.01-.152A2.538,2.538,0,0,1,2.579,3.727Z" transform="translate(-19751.336 -10689.789)"/>
      <path id="パス_23" data-name="パス 23" d="M234.885,97.188c1.336-.048,1.547.077,2.036,1.184a1.468,1.468,0,0,0,.991.3,1.154,1.154,0,0,1,1.064.454v.792a6.284,6.284,0,0,1-2.6.226c-.012.241-.022.449-.032.658a3.31,3.31,0,0,0,1.209.909,4.264,4.264,0,0,0,1.47.526,11.231,11.231,0,0,0,1.649-.162l-1.471.745h-.846l-.3.23-.358-.262-.325.206-1.605-.437a1.363,1.363,0,0,0-.27-.305c-.746-.554-.82-1.4-1.051-2.205a4.683,4.683,0,0,1,.442-2.863" transform="translate(-20064.891 -10791.662)"/>
      <path id="パス_24" data-name="パス 24" d="M238.4,61.369l.262.774-.4,1.027.429.146-.119.13a7.551,7.551,0,0,1,.936.009,5.411,5.411,0,0,1,.823.242l.607.595v.383a3.211,3.211,0,0,1-2.565.045.941.941,0,0,0,.289,1.066,3.416,3.416,0,0,0,1.691,1.137,2.109,2.109,0,0,1,.41.2c-.077.633-.685.469-1.037.639-.426.205-.87-.163-1.309-.173a5.947,5.947,0,0,1-1.9-2.971,1.916,1.916,0,0,1-.106-.611c-.011-.627,0-1.254-.01-1.881a2.61,2.61,0,0,0-.132-.532c.348-.287.721-.577,1.3-.248.212.121.551.02.833.02" transform="translate(-20066.451 -10762.476)"/>
      <path id="パス_25" data-name="パス 25" d="M211.72,102.364l.388-.1c0-.6.033-1.22-.009-1.837-.041-.6-.158-1.2-.253-1.87h-1.8c-.046-.442.3-.558.436-.744,1.264-.316,2.522-.772,3.591.546l-.641,1.181c0,.354-.023.858.008,1.359.022.353.142.7.174,1.053s0,.69.01,1.036a.632.632,0,0,0,.079.248,2.977,2.977,0,0,1,.262,1.841l-.591.262a1.464,1.464,0,0,1-1.247-1.382c-.047-.395-.234-.727-.314-1.1-.035-.165-.062-.332-.091-.493" transform="translate(-20045.176 -10791.899)"/>
      <path id="パス_26" data-name="パス 26" d="M177.117,145.425v1.118a6.766,6.766,0,0,1-1.011.238,3.486,3.486,0,0,1-1.631-.366,6.4,6.4,0,0,1-2.449-1.61V143.63l.769-.563a4.066,4.066,0,0,1,2.565.5,3.688,3.688,0,0,1,1.758,1.857" transform="translate(-20014.336 -10828.835)"/>
      <path id="パス_27" data-name="パス 27" d="M199.3,109.4c-.658,1.109.107,1.816.285,2.69l-.637.465H198.5a2.481,2.481,0,0,1-.425-.568,3.01,3.01,0,0,1-.193-.952,15.686,15.686,0,0,1,.009-2.257c.082-.747.154-1.54,1.029-1.922.235-.1.356-.465.522-.7,1.459-.032,1.869.174,2.021,1.025l-.739.661-1.2-.586a1.466,1.466,0,0,0-.493,1.521c.4-.062.8-.147,1.2-.177s.8-.007,1.25-.007l-.23.382.185.275-.256.451c-.377.312-.939.2-1.528.216l-.355-.518" transform="translate(-20035.287 -10798.942)"/>
      <path id="パス_28" data-name="パス 28" d="M696.148,107.88c.569.154,1.123.2,1.431.737a6.2,6.2,0,0,0-.388,1.724c-.013.477-.14.949-.172,1.427a10.651,10.651,0,0,0,0,1.41c.034.509.143,1.012.175,1.521a7.829,7.829,0,0,0,.037,1.5,3.592,3.592,0,0,1,.153,1.152c-.02.352-.092.7-.138,1.026l-.534.273c-.039-.035-.131-.082-.163-.155-.327-.756-.775-1.495-.306-2.362.066-.121.005-.308.015-.463a9.14,9.14,0,0,1,.165-2.185c.244-.807-.2-1.622-.185-2.454a3.44,3.44,0,0,0,.048-1.074,3.956,3.956,0,0,0-.369-.982c-.2-.344.091-.679.23-1.09" transform="translate(-20439.291 -10800.342)"/>
      <path id="パス_29" data-name="パス 29" d="M480.293,146.582a3.147,3.147,0,0,0-.413,0,3.256,3.256,0,0,1-2.646-1.068,5.7,5.7,0,0,1-.956-1.371,3.465,3.465,0,0,1-.17-.325c.517-.816.8-.949,1.4-.644l.223-.2c.076.033.156.065.234.1a4.792,4.792,0,0,1,2.15,2.36,4.238,4.238,0,0,1,.18,1.143" transform="translate(-20261.02 -10828.813)"/>
      <path id="パス_30" data-name="パス 30" d="M250.081,138.763a1.278,1.278,0,0,1,.081-1.445c.6-.451,1.175-.173,1.759.159a4.1,4.1,0,0,0,.7.242l1.254,1.254v.514l-.675.405a6.926,6.926,0,0,1-3.12-1.129" transform="translate(-20077.506 -10824.032)"/>
      <path id="パス_31" data-name="パス 31" d="M521.066,111.388v-1.127c.159-.142.388-.35.62-.552a1.01,1.01,0,0,1,.286-.213c.327-.117.671-.189.992-.32a7.094,7.094,0,0,0,.846-.442c.391-.224.76.116,1.192-.024a1.449,1.449,0,0,1-.509,1.219,6.614,6.614,0,0,1-.88,1.022c-.34.238-.882.2-1.2.449-.483.375-.848-.1-1.343-.012" transform="translate(-20297.494 -10800.971)"/>
      <path id="パス_32" data-name="パス 32" d="M597.023,113.875a2.523,2.523,0,0,1,2.173-.272c.155.155.3.318.468.464s.323.252.56.435l.234.563-.535.776h-.843l-1.164-.486-.894-1.48" transform="translate(-20359.113 -10804.889)"/>
      <path id="パス_33" data-name="パス 33" d="M209.119,145.507l-.53.445c-.558-.051-1.239.155-1.834-.216-.238-.63-1.09-.979-.784-1.816,1.626-.149,1.866-.152,2.651.279a5.527,5.527,0,0,1,.315.583,5.818,5.818,0,0,1,.182.723" transform="translate(-20041.824 -10829.509)"/>
      <path id="パス_34" data-name="パス 34" d="M596.591,89.461v.455l-.483.661c-.59-.269-.845-.245-1.252.107-.165.142-.3.322-.468.457a5,5,0,0,1-.542.33h-1.071a12.2,12.2,0,0,1,1.928-2.627c.63-.225,1.165.413,1.888.618" transform="translate(-20355.668 -10784.86)"/>
      <path id="パス_35" data-name="パス 35" d="M523.65,88.364a10.768,10.768,0,0,1-2.52-1.556v-.454a2.539,2.539,0,0,1,1.755-.157l1.41.817v.912l-.645.439" transform="translate(-20297.547 -10782.667)"/>
      <path id="パス_36" data-name="パス 36" d="M456.59,147.131l-.529.762-.928-1.061v-1.645l.294-.294,1.407.181-.243,2.057" transform="translate(-20244.006 -10830.37)"/>
      <path id="パス_37" data-name="パス 37" d="M229.824,145.057a1.6,1.6,0,0,1,.428,1.476,1.808,1.808,0,0,0-.5.133c-.123.074-.193.237-.3.374l-1.406-.986-.258-.81.349-.4,1.685.214" transform="translate(-20059.574 -10830.329)"/>
      <path id="パス_107" data-name="パス 107" d="M641.062,67.677l-1.878.213a8.394,8.394,0,0,0-.232-2.59,2.9,2.9,0,0,1,.868-.4c.464-.043.407-.485.615-.646a1.223,1.223,0,0,0-.9-.886h-1.7l.017.017-.132.154-.059-.059.154-.132.018.018c.02-.052.03-.138.062-.148.354-.106.747.046,1.1-.208.091-.066.355.106.54.169l.883-.437.239-.481a5.592,5.592,0,0,0-.34-1.02,12.039,12.039,0,0,0-1.068-1.63,5.5,5.5,0,0,0-1.341-1.048,2.408,2.408,0,0,0-1.694-.463l-.246.246a4.03,4.03,0,0,0,1.058,3.561L636.6,63a.6.6,0,0,0-.049.053,2.611,2.611,0,0,1-1.568.993,2.989,2.989,0,0,1-1.788-.087,5.23,5.23,0,0,0-1.4-.2c0,.381.015.695,0,1.007a1.388,1.388,0,0,0,.6,1.167c.344.29.721.542,1.085.812h1.268l.326-.327h.778c-.6.747-.026,1.476-.09,2.2-1.2.089-2.369.594-3.5-.122h-1.9l-.23.23v1.036l2.512,2.918,1.571-.3.272-1.376a2.762,2.762,0,0,1,1.679-1.134c.466-.091.913-.241,1.4-.293a7.276,7.276,0,0,0,1.97-.466,10.794,10.794,0,0,1,1.875-.511.754.754,0,0,0-.332-.926m-3.041-.391-.5.989c-.423.057-.355-.448-.623-.649V66.359l.774-.7h.472c.028.028.071.053.069.072-.065.565-.134,1.129-.187,1.558" transform="translate(-20385.961 -10759.951)"/>
      <path id="パス_116" data-name="パス 116" d="M562.872,94.1a1.639,1.639,0,0,1-1.635-.53,4.254,4.254,0,0,1-1.188-1.705l.484-.718h1.1a6.24,6.24,0,0,1,1.191.83,5.5,5.5,0,0,1,.663,1.246l-.618.878" transform="translate(-20329.119 -10786.772)"/>
      <text id="Resort_-_KUMANO_CLUB" data-name="Resort - KUMANO CLUB" class="cls-4" transform="translate(-19789.482 -10673.821)"><tspan x="-37.48" y="0">Resort - KUMANO CLUB</tspan></text>
      <text id="里創人" class="cls-5" transform="translate(-19788.873 -10706.527)"><tspan x="-10.8" y="0">里創人</tspan></text>
    </g>
  </g>
</svg>
