<svg xmlns="http://www.w3.org/2000/svg" width="24.767" height="23.424" viewBox="0 0 24.767 23.424">
  <defs>
    <style>
      .cls-1 {
        fill: #4b4b4b;
      }
    </style>
  </defs>
  <g id="吹き出しのアイコン15" transform="translate(0 -13.88)">
    <path id="パス_6091" data-name="パス 6091" class="cls-1" d="M21.407,16.786a13.8,13.8,0,0,0-9.062-2.906,13.78,13.78,0,0,0-8.868,2.826A9.494,9.494,0,0,0,.91,19.967,9.6,9.6,0,0,0,0,24.113a10.468,10.468,0,0,0,1.137,4.914,9.513,9.513,0,0,0,3.178,3.488c-.325,1.367-.782,3.322-.782,3.323a1.128,1.128,0,0,0-.031.272,1.194,1.194,0,0,0,.468.949h0a1.2,1.2,0,0,0,1.291.1l.017-.009.017-.01.622-.369c.564-.334,1.424-.842,2.191-1.294l1.031-.605c.287-.167.507-.3.589-.34l0,0,.005,0a5.051,5.051,0,0,1,2.6-.712,15.832,15.832,0,0,0,8.278-2.062,8.723,8.723,0,0,0,2.99-3.05,9.225,9.225,0,0,0,1.155-4.652A9.363,9.363,0,0,0,21.407,16.786Zm.589,11a6.6,6.6,0,0,1-1.656,1.9,10.072,10.072,0,0,1-3.651,1.738,16.982,16.982,0,0,1-4.344.536,6.933,6.933,0,0,0-3.519.952h0c-.152.085-.49.282-.936.543-.64.375-1.481.872-2.184,1.287.171-.73.37-1.576.519-2.2h0a1.466,1.466,0,0,0,.043-.344,1.16,1.16,0,0,0-.411-.9,1.525,1.525,0,0,0-.288-.189l-.056-.029-.006,0a7.69,7.69,0,0,1-2.718-2.912,8.6,8.6,0,0,1-.924-4.048,7.73,7.73,0,0,1,.73-3.347,8.048,8.048,0,0,1,3.569-3.623,13.069,13.069,0,0,1,6.182-1.4A11.959,11.959,0,0,1,20.2,18.208a7.485,7.485,0,0,1,2.7,5.847A7.361,7.361,0,0,1,22,27.781Z" transform="translate(0 0)"/>
    <path id="パス_6092" data-name="パス 6092" class="cls-1" d="M107.009,197.171a1.426,1.426,0,1,0,1.426,1.426A1.426,1.426,0,0,0,107.009,197.171Z" transform="translate(-100.476 -174.425)"/>
    <path id="パス_6093" data-name="パス 6093" class="cls-1" d="M221.976,197.171A1.426,1.426,0,1,0,223.4,198.6,1.426,1.426,0,0,0,221.976,197.171Z" transform="translate(-209.881 -174.425)"/>
    <path id="パス_6094" data-name="パス 6094" class="cls-1" d="M336.944,197.171a1.426,1.426,0,1,0,1.426,1.426A1.426,1.426,0,0,0,336.944,197.171Z" transform="translate(-319.288 -174.425)"/>
  </g>
</svg>
