<svg xmlns="http://www.w3.org/2000/svg" width="32" height="32" viewBox="0 0 32 32">
  <g id="Instagram_simple_icon" transform="translate(-4.079 -4.079)">
    <path id="パス_6213" data-name="パス 6213" d="M20.079,6.962c4.272,0,4.778.016,6.465.093a8.854,8.854,0,0,1,2.971.551,5.3,5.3,0,0,1,3.037,3.037,8.852,8.852,0,0,1,.551,2.971c.077,1.687.093,2.193.093,6.466s-.016,4.778-.093,6.466a8.856,8.856,0,0,1-.551,2.971,5.3,5.3,0,0,1-3.037,3.037,8.852,8.852,0,0,1-2.971.551c-1.687.077-2.193.093-6.465.093S15.3,33.18,13.613,33.1a8.855,8.855,0,0,1-2.971-.551,5.3,5.3,0,0,1-3.037-3.037,8.852,8.852,0,0,1-.551-2.971c-.077-1.687-.093-2.193-.093-6.466s.016-4.778.093-6.466a8.854,8.854,0,0,1,.551-2.971,5.3,5.3,0,0,1,3.037-3.037,8.852,8.852,0,0,1,2.971-.551c1.687-.077,2.193-.093,6.465-.093m0-2.883c-4.345,0-4.89.018-6.6.1A11.743,11.743,0,0,0,9.6,4.919,8.184,8.184,0,0,0,4.919,9.6a11.746,11.746,0,0,0-.743,3.884c-.078,1.706-.1,2.251-.1,6.6s.018,4.89.1,6.6a11.744,11.744,0,0,0,.744,3.884A8.182,8.182,0,0,0,9.6,35.239a11.744,11.744,0,0,0,3.884.744c1.707.078,2.251.1,6.6.1s4.89-.018,6.6-.1a11.743,11.743,0,0,0,3.884-.744,8.181,8.181,0,0,0,4.679-4.679,11.744,11.744,0,0,0,.744-3.884c.078-1.707.1-2.251.1-6.6s-.018-4.89-.1-6.6A11.744,11.744,0,0,0,35.239,9.6a8.183,8.183,0,0,0-4.68-4.68,11.746,11.746,0,0,0-3.884-.743c-1.706-.078-2.251-.1-6.6-.1h0Z" transform="translate(0)"/>
    <path id="パス_6214" data-name="パス 6214" d="M134.911,126.635a8.276,8.276,0,1,0,8.276,8.276A8.276,8.276,0,0,0,134.911,126.635Zm0,13.648a5.372,5.372,0,1,1,5.372-5.372,5.372,5.372,0,0,1-5.372,5.372Z" transform="translate(-114.832 -114.832)"/>
    <circle id="楕円形_138" data-name="楕円形 138" cx="1.905" cy="1.905" r="1.905" transform="translate(26.723 9.624)"/>
  </g>
</svg>
